<?xml version="1.0" encoding="UTF-8" standalone="no"?>
<!DOCTYPE svg PUBLIC "-//W3C//DTD SVG 1.1//EN"
 "http://www.w3.org/Graphics/SVG/1.1/DTD/svg11.dtd">
<!-- Generated by graphviz version 12.1.2 (20240928.0832)
 -->
<!-- Title: education_levels Pages: 1 -->
<svg width="772pt" height="602pt"
 viewBox="0.00 0.00 772.43 602.00" xmlns="http://www.w3.org/2000/svg" xmlns:xlink="http://www.w3.org/1999/xlink">
<g id="graph0" class="graph" transform="scale(1 1) rotate(0) translate(4 598)">
<title>education_levels</title>
<polygon fill="white" stroke="none" points="-4,4 -4,-598 768.43,-598 768.43,4 -4,4"/>
<!-- education_levels -->
<g id="node1" class="node">
<title>education_levels</title>
<polygon fill="#efefef" stroke="none" points="217.2,-107.8 217.2,-143.4 476.65,-143.4 476.65,-107.8 217.2,-107.8"/>
<polygon fill="none" stroke="black" points="217.2,-107.8 217.2,-143.4 476.65,-143.4 476.65,-107.8 217.2,-107.8"/>
<text text-anchor="start" x="224.2" y="-121.2" font-family="Arial Bold" font-size="18.00">education_levels</text>
<text text-anchor="start" x="345.16" y="-121.2" font-family="Arial" font-size="14.00">    </text>
<text text-anchor="start" x="376.28" y="-121.2" font-family="Arial" font-size="14.00" fill="#666666">[BASE TABLE]</text>
<polygon fill="none" stroke="black" points="217.2,-77 217.2,-107.8 476.65,-107.8 476.65,-77 217.2,-77"/>
<text text-anchor="start" x="224.2" y="-89.2" font-family="Arial" font-size="14.00">id </text>
<text text-anchor="start" x="238.99" y="-89.2" font-family="Arial" font-size="14.00" fill="#666666">[int]</text>
<polygon fill="none" stroke="black" points="217.2,-46.2 217.2,-77 476.65,-77 476.65,-46.2 217.2,-46.2"/>
<text text-anchor="start" x="224.2" y="-58.4" font-family="Arial" font-size="14.00">name </text>
<text text-anchor="start" x="263.11" y="-58.4" font-family="Arial" font-size="14.00" fill="#666666">[varchar(8)]</text>
<polygon fill="none" stroke="black" stroke-width="3" points="215.7,-44.7 215.7,-144.9 478.15,-144.9 478.15,-44.7 215.7,-44.7"/>
</g>
<!-- scholarship_targets -->
<g id="node2" class="node">
<title>scholarship_targets</title>
<polygon fill="#efefef" stroke="none" points="43.2,-438.2 43.2,-473.8 320.65,-473.8 320.65,-438.2 43.2,-438.2"/>
<polygon fill="none" stroke="black" points="43.2,-438.2 43.2,-473.8 320.65,-473.8 320.65,-438.2 43.2,-438.2"/>
<text text-anchor="start" x="50.2" y="-451.6" font-family="Arial Bold" font-size="18.00">scholarship_targets</text>
<text text-anchor="start" x="189.16" y="-451.6" font-family="Arial" font-size="14.00">    </text>
<text text-anchor="start" x="220.28" y="-451.6" font-family="Arial" font-size="14.00" fill="#666666">[BASE TABLE]</text>
<polygon fill="none" stroke="black" points="43.2,-407.4 43.2,-438.2 320.65,-438.2 320.65,-407.4 43.2,-407.4"/>
<text text-anchor="start" x="50.2" y="-419.6" font-family="Arial" font-size="14.00">id </text>
<text text-anchor="start" x="64.99" y="-419.6" font-family="Arial" font-size="14.00" fill="#666666">[int]</text>
<polygon fill="none" stroke="black" points="43.2,-376.6 43.2,-407.4 320.65,-407.4 320.65,-376.6 43.2,-376.6"/>
<text text-anchor="start" x="50.2" y="-388.8" font-family="Arial" font-size="14.00">scholarship_id </text>
<text text-anchor="start" x="143.59" y="-388.8" font-family="Arial" font-size="14.00" fill="#666666">[int]</text>
<polygon fill="none" stroke="black" points="43.2,-345.8 43.2,-376.6 320.65,-376.6 320.65,-345.8 43.2,-345.8"/>
<text text-anchor="start" x="50.2" y="-358" font-family="Arial" font-size="14.00">education_level_id </text>
<text text-anchor="start" x="170.07" y="-358" font-family="Arial" font-size="14.00" fill="#666666">[int]</text>
</g>
<!-- scholarship_targets&#45;&gt;education_levels -->
<g id="edge1" class="edge">
<title>scholarship_targets:education_level_id&#45;&gt;education_levels:id</title>
<path fill="none" stroke="black" d="M331.49,-358.38C341.95,-349.68 328.64,-322.64 320.65,-302.6 295.45,-239.35 242.19,-252.94 217.2,-189.6 201.35,-149.41 173,-92.4 216.2,-92.4"/>
<polygon fill="black" stroke="black" points="331.59,-358.35 320.73,-356.78 326.46,-359.82 322.3,-361.02 322.3,-361.02 322.3,-361.02 326.46,-359.82 323.22,-365.43 331.59,-358.35"/>
<text text-anchor="start" x="328.65" y="-371.2" font-family="Arial" font-size="10.00">FOREIGN KEY (education_level_id) REFERENCES education_levels (id)</text>
</g>
<!-- users -->
<g id="node3" class="node">
<title>users</title>
<polygon fill="#efefef" stroke="none" points="425.19,-515.2 425.19,-550.8 600.67,-550.8 600.67,-515.2 425.19,-515.2"/>
<polygon fill="none" stroke="black" points="425.19,-515.2 425.19,-550.8 600.67,-550.8 600.67,-515.2 425.19,-515.2"/>
<text text-anchor="start" x="432.19" y="-528.6" font-family="Arial Bold" font-size="18.00">users</text>
<text text-anchor="start" x="469.18" y="-528.6" font-family="Arial" font-size="14.00">    </text>
<text text-anchor="start" x="500.3" y="-528.6" font-family="Arial" font-size="14.00" fill="#666666">[BASE TABLE]</text>
<polygon fill="none" stroke="black" points="425.19,-484.4 425.19,-515.2 600.67,-515.2 600.67,-484.4 425.19,-484.4"/>
<text text-anchor="start" x="432.19" y="-496.6" font-family="Arial" font-size="14.00">id </text>
<text text-anchor="start" x="446.97" y="-496.6" font-family="Arial" font-size="14.00" fill="#666666">[varchar(64)]</text>
<polygon fill="none" stroke="black" points="425.19,-453.6 425.19,-484.4 600.67,-484.4 600.67,-453.6 425.19,-453.6"/>
<text text-anchor="start" x="432.19" y="-465.8" font-family="Arial" font-size="14.00">email </text>
<text text-anchor="start" x="469.53" y="-465.8" font-family="Arial" font-size="14.00" fill="#666666">[varchar(255)]</text>
<polygon fill="none" stroke="black" points="425.19,-422.8 425.19,-453.6 600.67,-453.6 600.67,-422.8 425.19,-422.8"/>
<text text-anchor="start" x="432.19" y="-435" font-family="Arial" font-size="14.00">name </text>
<text text-anchor="start" x="471.1" y="-435" font-family="Arial" font-size="14.00" fill="#666666">[varchar(255)]</text>
<polygon fill="none" stroke="black" points="425.19,-392 425.19,-422.8 600.67,-422.8 600.67,-392 425.19,-392"/>
<text text-anchor="start" x="432.19" y="-404.2" font-family="Arial" font-size="14.00">education_level_id </text>
<text text-anchor="start" x="552.05" y="-404.2" font-family="Arial" font-size="14.00" fill="#666666">[int]</text>
<polygon fill="none" stroke="black" points="425.19,-361.2 425.19,-392 600.67,-392 600.67,-361.2 425.19,-361.2"/>
<text text-anchor="start" x="432.19" y="-373.4" font-family="Arial" font-size="14.00">grade </text>
<text text-anchor="start" x="471.88" y="-373.4" font-family="Arial" font-size="14.00" fill="#666666">[int]</text>
<polygon fill="none" stroke="black" points="425.19,-330.4 425.19,-361.2 600.67,-361.2 600.67,-330.4 425.19,-330.4"/>
<text text-anchor="start" x="432.19" y="-342.6" font-family="Arial" font-size="14.00">accept_email </text>
<text text-anchor="start" x="518.56" y="-342.6" font-family="Arial" font-size="14.00" fill="#666666">[tinyint(1)]</text>
<polygon fill="none" stroke="black" points="425.19,-299.6 425.19,-330.4 600.67,-330.4 600.67,-299.6 425.19,-299.6"/>
<text text-anchor="start" x="432.19" y="-311.8" font-family="Arial" font-size="14.00">created_at </text>
<text text-anchor="start" x="502.23" y="-311.8" font-family="Arial" font-size="14.00" fill="#666666">[timestamp]</text>
<polygon fill="none" stroke="black" points="425.19,-268.8 425.19,-299.6 600.67,-299.6 600.67,-268.8 425.19,-268.8"/>
<text text-anchor="start" x="432.19" y="-281" font-family="Arial" font-size="14.00">updated_at </text>
<text text-anchor="start" x="506.14" y="-281" font-family="Arial" font-size="14.00" fill="#666666">[timestamp]</text>
</g>
<!-- users&#45;&gt;education_levels -->
<g id="edge2" class="edge">
<title>users:education_level_id&#45;&gt;education_levels:id</title>
<path fill="none" stroke="black" d="M414.04,-406.75C347.35,-397.57 389.35,-293.95 425.19,-225.6 438.15,-200.88 463.63,-214.29 476.65,-189.6 496.8,-151.39 520.85,-92.4 477.65,-92.4"/>
<polygon fill="black" stroke="black" points="413.87,-406.74 423.56,-411.87 419.2,-407.08 423.52,-407.36 423.52,-407.36 423.52,-407.36 419.2,-407.08 424.14,-402.89 413.87,-406.74"/>
<text text-anchor="start" x="431.19" y="-417.4" font-family="Arial" font-size="10.00">FOREIGN KEY (education_level_id) REFERENCES education_levels (id)</text>
</g>
</g>
</svg>
