<?xml version="1.0" encoding="UTF-8" standalone="no"?>
<!DOCTYPE svg PUBLIC "-//W3C//DTD SVG 1.1//EN"
 "http://www.w3.org/Graphics/SVG/1.1/DTD/svg11.dtd">
<!-- Generated by graphviz version 12.1.2 (20240928.0832)
 -->
<!-- Title: education_levels Pages: 1 -->
<svg width="772pt" height="540pt"
 viewBox="0.00 0.00 772.43 540.40" xmlns="http://www.w3.org/2000/svg" xmlns:xlink="http://www.w3.org/1999/xlink">
<g id="graph0" class="graph" transform="scale(1 1) rotate(0) translate(4 536.4)">
<title>education_levels</title>
<polygon fill="white" stroke="none" points="-4,4 -4,-536.4 768.43,-536.4 768.43,4 -4,4"/>
<!-- education_levels -->
<g id="node1" class="node">
<title>education_levels</title>
<polygon fill="#efefef" stroke="none" points="217.2,-107.8 217.2,-143.4 476.65,-143.4 476.65,-107.8 217.2,-107.8"/>
<polygon fill="none" stroke="black" points="217.2,-107.8 217.2,-143.4 476.65,-143.4 476.65,-107.8 217.2,-107.8"/>
<text text-anchor="start" x="224.2" y="-121.2" font-family="Arial Bold" font-size="18.00">education_levels</text>
<text text-anchor="start" x="345.16" y="-121.2" font-family="Arial" font-size="14.00">    </text>
<text text-anchor="start" x="376.28" y="-121.2" font-family="Arial" font-size="14.00" fill="#666666">[BASE TABLE]</text>
<polygon fill="none" stroke="black" points="217.2,-77 217.2,-107.8 476.65,-107.8 476.65,-77 217.2,-77"/>
<text text-anchor="start" x="224.2" y="-89.2" font-family="Arial" font-size="14.00">id </text>
<text text-anchor="start" x="238.99" y="-89.2" font-family="Arial" font-size="14.00" fill="#666666">[int]</text>
<polygon fill="none" stroke="black" points="217.2,-46.2 217.2,-77 476.65,-77 476.65,-46.2 217.2,-46.2"/>
<text text-anchor="start" x="224.2" y="-58.4" font-family="Arial" font-size="14.00">name </text>
<text text-anchor="start" x="263.11" y="-58.4" font-family="Arial" font-size="14.00" fill="#666666">[varchar(8)]</text>
<polygon fill="none" stroke="black" stroke-width="3" points="215.7,-44.7 215.7,-144.9 478.15,-144.9 478.15,-44.7 215.7,-44.7"/>
</g>
<!-- scholarship_targets -->
<g id="node2" class="node">
<title>scholarship_targets</title>
<polygon fill="#efefef" stroke="none" points="43.2,-407.4 43.2,-443 320.65,-443 320.65,-407.4 43.2,-407.4"/>
<polygon fill="none" stroke="black" points="43.2,-407.4 43.2,-443 320.65,-443 320.65,-407.4 43.2,-407.4"/>
<text text-anchor="start" x="50.2" y="-420.8" font-family="Arial Bold" font-size="18.00">scholarship_targets</text>
<text text-anchor="start" x="189.16" y="-420.8" font-family="Arial" font-size="14.00">    </text>
<text text-anchor="start" x="220.28" y="-420.8" font-family="Arial" font-size="14.00" fill="#666666">[BASE TABLE]</text>
<polygon fill="none" stroke="black" points="43.2,-376.6 43.2,-407.4 320.65,-407.4 320.65,-376.6 43.2,-376.6"/>
<text text-anchor="start" x="50.2" y="-388.8" font-family="Arial" font-size="14.00">id </text>
<text text-anchor="start" x="64.99" y="-388.8" font-family="Arial" font-size="14.00" fill="#666666">[int]</text>
<polygon fill="none" stroke="black" points="43.2,-345.8 43.2,-376.6 320.65,-376.6 320.65,-345.8 43.2,-345.8"/>
<text text-anchor="start" x="50.2" y="-358" font-family="Arial" font-size="14.00">scholarship_id </text>
<text text-anchor="start" x="143.59" y="-358" font-family="Arial" font-size="14.00" fill="#666666">[int]</text>
<polygon fill="none" stroke="black" points="43.2,-315 43.2,-345.8 320.65,-345.8 320.65,-315 43.2,-315"/>
<text text-anchor="start" x="50.2" y="-327.2" font-family="Arial" font-size="14.00">education_level_id </text>
<text text-anchor="start" x="170.07" y="-327.2" font-family="Arial" font-size="14.00" fill="#666666">[int]</text>
</g>
<!-- scholarship_targets&#45;&gt;education_levels -->
<g id="edge1" class="edge">
<title>scholarship_targets:education_level_id&#45;&gt;education_levels:id</title>
<path fill="none" stroke="black" d="M331.63,-327.52C342.48,-318.64 330.2,-291.15 320.65,-271.8 294.68,-219.13 243,-242.35 217.2,-189.6 198.23,-150.79 173,-92.4 216.2,-92.4"/>
<polygon fill="black" stroke="black" points="331.58,-327.53 320.73,-325.98 326.46,-329.01 322.3,-330.21 322.3,-330.21 322.3,-330.21 326.46,-329.01 323.22,-334.63 331.58,-327.53"/>
<text text-anchor="start" x="328.65" y="-340.4" font-family="Arial" font-size="10.00">FOREIGN KEY (education_level_id) REFERENCES education_levels (id)</text>
</g>
<!-- users -->
<g id="node3" class="node">
<title>users</title>
<polygon fill="#efefef" stroke="none" points="425.19,-453.6 425.19,-489.2 600.67,-489.2 600.67,-453.6 425.19,-453.6"/>
<polygon fill="none" stroke="black" points="425.19,-453.6 425.19,-489.2 600.67,-489.2 600.67,-453.6 425.19,-453.6"/>
<text text-anchor="start" x="432.19" y="-467" font-family="Arial Bold" font-size="18.00">users</text>
<text text-anchor="start" x="469.18" y="-467" font-family="Arial" font-size="14.00">    </text>
<text text-anchor="start" x="500.3" y="-467" font-family="Arial" font-size="14.00" fill="#666666">[BASE TABLE]</text>
<polygon fill="none" stroke="black" points="425.19,-422.8 425.19,-453.6 600.67,-453.6 600.67,-422.8 425.19,-422.8"/>
<text text-anchor="start" x="432.19" y="-435" font-family="Arial" font-size="14.00">id </text>
<text text-anchor="start" x="446.97" y="-435" font-family="Arial" font-size="14.00" fill="#666666">[char(36)]</text>
<polygon fill="none" stroke="black" points="425.19,-392 425.19,-422.8 600.67,-422.8 600.67,-392 425.19,-392"/>
<text text-anchor="start" x="432.19" y="-404.2" font-family="Arial" font-size="14.00">email </text>
<text text-anchor="start" x="469.53" y="-404.2" font-family="Arial" font-size="14.00" fill="#666666">[varchar(255)]</text>
<polygon fill="none" stroke="black" points="425.19,-361.2 425.19,-392 600.67,-392 600.67,-361.2 425.19,-361.2"/>
<text text-anchor="start" x="432.19" y="-373.4" font-family="Arial" font-size="14.00">name </text>
<text text-anchor="start" x="471.1" y="-373.4" font-family="Arial" font-size="14.00" fill="#666666">[varchar(255)]</text>
<polygon fill="none" stroke="black" points="425.19,-330.4 425.19,-361.2 600.67,-361.2 600.67,-330.4 425.19,-330.4"/>
<text text-anchor="start" x="432.19" y="-342.6" font-family="Arial" font-size="14.00">education_level_id </text>
<text text-anchor="start" x="552.05" y="-342.6" font-family="Arial" font-size="14.00" fill="#666666">[int]</text>
<polygon fill="none" stroke="black" points="425.19,-299.6 425.19,-330.4 600.67,-330.4 600.67,-299.6 425.19,-299.6"/>
<text text-anchor="start" x="432.19" y="-311.8" font-family="Arial" font-size="14.00">created_at </text>
<text text-anchor="start" x="502.23" y="-311.8" font-family="Arial" font-size="14.00" fill="#666666">[timestamp]</text>
<polygon fill="none" stroke="black" points="425.19,-268.8 425.19,-299.6 600.67,-299.6 600.67,-268.8 425.19,-268.8"/>
<text text-anchor="start" x="432.19" y="-281" font-family="Arial" font-size="14.00">updated_at </text>
<text text-anchor="start" x="506.14" y="-281" font-family="Arial" font-size="14.00" fill="#666666">[timestamp]</text>
</g>
<!-- users&#45;&gt;education_levels -->
<g id="edge2" class="edge">
<title>users:education_level_id&#45;&gt;education_levels:id</title>
<path fill="none" stroke="black" d="M414.12,-344.75C374.89,-335.67 402.06,-269.55 425.19,-225.6 438.18,-200.9 463.63,-214.29 476.65,-189.6 496.8,-151.39 520.85,-92.4 477.65,-92.4"/>
<polygon fill="black" stroke="black" points="413.91,-344.73 423.39,-350.24 419.21,-345.28 423.52,-345.73 423.52,-345.73 423.52,-345.73 419.21,-345.28 424.32,-341.29 413.91,-344.73"/>
<text text-anchor="start" x="431.19" y="-355.8" font-family="Arial" font-size="10.00">FOREIGN KEY (education_level_id) REFERENCES education_levels (id)</text>
</g>
</g>
</svg>
