<?xml version="1.0" encoding="UTF-8" standalone="no"?>
<!DOCTYPE svg PUBLIC "-//W3C//DTD SVG 1.1//EN"
 "http://www.w3.org/Graphics/SVG/1.1/DTD/svg11.dtd">
<!-- Generated by graphviz version 12.1.2 (20240928.0832)
 -->
<!-- Title: education_levels Pages: 1 -->
<svg width="765pt" height="540pt"
 viewBox="0.00 0.00 764.93 540.40" xmlns="http://www.w3.org/2000/svg" xmlns:xlink="http://www.w3.org/1999/xlink">
<g id="graph0" class="graph" transform="scale(1 1) rotate(0) translate(4 536.4)">
<title>education_levels</title>
<polygon fill="white" stroke="none" points="-4,4 -4,-536.4 760.93,-536.4 760.93,4 -4,4"/>
<!-- education_levels -->
<g id="node1" class="node">
<title>education_levels</title>
<polygon fill="#efefef" stroke="none" points="211.7,-107.8 211.7,-143.4 471.15,-143.4 471.15,-107.8 211.7,-107.8"/>
<polygon fill="none" stroke="black" points="211.7,-107.8 211.7,-143.4 471.15,-143.4 471.15,-107.8 211.7,-107.8"/>
<text text-anchor="start" x="218.7" y="-121.2" font-family="Arial Bold" font-size="18.00">education_levels</text>
<text text-anchor="start" x="339.66" y="-121.2" font-family="Arial" font-size="14.00">    </text>
<text text-anchor="start" x="370.77" y="-121.2" font-family="Arial" font-size="14.00" fill="#666666">[BASE TABLE]</text>
<polygon fill="none" stroke="black" points="211.7,-77 211.7,-107.8 471.15,-107.8 471.15,-77 211.7,-77"/>
<text text-anchor="start" x="218.7" y="-89.2" font-family="Arial" font-size="14.00">id </text>
<text text-anchor="start" x="233.49" y="-89.2" font-family="Arial" font-size="14.00" fill="#666666">[int]</text>
<polygon fill="none" stroke="black" points="211.7,-46.2 211.7,-77 471.15,-77 471.15,-46.2 211.7,-46.2"/>
<text text-anchor="start" x="218.7" y="-58.4" font-family="Arial" font-size="14.00">name </text>
<text text-anchor="start" x="257.61" y="-58.4" font-family="Arial" font-size="14.00" fill="#666666">[varchar(8)]</text>
<polygon fill="none" stroke="black" stroke-width="3" points="210.2,-44.7 210.2,-144.9 472.65,-144.9 472.65,-44.7 210.2,-44.7"/>
</g>
<!-- scholarship_target -->
<g id="node2" class="node">
<title>scholarship_target</title>
<polygon fill="#efefef" stroke="none" points="43.2,-407.4 43.2,-443 313.65,-443 313.65,-407.4 43.2,-407.4"/>
<polygon fill="none" stroke="black" points="43.2,-407.4 43.2,-443 313.65,-443 313.65,-407.4 43.2,-407.4"/>
<text text-anchor="start" x="50.2" y="-420.8" font-family="Arial Bold" font-size="18.00">scholarship_target</text>
<text text-anchor="start" x="182.16" y="-420.8" font-family="Arial" font-size="14.00">    </text>
<text text-anchor="start" x="213.28" y="-420.8" font-family="Arial" font-size="14.00" fill="#666666">[BASE TABLE]</text>
<polygon fill="none" stroke="black" points="43.2,-376.6 43.2,-407.4 313.65,-407.4 313.65,-376.6 43.2,-376.6"/>
<text text-anchor="start" x="50.2" y="-388.8" font-family="Arial" font-size="14.00">id </text>
<text text-anchor="start" x="64.99" y="-388.8" font-family="Arial" font-size="14.00" fill="#666666">[int]</text>
<polygon fill="none" stroke="black" points="43.2,-345.8 43.2,-376.6 313.65,-376.6 313.65,-345.8 43.2,-345.8"/>
<text text-anchor="start" x="50.2" y="-358" font-family="Arial" font-size="14.00">scholarship_id </text>
<text text-anchor="start" x="143.59" y="-358" font-family="Arial" font-size="14.00" fill="#666666">[int]</text>
<polygon fill="none" stroke="black" points="43.2,-315 43.2,-345.8 313.65,-345.8 313.65,-315 43.2,-315"/>
<text text-anchor="start" x="50.2" y="-327.2" font-family="Arial" font-size="14.00">education_level_id </text>
<text text-anchor="start" x="170.07" y="-327.2" font-family="Arial" font-size="14.00" fill="#666666">[int]</text>
</g>
<!-- scholarship_target&#45;&gt;education_levels -->
<g id="edge1" class="edge">
<title>scholarship_target:education_level_id&#45;&gt;education_levels:id</title>
<path fill="none" stroke="black" d="M324.62,-327.52C335.45,-318.65 323.12,-291.18 313.65,-271.8 288.09,-219.51 237.08,-241.98 211.7,-189.6 192.86,-150.72 167.5,-92.4 210.7,-92.4"/>
<polygon fill="black" stroke="black" points="324.58,-327.53 313.72,-325.98 319.45,-329.01 315.29,-330.21 315.29,-330.21 315.29,-330.21 319.45,-329.01 316.22,-334.63 324.58,-327.53"/>
<text text-anchor="start" x="321.65" y="-340.4" font-family="Arial" font-size="10.00">FOREIGN KEY (education_level_id) REFERENCES education_levels (id)</text>
</g>
<!-- users -->
<g id="node3" class="node">
<title>users</title>
<polygon fill="#efefef" stroke="none" points="417.68,-453.6 417.68,-489.2 593.17,-489.2 593.17,-453.6 417.68,-453.6"/>
<polygon fill="none" stroke="black" points="417.68,-453.6 417.68,-489.2 593.17,-489.2 593.17,-453.6 417.68,-453.6"/>
<text text-anchor="start" x="424.68" y="-467" font-family="Arial Bold" font-size="18.00">users</text>
<text text-anchor="start" x="461.68" y="-467" font-family="Arial" font-size="14.00">    </text>
<text text-anchor="start" x="492.79" y="-467" font-family="Arial" font-size="14.00" fill="#666666">[BASE TABLE]</text>
<polygon fill="none" stroke="black" points="417.68,-422.8 417.68,-453.6 593.17,-453.6 593.17,-422.8 417.68,-422.8"/>
<text text-anchor="start" x="424.68" y="-435" font-family="Arial" font-size="14.00">id </text>
<text text-anchor="start" x="439.47" y="-435" font-family="Arial" font-size="14.00" fill="#666666">[int]</text>
<polygon fill="none" stroke="black" points="417.68,-392 417.68,-422.8 593.17,-422.8 593.17,-392 417.68,-392"/>
<text text-anchor="start" x="424.68" y="-404.2" font-family="Arial" font-size="14.00">uuid </text>
<text text-anchor="start" x="455.04" y="-404.2" font-family="Arial" font-size="14.00" fill="#666666">[char(36)]</text>
<polygon fill="none" stroke="black" points="417.68,-361.2 417.68,-392 593.17,-392 593.17,-361.2 417.68,-361.2"/>
<text text-anchor="start" x="424.68" y="-373.4" font-family="Arial" font-size="14.00">email </text>
<text text-anchor="start" x="462.03" y="-373.4" font-family="Arial" font-size="14.00" fill="#666666">[varchar(255)]</text>
<polygon fill="none" stroke="black" points="417.68,-330.4 417.68,-361.2 593.17,-361.2 593.17,-330.4 417.68,-330.4"/>
<text text-anchor="start" x="424.68" y="-342.6" font-family="Arial" font-size="14.00">name </text>
<text text-anchor="start" x="463.59" y="-342.6" font-family="Arial" font-size="14.00" fill="#666666">[varchar(255)]</text>
<polygon fill="none" stroke="black" points="417.68,-299.6 417.68,-330.4 593.17,-330.4 593.17,-299.6 417.68,-299.6"/>
<text text-anchor="start" x="424.68" y="-311.8" font-family="Arial" font-size="14.00">education_level_id </text>
<text text-anchor="start" x="544.55" y="-311.8" font-family="Arial" font-size="14.00" fill="#666666">[int]</text>
<polygon fill="none" stroke="black" points="417.68,-268.8 417.68,-299.6 593.17,-299.6 593.17,-268.8 417.68,-268.8"/>
<text text-anchor="start" x="424.68" y="-281" font-family="Arial" font-size="14.00">created_at </text>
<text text-anchor="start" x="494.73" y="-281" font-family="Arial" font-size="14.00" fill="#666666">[timestamp]</text>
</g>
<!-- users&#45;&gt;education_levels -->
<g id="edge2" class="edge">
<title>users:education_level_id&#45;&gt;education_levels:id</title>
<path fill="none" stroke="black" d="M406.41,-313.39C381.36,-304.15 400.73,-257.02 417.68,-225.6 431.28,-200.39 457.56,-214.82 471.15,-189.6 491.64,-151.57 515.35,-92.4 472.15,-92.4"/>
<polygon fill="black" stroke="black" points="406.47,-313.4 415.66,-319.39 411.74,-314.23 416.02,-314.9 416.02,-314.9 416.02,-314.9 411.74,-314.23 417.05,-310.5 406.47,-313.4"/>
<text text-anchor="start" x="423.68" y="-299" font-family="Arial" font-size="10.00">FOREIGN KEY (education_level_id) REFERENCES education_levels (id)</text>
</g>
</g>
</svg>
