<?xml version="1.0" encoding="UTF-8" standalone="no"?>
<!DOCTYPE svg PUBLIC "-//W3C//DTD SVG 1.1//EN"
 "http://www.w3.org/Graphics/SVG/1.1/DTD/svg11.dtd">
<!-- Generated by graphviz version 12.1.2 (20240928.0832)
 -->
<!-- Title: magic_links Pages: 1 -->
<svg width="522pt" height="694pt"
 viewBox="0.00 0.00 521.83 694.40" xmlns="http://www.w3.org/2000/svg" xmlns:xlink="http://www.w3.org/1999/xlink">
<g id="graph0" class="graph" transform="scale(1 1) rotate(0) translate(4 690.4)">
<title>magic_links</title>
<polygon fill="white" stroke="none" points="-4,4 -4,-690.4 517.83,-690.4 517.83,4 -4,4"/>
<!-- magic_links -->
<g id="node1" class="node">
<title>magic_links</title>
<polygon fill="#efefef" stroke="none" points="46.2,-604.6 46.2,-640.2 272.68,-640.2 272.68,-604.6 46.2,-604.6"/>
<polygon fill="none" stroke="black" points="46.2,-604.6 46.2,-640.2 272.68,-640.2 272.68,-604.6 46.2,-604.6"/>
<text text-anchor="start" x="53.2" y="-618" font-family="Arial Bold" font-size="18.00">magic_links</text>
<text text-anchor="start" x="141.19" y="-618" font-family="Arial" font-size="14.00">    </text>
<text text-anchor="start" x="172.3" y="-618" font-family="Arial" font-size="14.00" fill="#666666">[BASE TABLE]</text>
<polygon fill="none" stroke="black" points="46.2,-573.8 46.2,-604.6 272.68,-604.6 272.68,-573.8 46.2,-573.8"/>
<text text-anchor="start" x="53.2" y="-586" font-family="Arial" font-size="14.00">id </text>
<text text-anchor="start" x="67.99" y="-586" font-family="Arial" font-size="14.00" fill="#666666">[int]</text>
<polygon fill="none" stroke="black" points="46.2,-543 46.2,-573.8 272.68,-573.8 272.68,-543 46.2,-543"/>
<text text-anchor="start" x="53.2" y="-555.2" font-family="Arial" font-size="14.00">user_id </text>
<text text-anchor="start" x="103.01" y="-555.2" font-family="Arial" font-size="14.00" fill="#666666">[char(36)]</text>
<polygon fill="none" stroke="black" points="46.2,-512.2 46.2,-543 272.68,-543 272.68,-512.2 46.2,-512.2"/>
<text text-anchor="start" x="53.2" y="-524.4" font-family="Arial" font-size="14.00">token </text>
<text text-anchor="start" x="91.34" y="-524.4" font-family="Arial" font-size="14.00" fill="#666666">[varchar(255)]</text>
<polygon fill="none" stroke="black" points="46.2,-481.4 46.2,-512.2 272.68,-512.2 272.68,-481.4 46.2,-481.4"/>
<text text-anchor="start" x="53.2" y="-493.6" font-family="Arial" font-size="14.00">expires_at </text>
<text text-anchor="start" x="121.68" y="-493.6" font-family="Arial" font-size="14.00" fill="#666666">[datetime]</text>
<polygon fill="none" stroke="black" points="46.2,-450.6 46.2,-481.4 272.68,-481.4 272.68,-450.6 46.2,-450.6"/>
<text text-anchor="start" x="53.2" y="-462.8" font-family="Arial" font-size="14.00">used </text>
<text text-anchor="start" x="87.45" y="-462.8" font-family="Arial" font-size="14.00" fill="#666666">[tinyint(1)]</text>
<polygon fill="none" stroke="black" points="46.2,-419.8 46.2,-450.6 272.68,-450.6 272.68,-419.8 46.2,-419.8"/>
<text text-anchor="start" x="53.2" y="-432" font-family="Arial" font-size="14.00">created_at </text>
<text text-anchor="start" x="123.25" y="-432" font-family="Arial" font-size="14.00" fill="#666666">[datetime]</text>
<polygon fill="none" stroke="black" points="46.2,-389 46.2,-419.8 272.68,-419.8 272.68,-389 46.2,-389"/>
<text text-anchor="start" x="53.2" y="-401.2" font-family="Arial" font-size="14.00">updated_at </text>
<text text-anchor="start" x="127.16" y="-401.2" font-family="Arial" font-size="14.00" fill="#666666">[datetime]</text>
<polygon fill="none" stroke="black" stroke-width="3" points="44.7,-387.5 44.7,-641.7 274.18,-641.7 274.18,-387.5 44.7,-387.5"/>
</g>
<!-- users -->
<g id="node2" class="node">
<title>users</title>
<polygon fill="#efefef" stroke="none" points="71.7,-228 71.7,-263.6 247.18,-263.6 247.18,-228 71.7,-228"/>
<polygon fill="none" stroke="black" points="71.7,-228 71.7,-263.6 247.18,-263.6 247.18,-228 71.7,-228"/>
<text text-anchor="start" x="78.7" y="-241.4" font-family="Arial Bold" font-size="18.00">users</text>
<text text-anchor="start" x="115.69" y="-241.4" font-family="Arial" font-size="14.00">    </text>
<text text-anchor="start" x="146.81" y="-241.4" font-family="Arial" font-size="14.00" fill="#666666">[BASE TABLE]</text>
<polygon fill="none" stroke="black" points="71.7,-197.2 71.7,-228 247.18,-228 247.18,-197.2 71.7,-197.2"/>
<text text-anchor="start" x="78.7" y="-209.4" font-family="Arial" font-size="14.00">id </text>
<text text-anchor="start" x="93.48" y="-209.4" font-family="Arial" font-size="14.00" fill="#666666">[char(36)]</text>
<polygon fill="none" stroke="black" points="71.7,-166.4 71.7,-197.2 247.18,-197.2 247.18,-166.4 71.7,-166.4"/>
<text text-anchor="start" x="78.7" y="-178.6" font-family="Arial" font-size="14.00">email </text>
<text text-anchor="start" x="116.04" y="-178.6" font-family="Arial" font-size="14.00" fill="#666666">[varchar(255)]</text>
<polygon fill="none" stroke="black" points="71.7,-135.6 71.7,-166.4 247.18,-166.4 247.18,-135.6 71.7,-135.6"/>
<text text-anchor="start" x="78.7" y="-147.8" font-family="Arial" font-size="14.00">name </text>
<text text-anchor="start" x="117.61" y="-147.8" font-family="Arial" font-size="14.00" fill="#666666">[varchar(255)]</text>
<polygon fill="none" stroke="black" points="71.7,-104.8 71.7,-135.6 247.18,-135.6 247.18,-104.8 71.7,-104.8"/>
<text text-anchor="start" x="78.7" y="-117" font-family="Arial" font-size="14.00">education_level_id </text>
<text text-anchor="start" x="198.57" y="-117" font-family="Arial" font-size="14.00" fill="#666666">[int]</text>
<polygon fill="none" stroke="black" points="71.7,-74 71.7,-104.8 247.18,-104.8 247.18,-74 71.7,-74"/>
<text text-anchor="start" x="78.7" y="-86.2" font-family="Arial" font-size="14.00">created_at </text>
<text text-anchor="start" x="148.74" y="-86.2" font-family="Arial" font-size="14.00" fill="#666666">[timestamp]</text>
<polygon fill="none" stroke="black" points="71.7,-43.2 71.7,-74 247.18,-74 247.18,-43.2 71.7,-43.2"/>
<text text-anchor="start" x="78.7" y="-55.4" font-family="Arial" font-size="14.00">updated_at </text>
<text text-anchor="start" x="152.66" y="-55.4" font-family="Arial" font-size="14.00" fill="#666666">[timestamp]</text>
</g>
<!-- magic_links&#45;&gt;users -->
<g id="edge1" class="edge">
<title>magic_links:user_id&#45;&gt;users:id</title>
<path fill="none" stroke="black" d="M283.84,-556.19C348.23,-526.74 321.62,-212.6 248.18,-212.6"/>
<polygon fill="black" stroke="black" points="283.78,-556.21 273.05,-553.93 278.56,-557.34 274.33,-558.26 274.33,-558.26 274.33,-558.26 278.56,-557.34 274.96,-562.73 283.78,-556.21"/>
<text text-anchor="start" x="280.68" y="-568.4" font-family="Arial" font-size="10.00">FOREIGN KEY (user_id) REFERENCES users (id)</text>
</g>
</g>
</svg>
