<?xml version="1.0" encoding="UTF-8" standalone="no"?>
<!DOCTYPE svg PUBLIC "-//W3C//DTD SVG 1.1//EN"
 "http://www.w3.org/Graphics/SVG/1.1/DTD/svg11.dtd">
<!-- Generated by graphviz version 12.1.2 (20240928.0832)
 -->
<!-- Title: gimme_scholarship Pages: 1 -->
<svg width="1971pt" height="1308pt"
 viewBox="0.00 0.00 1970.67 1308.40" xmlns="http://www.w3.org/2000/svg" xmlns:xlink="http://www.w3.org/1999/xlink">
<g id="graph0" class="graph" transform="scale(1 1) rotate(0) translate(4 1304.4)">
<title>gimme_scholarship</title>
<polygon fill="white" stroke="none" points="-4,4 -4,-1304.4 1966.67,-1304.4 1966.67,4 -4,4"/>
<!-- education_levels -->
<g id="node1" class="node">
<title>education_levels</title>
<polygon fill="#efefef" stroke="none" points="455.52,-104.8 455.52,-140.4 714.97,-140.4 714.97,-104.8 455.52,-104.8"/>
<polygon fill="none" stroke="black" points="455.52,-104.8 455.52,-140.4 714.97,-140.4 714.97,-104.8 455.52,-104.8"/>
<text text-anchor="start" x="462.52" y="-118.2" font-family="Arial Bold" font-size="18.00">education_levels</text>
<text text-anchor="start" x="583.48" y="-118.2" font-family="Arial" font-size="14.00">    </text>
<text text-anchor="start" x="614.6" y="-118.2" font-family="Arial" font-size="14.00" fill="#666666">[BASE TABLE]</text>
<polygon fill="none" stroke="black" points="455.52,-74 455.52,-104.8 714.97,-104.8 714.97,-74 455.52,-74"/>
<text text-anchor="start" x="462.52" y="-86.2" font-family="Arial" font-size="14.00">id </text>
<text text-anchor="start" x="477.31" y="-86.2" font-family="Arial" font-size="14.00" fill="#666666">[int]</text>
<polygon fill="none" stroke="black" points="455.52,-43.2 455.52,-74 714.97,-74 714.97,-43.2 455.52,-43.2"/>
<text text-anchor="start" x="462.52" y="-55.4" font-family="Arial" font-size="14.00">name </text>
<text text-anchor="start" x="501.43" y="-55.4" font-family="Arial" font-size="14.00" fill="#666666">[varchar(8)]</text>
</g>
<!-- gorp_migrations -->
<g id="node2" class="node">
<title>gorp_migrations</title>
<polygon fill="#efefef" stroke="none" points="1247.51,-1052.2 1247.51,-1087.8 1504.98,-1087.8 1504.98,-1052.2 1247.51,-1052.2"/>
<polygon fill="none" stroke="black" points="1247.51,-1052.2 1247.51,-1087.8 1504.98,-1087.8 1504.98,-1052.2 1247.51,-1052.2"/>
<text text-anchor="start" x="1254.51" y="-1065.6" font-family="Arial Bold" font-size="18.00">gorp_migrations</text>
<text text-anchor="start" x="1373.49" y="-1065.6" font-family="Arial" font-size="14.00">    </text>
<text text-anchor="start" x="1404.61" y="-1065.6" font-family="Arial" font-size="14.00" fill="#666666">[BASE TABLE]</text>
<polygon fill="none" stroke="black" points="1247.51,-1021.4 1247.51,-1052.2 1504.98,-1052.2 1504.98,-1021.4 1247.51,-1021.4"/>
<text text-anchor="start" x="1254.51" y="-1033.6" font-family="Arial" font-size="14.00">id </text>
<text text-anchor="start" x="1269.29" y="-1033.6" font-family="Arial" font-size="14.00" fill="#666666">[varchar(255)]</text>
<polygon fill="none" stroke="black" points="1247.51,-990.6 1247.51,-1021.4 1504.98,-1021.4 1504.98,-990.6 1247.51,-990.6"/>
<text text-anchor="start" x="1254.51" y="-1002.8" font-family="Arial" font-size="14.00">applied_at </text>
<text text-anchor="start" x="1323.01" y="-1002.8" font-family="Arial" font-size="14.00" fill="#666666">[datetime]</text>
</g>
<!-- magic_links -->
<g id="node3" class="node">
<title>magic_links</title>
<polygon fill="#efefef" stroke="none" points="917.01,-1129.2 917.01,-1164.8 1143.48,-1164.8 1143.48,-1129.2 917.01,-1129.2"/>
<polygon fill="none" stroke="black" points="917.01,-1129.2 917.01,-1164.8 1143.48,-1164.8 1143.48,-1129.2 917.01,-1129.2"/>
<text text-anchor="start" x="924.01" y="-1142.6" font-family="Arial Bold" font-size="18.00">magic_links</text>
<text text-anchor="start" x="1011.99" y="-1142.6" font-family="Arial" font-size="14.00">    </text>
<text text-anchor="start" x="1043.11" y="-1142.6" font-family="Arial" font-size="14.00" fill="#666666">[BASE TABLE]</text>
<polygon fill="none" stroke="black" points="917.01,-1098.4 917.01,-1129.2 1143.48,-1129.2 1143.48,-1098.4 917.01,-1098.4"/>
<text text-anchor="start" x="924.01" y="-1110.6" font-family="Arial" font-size="14.00">id </text>
<text text-anchor="start" x="938.79" y="-1110.6" font-family="Arial" font-size="14.00" fill="#666666">[int]</text>
<polygon fill="none" stroke="black" points="917.01,-1067.6 917.01,-1098.4 1143.48,-1098.4 1143.48,-1067.6 917.01,-1067.6"/>
<text text-anchor="start" x="924.01" y="-1079.8" font-family="Arial" font-size="14.00">user_id </text>
<text text-anchor="start" x="973.81" y="-1079.8" font-family="Arial" font-size="14.00" fill="#666666">[char(36)]</text>
<polygon fill="none" stroke="black" points="917.01,-1036.8 917.01,-1067.6 1143.48,-1067.6 1143.48,-1036.8 917.01,-1036.8"/>
<text text-anchor="start" x="924.01" y="-1049" font-family="Arial" font-size="14.00">token </text>
<text text-anchor="start" x="962.14" y="-1049" font-family="Arial" font-size="14.00" fill="#666666">[varchar(255)]</text>
<polygon fill="none" stroke="black" points="917.01,-1006 917.01,-1036.8 1143.48,-1036.8 1143.48,-1006 917.01,-1006"/>
<text text-anchor="start" x="924.01" y="-1018.2" font-family="Arial" font-size="14.00">expires_at </text>
<text text-anchor="start" x="992.49" y="-1018.2" font-family="Arial" font-size="14.00" fill="#666666">[datetime]</text>
<polygon fill="none" stroke="black" points="917.01,-975.2 917.01,-1006 1143.48,-1006 1143.48,-975.2 917.01,-975.2"/>
<text text-anchor="start" x="924.01" y="-987.4" font-family="Arial" font-size="14.00">used </text>
<text text-anchor="start" x="958.25" y="-987.4" font-family="Arial" font-size="14.00" fill="#666666">[tinyint(1)]</text>
<polygon fill="none" stroke="black" points="917.01,-944.4 917.01,-975.2 1143.48,-975.2 1143.48,-944.4 917.01,-944.4"/>
<text text-anchor="start" x="924.01" y="-956.6" font-family="Arial" font-size="14.00">created_at </text>
<text text-anchor="start" x="994.05" y="-956.6" font-family="Arial" font-size="14.00" fill="#666666">[datetime]</text>
<polygon fill="none" stroke="black" points="917.01,-913.6 917.01,-944.4 1143.48,-944.4 1143.48,-913.6 917.01,-913.6"/>
<text text-anchor="start" x="924.01" y="-925.8" font-family="Arial" font-size="14.00">updated_at </text>
<text text-anchor="start" x="997.96" y="-925.8" font-family="Arial" font-size="14.00" fill="#666666">[datetime]</text>
</g>
<!-- users -->
<g id="node8" class="node">
<title>users</title>
<polygon fill="#efefef" stroke="none" points="743.5,-555.4 743.5,-591 918.99,-591 918.99,-555.4 743.5,-555.4"/>
<polygon fill="none" stroke="black" points="743.5,-555.4 743.5,-591 918.99,-591 918.99,-555.4 743.5,-555.4"/>
<text text-anchor="start" x="750.5" y="-568.8" font-family="Arial Bold" font-size="18.00">users</text>
<text text-anchor="start" x="787.5" y="-568.8" font-family="Arial" font-size="14.00">    </text>
<text text-anchor="start" x="818.61" y="-568.8" font-family="Arial" font-size="14.00" fill="#666666">[BASE TABLE]</text>
<polygon fill="none" stroke="black" points="743.5,-524.6 743.5,-555.4 918.99,-555.4 918.99,-524.6 743.5,-524.6"/>
<text text-anchor="start" x="750.5" y="-536.8" font-family="Arial" font-size="14.00">id </text>
<text text-anchor="start" x="765.29" y="-536.8" font-family="Arial" font-size="14.00" fill="#666666">[char(36)]</text>
<polygon fill="none" stroke="black" points="743.5,-493.8 743.5,-524.6 918.99,-524.6 918.99,-493.8 743.5,-493.8"/>
<text text-anchor="start" x="750.5" y="-506" font-family="Arial" font-size="14.00">email </text>
<text text-anchor="start" x="787.85" y="-506" font-family="Arial" font-size="14.00" fill="#666666">[varchar(255)]</text>
<polygon fill="none" stroke="black" points="743.5,-463 743.5,-493.8 918.99,-493.8 918.99,-463 743.5,-463"/>
<text text-anchor="start" x="750.5" y="-475.2" font-family="Arial" font-size="14.00">name </text>
<text text-anchor="start" x="789.41" y="-475.2" font-family="Arial" font-size="14.00" fill="#666666">[varchar(255)]</text>
<polygon fill="none" stroke="black" points="743.5,-432.2 743.5,-463 918.99,-463 918.99,-432.2 743.5,-432.2"/>
<text text-anchor="start" x="750.5" y="-444.4" font-family="Arial" font-size="14.00">education_level_id </text>
<text text-anchor="start" x="870.37" y="-444.4" font-family="Arial" font-size="14.00" fill="#666666">[int]</text>
<polygon fill="none" stroke="black" points="743.5,-401.4 743.5,-432.2 918.99,-432.2 918.99,-401.4 743.5,-401.4"/>
<text text-anchor="start" x="750.5" y="-413.6" font-family="Arial" font-size="14.00">created_at </text>
<text text-anchor="start" x="820.55" y="-413.6" font-family="Arial" font-size="14.00" fill="#666666">[timestamp]</text>
<polygon fill="none" stroke="black" points="743.5,-370.6 743.5,-401.4 918.99,-401.4 918.99,-370.6 743.5,-370.6"/>
<text text-anchor="start" x="750.5" y="-382.8" font-family="Arial" font-size="14.00">updated_at </text>
<text text-anchor="start" x="824.46" y="-382.8" font-family="Arial" font-size="14.00" fill="#666666">[timestamp]</text>
</g>
<!-- magic_links&#45;&gt;users -->
<g id="edge1" class="edge">
<title>magic_links:user_id&#45;&gt;users:id</title>
<path fill="none" stroke="black" d="M905.74,-1081.44C810.31,-1049.59 1036.89,-540 919.99,-540"/>
<polygon fill="black" stroke="black" points="905.79,-1081.45 915,-1087.4 911.06,-1082.25 915.35,-1082.9 915.35,-1082.9 915.35,-1082.9 911.06,-1082.25 916.35,-1078.5 905.79,-1081.45"/>
<text text-anchor="start" x="682.85" y="-1093" font-family="Arial" font-size="10.00">FOREIGN KEY (user_id) REFERENCES users (id)</text>
</g>
<!-- scholarship_target -->
<g id="node4" class="node">
<title>scholarship_target</title>
<polygon fill="#efefef" stroke="none" points="205.02,-1067.6 205.02,-1103.2 475.47,-1103.2 475.47,-1067.6 205.02,-1067.6"/>
<polygon fill="none" stroke="black" points="205.02,-1067.6 205.02,-1103.2 475.47,-1103.2 475.47,-1067.6 205.02,-1067.6"/>
<text text-anchor="start" x="212.02" y="-1081" font-family="Arial Bold" font-size="18.00">scholarship_target</text>
<text text-anchor="start" x="343.98" y="-1081" font-family="Arial" font-size="14.00">    </text>
<text text-anchor="start" x="375.1" y="-1081" font-family="Arial" font-size="14.00" fill="#666666">[BASE TABLE]</text>
<polygon fill="none" stroke="black" points="205.02,-1036.8 205.02,-1067.6 475.47,-1067.6 475.47,-1036.8 205.02,-1036.8"/>
<text text-anchor="start" x="212.02" y="-1049" font-family="Arial" font-size="14.00">id </text>
<text text-anchor="start" x="226.81" y="-1049" font-family="Arial" font-size="14.00" fill="#666666">[int]</text>
<polygon fill="none" stroke="black" points="205.02,-1006 205.02,-1036.8 475.47,-1036.8 475.47,-1006 205.02,-1006"/>
<text text-anchor="start" x="212.02" y="-1018.2" font-family="Arial" font-size="14.00">scholarship_id </text>
<text text-anchor="start" x="305.41" y="-1018.2" font-family="Arial" font-size="14.00" fill="#666666">[int]</text>
<polygon fill="none" stroke="black" points="205.02,-975.2 205.02,-1006 475.47,-1006 475.47,-975.2 205.02,-975.2"/>
<text text-anchor="start" x="212.02" y="-987.4" font-family="Arial" font-size="14.00">education_level_id </text>
<text text-anchor="start" x="331.89" y="-987.4" font-family="Arial" font-size="14.00" fill="#666666">[int]</text>
</g>
<!-- scholarship_target&#45;&gt;education_levels -->
<g id="edge3" class="edge">
<title>scholarship_target:education_level_id&#45;&gt;education_levels:id</title>
<path fill="none" stroke="black" d="M340.18,-964.02C335.47,-569.38 61.4,-89.4 454.52,-89.4"/>
<polygon fill="black" stroke="black" points="340.18,-963.87 335.74,-973.89 340.22,-969.2 340.24,-973.53 340.24,-973.53 340.24,-973.53 340.22,-969.2 344.74,-973.84 340.18,-963.87"/>
<text text-anchor="start" x="7" y="-984.2" font-family="Arial" font-size="10.00">FOREIGN KEY (education_level_id) REFERENCES education_levels (id)</text>
</g>
<!-- scholarships -->
<g id="node5" class="node">
<title>scholarships</title>
<polygon fill="#efefef" stroke="none" points="411.51,-663.2 411.51,-698.8 638.98,-698.8 638.98,-663.2 411.51,-663.2"/>
<polygon fill="none" stroke="black" points="411.51,-663.2 411.51,-698.8 638.98,-698.8 638.98,-663.2 411.51,-663.2"/>
<text text-anchor="start" x="418.51" y="-676.6" font-family="Arial Bold" font-size="18.00">scholarships</text>
<text text-anchor="start" x="507.5" y="-676.6" font-family="Arial" font-size="14.00">    </text>
<text text-anchor="start" x="538.61" y="-676.6" font-family="Arial" font-size="14.00" fill="#666666">[BASE TABLE]</text>
<polygon fill="none" stroke="black" points="411.51,-632.4 411.51,-663.2 638.98,-663.2 638.98,-632.4 411.51,-632.4"/>
<text text-anchor="start" x="418.51" y="-644.6" font-family="Arial" font-size="14.00">id </text>
<text text-anchor="start" x="433.29" y="-644.6" font-family="Arial" font-size="14.00" fill="#666666">[int]</text>
<polygon fill="none" stroke="black" points="411.51,-601.6 411.51,-632.4 638.98,-632.4 638.98,-601.6 411.51,-601.6"/>
<text text-anchor="start" x="418.51" y="-613.8" font-family="Arial" font-size="14.00">name </text>
<text text-anchor="start" x="457.42" y="-613.8" font-family="Arial" font-size="14.00" fill="#666666">[varchar(128)]</text>
<polygon fill="none" stroke="black" points="411.51,-570.8 411.51,-601.6 638.98,-601.6 638.98,-570.8 411.51,-570.8"/>
<text text-anchor="start" x="418.51" y="-583" font-family="Arial" font-size="14.00">address </text>
<text text-anchor="start" x="472.2" y="-583" font-family="Arial" font-size="14.00" fill="#666666">[text]</text>
<polygon fill="none" stroke="black" points="411.51,-540 411.51,-570.8 638.98,-570.8 638.98,-540 411.51,-540"/>
<text text-anchor="start" x="418.51" y="-552.2" font-family="Arial" font-size="14.00">target_detail </text>
<text text-anchor="start" x="499.45" y="-552.2" font-family="Arial" font-size="14.00" fill="#666666">[text]</text>
<polygon fill="none" stroke="black" points="411.51,-509.2 411.51,-540 638.98,-540 638.98,-509.2 411.51,-509.2"/>
<text text-anchor="start" x="418.51" y="-521.4" font-family="Arial" font-size="14.00">amount_detail </text>
<text text-anchor="start" x="510.35" y="-521.4" font-family="Arial" font-size="14.00" fill="#666666">[text]</text>
<polygon fill="none" stroke="black" points="411.51,-478.4 411.51,-509.2 638.98,-509.2 638.98,-478.4 411.51,-478.4"/>
<text text-anchor="start" x="418.51" y="-490.6" font-family="Arial" font-size="14.00">type_detail </text>
<text text-anchor="start" x="490.11" y="-490.6" font-family="Arial" font-size="14.00" fill="#666666">[text]</text>
<polygon fill="none" stroke="black" points="411.51,-447.6 411.51,-478.4 638.98,-478.4 638.98,-447.6 411.51,-447.6"/>
<text text-anchor="start" x="418.51" y="-459.8" font-family="Arial" font-size="14.00">capacity_detail </text>
<text text-anchor="start" x="515.01" y="-459.8" font-family="Arial" font-size="14.00" fill="#666666">[text]</text>
<polygon fill="none" stroke="black" points="411.51,-416.8 411.51,-447.6 638.98,-447.6 638.98,-416.8 411.51,-416.8"/>
<text text-anchor="start" x="418.51" y="-429" font-family="Arial" font-size="14.00">deadline </text>
<text text-anchor="start" x="475.33" y="-429" font-family="Arial" font-size="14.00" fill="#666666">[date]</text>
<polygon fill="none" stroke="black" points="411.51,-386 411.51,-416.8 638.98,-416.8 638.98,-386 411.51,-386"/>
<text text-anchor="start" x="418.51" y="-398.2" font-family="Arial" font-size="14.00">deadline_detail </text>
<text text-anchor="start" x="516.59" y="-398.2" font-family="Arial" font-size="14.00" fill="#666666">[text]</text>
<polygon fill="none" stroke="black" points="411.51,-355.2 411.51,-386 638.98,-386 638.98,-355.2 411.51,-355.2"/>
<text text-anchor="start" x="418.51" y="-367.4" font-family="Arial" font-size="14.00">contact_point </text>
<text text-anchor="start" x="505.68" y="-367.4" font-family="Arial" font-size="14.00" fill="#666666">[text]</text>
<polygon fill="none" stroke="black" points="411.51,-324.4 411.51,-355.2 638.98,-355.2 638.98,-324.4 411.51,-324.4"/>
<text text-anchor="start" x="418.51" y="-336.6" font-family="Arial" font-size="14.00">remark </text>
<text text-anchor="start" x="465.95" y="-336.6" font-family="Arial" font-size="14.00" fill="#666666">[text]</text>
<polygon fill="none" stroke="black" points="411.51,-293.6 411.51,-324.4 638.98,-324.4 638.98,-293.6 411.51,-293.6"/>
<text text-anchor="start" x="418.51" y="-305.8" font-family="Arial" font-size="14.00">posting_date </text>
<text text-anchor="start" x="502.57" y="-305.8" font-family="Arial" font-size="14.00" fill="#666666">[date]</text>
<polygon fill="none" stroke="black" points="411.51,-262.8 411.51,-293.6 638.98,-293.6 638.98,-262.8 411.51,-262.8"/>
<text text-anchor="start" x="418.51" y="-275" font-family="Arial" font-size="14.00">created_at </text>
<text text-anchor="start" x="488.55" y="-275" font-family="Arial" font-size="14.00" fill="#666666">[datetime]</text>
</g>
<!-- scholarship_target&#45;&gt;scholarships -->
<g id="edge2" class="edge">
<title>scholarship_target:scholarship_id&#45;&gt;scholarships:id</title>
<path fill="none" stroke="black" d="M486.56,-1020.89C628.02,-1005.52 245.52,-647.8 410.51,-647.8"/>
<polygon fill="black" stroke="black" points="486.79,-1020.88 476.58,-1016.89 481.46,-1021.15 477.14,-1021.37 477.14,-1021.37 477.14,-1021.37 481.46,-1021.15 477.03,-1025.88 486.79,-1020.88"/>
<text text-anchor="start" x="181.06" y="-1031.4" font-family="Arial" font-size="10.00">FOREIGN KEY (scholarship_id) REFERENCES scholarships (id)</text>
</g>
<!-- temporary_scholarships -->
<g id="node6" class="node">
<title>temporary_scholarships</title>
<polygon fill="#efefef" stroke="none" points="1609.02,-1221.6 1609.02,-1257.2 1919.47,-1257.2 1919.47,-1221.6 1609.02,-1221.6"/>
<polygon fill="none" stroke="black" points="1609.02,-1221.6 1609.02,-1257.2 1919.47,-1257.2 1919.47,-1221.6 1609.02,-1221.6"/>
<text text-anchor="start" x="1616.02" y="-1235" font-family="Arial Bold" font-size="18.00">temporary_scholarships</text>
<text text-anchor="start" x="1787.98" y="-1235" font-family="Arial" font-size="14.00">    </text>
<text text-anchor="start" x="1819.1" y="-1235" font-family="Arial" font-size="14.00" fill="#666666">[BASE TABLE]</text>
<polygon fill="none" stroke="black" points="1609.02,-1190.8 1609.02,-1221.6 1919.47,-1221.6 1919.47,-1190.8 1609.02,-1190.8"/>
<text text-anchor="start" x="1616.02" y="-1203" font-family="Arial" font-size="14.00">id </text>
<text text-anchor="start" x="1630.81" y="-1203" font-family="Arial" font-size="14.00" fill="#666666">[int]</text>
<polygon fill="none" stroke="black" points="1609.02,-1160 1609.02,-1190.8 1919.47,-1190.8 1919.47,-1160 1609.02,-1160"/>
<text text-anchor="start" x="1616.02" y="-1172.2" font-family="Arial" font-size="14.00">name </text>
<text text-anchor="start" x="1654.93" y="-1172.2" font-family="Arial" font-size="14.00" fill="#666666">[varchar(128)]</text>
<polygon fill="none" stroke="black" points="1609.02,-1129.2 1609.02,-1160 1919.47,-1160 1919.47,-1129.2 1609.02,-1129.2"/>
<text text-anchor="start" x="1616.02" y="-1141.4" font-family="Arial" font-size="14.00">address </text>
<text text-anchor="start" x="1669.72" y="-1141.4" font-family="Arial" font-size="14.00" fill="#666666">[text]</text>
<polygon fill="none" stroke="black" points="1609.02,-1098.4 1609.02,-1129.2 1919.47,-1129.2 1919.47,-1098.4 1609.02,-1098.4"/>
<text text-anchor="start" x="1616.02" y="-1110.6" font-family="Arial" font-size="14.00">target_detail </text>
<text text-anchor="start" x="1696.97" y="-1110.6" font-family="Arial" font-size="14.00" fill="#666666">[text]</text>
<polygon fill="none" stroke="black" points="1609.02,-1067.6 1609.02,-1098.4 1919.47,-1098.4 1919.47,-1067.6 1609.02,-1067.6"/>
<text text-anchor="start" x="1616.02" y="-1079.8" font-family="Arial" font-size="14.00">amount_detail </text>
<text text-anchor="start" x="1707.86" y="-1079.8" font-family="Arial" font-size="14.00" fill="#666666">[text]</text>
<polygon fill="none" stroke="black" points="1609.02,-1036.8 1609.02,-1067.6 1919.47,-1067.6 1919.47,-1036.8 1609.02,-1036.8"/>
<text text-anchor="start" x="1616.02" y="-1049" font-family="Arial" font-size="14.00">type_detail </text>
<text text-anchor="start" x="1687.63" y="-1049" font-family="Arial" font-size="14.00" fill="#666666">[text]</text>
<polygon fill="none" stroke="black" points="1609.02,-1006 1609.02,-1036.8 1919.47,-1036.8 1919.47,-1006 1609.02,-1006"/>
<text text-anchor="start" x="1616.02" y="-1018.2" font-family="Arial" font-size="14.00">capacity_detail </text>
<text text-anchor="start" x="1712.52" y="-1018.2" font-family="Arial" font-size="14.00" fill="#666666">[text]</text>
<polygon fill="none" stroke="black" points="1609.02,-975.2 1609.02,-1006 1919.47,-1006 1919.47,-975.2 1609.02,-975.2"/>
<text text-anchor="start" x="1616.02" y="-987.4" font-family="Arial" font-size="14.00">deadline </text>
<text text-anchor="start" x="1672.85" y="-987.4" font-family="Arial" font-size="14.00" fill="#666666">[date]</text>
<polygon fill="none" stroke="black" points="1609.02,-944.4 1609.02,-975.2 1919.47,-975.2 1919.47,-944.4 1609.02,-944.4"/>
<text text-anchor="start" x="1616.02" y="-956.6" font-family="Arial" font-size="14.00">deadline_detail </text>
<text text-anchor="start" x="1714.1" y="-956.6" font-family="Arial" font-size="14.00" fill="#666666">[text]</text>
<polygon fill="none" stroke="black" points="1609.02,-913.6 1609.02,-944.4 1919.47,-944.4 1919.47,-913.6 1609.02,-913.6"/>
<text text-anchor="start" x="1616.02" y="-925.8" font-family="Arial" font-size="14.00">contact_point </text>
<text text-anchor="start" x="1703.19" y="-925.8" font-family="Arial" font-size="14.00" fill="#666666">[text]</text>
<polygon fill="none" stroke="black" points="1609.02,-882.8 1609.02,-913.6 1919.47,-913.6 1919.47,-882.8 1609.02,-882.8"/>
<text text-anchor="start" x="1616.02" y="-895" font-family="Arial" font-size="14.00">remark </text>
<text text-anchor="start" x="1663.47" y="-895" font-family="Arial" font-size="14.00" fill="#666666">[text]</text>
<polygon fill="none" stroke="black" points="1609.02,-852 1609.02,-882.8 1919.47,-882.8 1919.47,-852 1609.02,-852"/>
<text text-anchor="start" x="1616.02" y="-864.2" font-family="Arial" font-size="14.00">posting_date </text>
<text text-anchor="start" x="1700.09" y="-864.2" font-family="Arial" font-size="14.00" fill="#666666">[date]</text>
<polygon fill="none" stroke="black" points="1609.02,-821.2 1609.02,-852 1919.47,-852 1919.47,-821.2 1609.02,-821.2"/>
<text text-anchor="start" x="1616.02" y="-833.4" font-family="Arial" font-size="14.00">created_at </text>
<text text-anchor="start" x="1686.07" y="-833.4" font-family="Arial" font-size="14.00" fill="#666666">[datetime]</text>
</g>
<!-- user_favorite -->
<g id="node7" class="node">
<title>user_favorite</title>
<polygon fill="#efefef" stroke="none" points="579.52,-1067.6 579.52,-1103.2 812.97,-1103.2 812.97,-1067.6 579.52,-1067.6"/>
<polygon fill="none" stroke="black" points="579.52,-1067.6 579.52,-1103.2 812.97,-1103.2 812.97,-1067.6 579.52,-1067.6"/>
<text text-anchor="start" x="586.52" y="-1081" font-family="Arial Bold" font-size="18.00">user_favorite</text>
<text text-anchor="start" x="681.48" y="-1081" font-family="Arial" font-size="14.00">    </text>
<text text-anchor="start" x="712.6" y="-1081" font-family="Arial" font-size="14.00" fill="#666666">[BASE TABLE]</text>
<polygon fill="none" stroke="black" points="579.52,-1036.8 579.52,-1067.6 812.97,-1067.6 812.97,-1036.8 579.52,-1036.8"/>
<text text-anchor="start" x="586.52" y="-1049" font-family="Arial" font-size="14.00">id </text>
<text text-anchor="start" x="601.31" y="-1049" font-family="Arial" font-size="14.00" fill="#666666">[int]</text>
<polygon fill="none" stroke="black" points="579.52,-1006 579.52,-1036.8 812.97,-1036.8 812.97,-1006 579.52,-1006"/>
<text text-anchor="start" x="586.52" y="-1018.2" font-family="Arial" font-size="14.00">user_id </text>
<text text-anchor="start" x="636.33" y="-1018.2" font-family="Arial" font-size="14.00" fill="#666666">[char(36)]</text>
<polygon fill="none" stroke="black" points="579.52,-975.2 579.52,-1006 812.97,-1006 812.97,-975.2 579.52,-975.2"/>
<text text-anchor="start" x="586.52" y="-987.4" font-family="Arial" font-size="14.00">scholarship_id </text>
<text text-anchor="start" x="679.91" y="-987.4" font-family="Arial" font-size="14.00" fill="#666666">[int]</text>
</g>
<!-- user_favorite&#45;&gt;scholarships -->
<g id="edge4" class="edge">
<title>user_favorite:scholarship_id&#45;&gt;scholarships:id</title>
<path fill="none" stroke="black" d="M568.11,-990C441.54,-974.07 790.99,-647.8 639.98,-647.8"/>
<polygon fill="black" stroke="black" points="568.2,-990 577.93,-995.07 573.53,-990.31 577.85,-990.56 577.85,-990.56 577.85,-990.56 573.53,-990.31 578.45,-986.09 568.2,-990"/>
<text text-anchor="start" x="585.52" y="-1000.6" font-family="Arial" font-size="10.00">FOREIGN KEY (scholarship_id) REFERENCES scholarships (id)</text>
</g>
<!-- user_favorite&#45;&gt;users -->
<g id="edge5" class="edge">
<title>user_favorite:user_id&#45;&gt;users:id</title>
<path fill="none" stroke="black" d="M823.94,-1019.66C902.37,-988.15 638.16,-540 742.5,-540"/>
<polygon fill="black" stroke="black" points="824.15,-1019.62 813.52,-1016.91 818.89,-1020.54 814.63,-1021.28 814.63,-1021.28 814.63,-1021.28 818.89,-1020.54 815.07,-1025.78 824.15,-1019.62"/>
<text text-anchor="start" x="580.81" y="-1031.4" font-family="Arial" font-size="10.00">FOREIGN KEY (user_id) REFERENCES users (id)</text>
</g>
<!-- users&#45;&gt;education_levels -->
<g id="edge6" class="edge">
<title>users:education_level_id&#45;&gt;education_levels:id</title>
<path fill="none" stroke="black" d="M732.42,-447.07C595.79,-431.69 872.02,-89.4 715.97,-89.4"/>
<polygon fill="black" stroke="black" points="732.18,-447.05 741.93,-452.08 737.51,-447.34 741.84,-447.56 741.84,-447.56 741.84,-447.56 737.51,-447.34 742.41,-443.09 732.18,-447.05"/>
<text text-anchor="start" x="749.5" y="-457.6" font-family="Arial" font-size="10.00">FOREIGN KEY (education_level_id) REFERENCES education_levels (id)</text>
</g>
</g>
</svg>
