<?xml version="1.0" encoding="UTF-8" standalone="no"?>
<!DOCTYPE svg PUBLIC "-//W3C//DTD SVG 1.1//EN"
 "http://www.w3.org/Graphics/SVG/1.1/DTD/svg11.dtd">
<!-- Generated by graphviz version 12.1.2 (20240928.0832)
 -->
<!-- Title: gimme_scholarship Pages: 1 -->
<svg width="1683pt" height="1308pt"
 viewBox="0.00 0.00 1682.67 1308.40" xmlns="http://www.w3.org/2000/svg" xmlns:xlink="http://www.w3.org/1999/xlink">
<g id="graph0" class="graph" transform="scale(1 1) rotate(0) translate(4 1304.4)">
<title>gimme_scholarship</title>
<polygon fill="white" stroke="none" points="-4,4 -4,-1304.4 1678.67,-1304.4 1678.67,4 -4,4"/>
<!-- education_levels -->
<g id="node1" class="node">
<title>education_levels</title>
<polygon fill="#efefef" stroke="none" points="391.52,-104.8 391.52,-140.4 650.97,-140.4 650.97,-104.8 391.52,-104.8"/>
<polygon fill="none" stroke="black" points="391.52,-104.8 391.52,-140.4 650.97,-140.4 650.97,-104.8 391.52,-104.8"/>
<text text-anchor="start" x="398.52" y="-118.2" font-family="Arial Bold" font-size="18.00">education_levels</text>
<text text-anchor="start" x="519.48" y="-118.2" font-family="Arial" font-size="14.00">    </text>
<text text-anchor="start" x="550.6" y="-118.2" font-family="Arial" font-size="14.00" fill="#666666">[BASE TABLE]</text>
<polygon fill="none" stroke="black" points="391.52,-74 391.52,-104.8 650.97,-104.8 650.97,-74 391.52,-74"/>
<text text-anchor="start" x="398.52" y="-86.2" font-family="Arial" font-size="14.00">id </text>
<text text-anchor="start" x="413.31" y="-86.2" font-family="Arial" font-size="14.00" fill="#666666">[int]</text>
<polygon fill="none" stroke="black" points="391.52,-43.2 391.52,-74 650.97,-74 650.97,-43.2 391.52,-43.2"/>
<text text-anchor="start" x="398.52" y="-55.4" font-family="Arial" font-size="14.00">name </text>
<text text-anchor="start" x="437.43" y="-55.4" font-family="Arial" font-size="14.00" fill="#666666">[varchar(8)]</text>
</g>
<!-- gorp_migrations -->
<g id="node2" class="node">
<title>gorp_migrations</title>
<polygon fill="#efefef" stroke="none" points="959.51,-1052.2 959.51,-1087.8 1216.98,-1087.8 1216.98,-1052.2 959.51,-1052.2"/>
<polygon fill="none" stroke="black" points="959.51,-1052.2 959.51,-1087.8 1216.98,-1087.8 1216.98,-1052.2 959.51,-1052.2"/>
<text text-anchor="start" x="966.51" y="-1065.6" font-family="Arial Bold" font-size="18.00">gorp_migrations</text>
<text text-anchor="start" x="1085.49" y="-1065.6" font-family="Arial" font-size="14.00">    </text>
<text text-anchor="start" x="1116.61" y="-1065.6" font-family="Arial" font-size="14.00" fill="#666666">[BASE TABLE]</text>
<polygon fill="none" stroke="black" points="959.51,-1021.4 959.51,-1052.2 1216.98,-1052.2 1216.98,-1021.4 959.51,-1021.4"/>
<text text-anchor="start" x="966.51" y="-1033.6" font-family="Arial" font-size="14.00">id </text>
<text text-anchor="start" x="981.29" y="-1033.6" font-family="Arial" font-size="14.00" fill="#666666">[varchar(255)]</text>
<polygon fill="none" stroke="black" points="959.51,-990.6 959.51,-1021.4 1216.98,-1021.4 1216.98,-990.6 959.51,-990.6"/>
<text text-anchor="start" x="966.51" y="-1002.8" font-family="Arial" font-size="14.00">applied_at </text>
<text text-anchor="start" x="1035.01" y="-1002.8" font-family="Arial" font-size="14.00" fill="#666666">[datetime]</text>
</g>
<!-- scholarship_targets -->
<g id="node3" class="node">
<title>scholarship_targets</title>
<polygon fill="#efefef" stroke="none" points="201.52,-1067.6 201.52,-1103.2 478.97,-1103.2 478.97,-1067.6 201.52,-1067.6"/>
<polygon fill="none" stroke="black" points="201.52,-1067.6 201.52,-1103.2 478.97,-1103.2 478.97,-1067.6 201.52,-1067.6"/>
<text text-anchor="start" x="208.52" y="-1081" font-family="Arial Bold" font-size="18.00">scholarship_targets</text>
<text text-anchor="start" x="347.48" y="-1081" font-family="Arial" font-size="14.00">    </text>
<text text-anchor="start" x="378.6" y="-1081" font-family="Arial" font-size="14.00" fill="#666666">[BASE TABLE]</text>
<polygon fill="none" stroke="black" points="201.52,-1036.8 201.52,-1067.6 478.97,-1067.6 478.97,-1036.8 201.52,-1036.8"/>
<text text-anchor="start" x="208.52" y="-1049" font-family="Arial" font-size="14.00">id </text>
<text text-anchor="start" x="223.3" y="-1049" font-family="Arial" font-size="14.00" fill="#666666">[int]</text>
<polygon fill="none" stroke="black" points="201.52,-1006 201.52,-1036.8 478.97,-1036.8 478.97,-1006 201.52,-1006"/>
<text text-anchor="start" x="208.52" y="-1018.2" font-family="Arial" font-size="14.00">scholarship_id </text>
<text text-anchor="start" x="301.9" y="-1018.2" font-family="Arial" font-size="14.00" fill="#666666">[int]</text>
<polygon fill="none" stroke="black" points="201.52,-975.2 201.52,-1006 478.97,-1006 478.97,-975.2 201.52,-975.2"/>
<text text-anchor="start" x="208.52" y="-987.4" font-family="Arial" font-size="14.00">education_level_id </text>
<text text-anchor="start" x="328.39" y="-987.4" font-family="Arial" font-size="14.00" fill="#666666">[int]</text>
</g>
<!-- scholarship_targets&#45;&gt;education_levels -->
<g id="edge2" class="edge">
<title>scholarship_targets:education_level_id&#45;&gt;education_levels:id</title>
<path fill="none" stroke="black" d="M340.13,-964C337.95,-867.5 304.96,-843.16 295.25,-742 273.06,-510.88 223.12,-440.29 295.25,-219.6 317.52,-151.44 318.82,-89.4 390.52,-89.4"/>
<polygon fill="black" stroke="black" points="340.13,-963.87 335.74,-973.92 340.19,-969.2 340.24,-973.53 340.24,-973.53 340.24,-973.53 340.19,-969.2 344.74,-973.82 340.13,-963.87"/>
<text text-anchor="start" x="7" y="-984.2" font-family="Arial" font-size="10.00">FOREIGN KEY (education_level_id) REFERENCES education_levels (id)</text>
</g>
<!-- scholarships -->
<g id="node4" class="node">
<title>scholarships</title>
<polygon fill="#efefef" stroke="none" points="347.51,-663.2 347.51,-698.8 574.98,-698.8 574.98,-663.2 347.51,-663.2"/>
<polygon fill="none" stroke="black" points="347.51,-663.2 347.51,-698.8 574.98,-698.8 574.98,-663.2 347.51,-663.2"/>
<text text-anchor="start" x="354.51" y="-676.6" font-family="Arial Bold" font-size="18.00">scholarships</text>
<text text-anchor="start" x="443.5" y="-676.6" font-family="Arial" font-size="14.00">    </text>
<text text-anchor="start" x="474.61" y="-676.6" font-family="Arial" font-size="14.00" fill="#666666">[BASE TABLE]</text>
<polygon fill="none" stroke="black" points="347.51,-632.4 347.51,-663.2 574.98,-663.2 574.98,-632.4 347.51,-632.4"/>
<text text-anchor="start" x="354.51" y="-644.6" font-family="Arial" font-size="14.00">id </text>
<text text-anchor="start" x="369.29" y="-644.6" font-family="Arial" font-size="14.00" fill="#666666">[int]</text>
<polygon fill="none" stroke="black" points="347.51,-601.6 347.51,-632.4 574.98,-632.4 574.98,-601.6 347.51,-601.6"/>
<text text-anchor="start" x="354.51" y="-613.8" font-family="Arial" font-size="14.00">name </text>
<text text-anchor="start" x="393.42" y="-613.8" font-family="Arial" font-size="14.00" fill="#666666">[varchar(128)]</text>
<polygon fill="none" stroke="black" points="347.51,-570.8 347.51,-601.6 574.98,-601.6 574.98,-570.8 347.51,-570.8"/>
<text text-anchor="start" x="354.51" y="-583" font-family="Arial" font-size="14.00">address </text>
<text text-anchor="start" x="408.2" y="-583" font-family="Arial" font-size="14.00" fill="#666666">[text]</text>
<polygon fill="none" stroke="black" points="347.51,-540 347.51,-570.8 574.98,-570.8 574.98,-540 347.51,-540"/>
<text text-anchor="start" x="354.51" y="-552.2" font-family="Arial" font-size="14.00">target_detail </text>
<text text-anchor="start" x="435.45" y="-552.2" font-family="Arial" font-size="14.00" fill="#666666">[text]</text>
<polygon fill="none" stroke="black" points="347.51,-509.2 347.51,-540 574.98,-540 574.98,-509.2 347.51,-509.2"/>
<text text-anchor="start" x="354.51" y="-521.4" font-family="Arial" font-size="14.00">amount_detail </text>
<text text-anchor="start" x="446.35" y="-521.4" font-family="Arial" font-size="14.00" fill="#666666">[text]</text>
<polygon fill="none" stroke="black" points="347.51,-478.4 347.51,-509.2 574.98,-509.2 574.98,-478.4 347.51,-478.4"/>
<text text-anchor="start" x="354.51" y="-490.6" font-family="Arial" font-size="14.00">type_detail </text>
<text text-anchor="start" x="426.11" y="-490.6" font-family="Arial" font-size="14.00" fill="#666666">[text]</text>
<polygon fill="none" stroke="black" points="347.51,-447.6 347.51,-478.4 574.98,-478.4 574.98,-447.6 347.51,-447.6"/>
<text text-anchor="start" x="354.51" y="-459.8" font-family="Arial" font-size="14.00">capacity_detail </text>
<text text-anchor="start" x="451.01" y="-459.8" font-family="Arial" font-size="14.00" fill="#666666">[text]</text>
<polygon fill="none" stroke="black" points="347.51,-416.8 347.51,-447.6 574.98,-447.6 574.98,-416.8 347.51,-416.8"/>
<text text-anchor="start" x="354.51" y="-429" font-family="Arial" font-size="14.00">deadline </text>
<text text-anchor="start" x="411.33" y="-429" font-family="Arial" font-size="14.00" fill="#666666">[date]</text>
<polygon fill="none" stroke="black" points="347.51,-386 347.51,-416.8 574.98,-416.8 574.98,-386 347.51,-386"/>
<text text-anchor="start" x="354.51" y="-398.2" font-family="Arial" font-size="14.00">deadline_detail </text>
<text text-anchor="start" x="452.59" y="-398.2" font-family="Arial" font-size="14.00" fill="#666666">[text]</text>
<polygon fill="none" stroke="black" points="347.51,-355.2 347.51,-386 574.98,-386 574.98,-355.2 347.51,-355.2"/>
<text text-anchor="start" x="354.51" y="-367.4" font-family="Arial" font-size="14.00">contact_point </text>
<text text-anchor="start" x="441.68" y="-367.4" font-family="Arial" font-size="14.00" fill="#666666">[text]</text>
<polygon fill="none" stroke="black" points="347.51,-324.4 347.51,-355.2 574.98,-355.2 574.98,-324.4 347.51,-324.4"/>
<text text-anchor="start" x="354.51" y="-336.6" font-family="Arial" font-size="14.00">remark </text>
<text text-anchor="start" x="401.95" y="-336.6" font-family="Arial" font-size="14.00" fill="#666666">[text]</text>
<polygon fill="none" stroke="black" points="347.51,-293.6 347.51,-324.4 574.98,-324.4 574.98,-293.6 347.51,-293.6"/>
<text text-anchor="start" x="354.51" y="-305.8" font-family="Arial" font-size="14.00">posting_date </text>
<text text-anchor="start" x="438.57" y="-305.8" font-family="Arial" font-size="14.00" fill="#666666">[date]</text>
<polygon fill="none" stroke="black" points="347.51,-262.8 347.51,-293.6 574.98,-293.6 574.98,-262.8 347.51,-262.8"/>
<text text-anchor="start" x="354.51" y="-275" font-family="Arial" font-size="14.00">created_at </text>
<text text-anchor="start" x="424.55" y="-275" font-family="Arial" font-size="14.00" fill="#666666">[datetime]</text>
</g>
<!-- scholarship_targets&#45;&gt;scholarships -->
<g id="edge1" class="edge">
<title>scholarship_targets:scholarship_id&#45;&gt;scholarships:id</title>
<path fill="none" stroke="black" d="M490,-1020.94C636.63,-1006.23 173.8,-647.8 346.51,-647.8"/>
<polygon fill="black" stroke="black" points="490.3,-1020.92 480.1,-1016.89 484.97,-1021.17 480.64,-1021.37 480.64,-1021.37 480.64,-1021.37 484.97,-1021.17 480.51,-1025.88 490.3,-1020.92"/>
<text text-anchor="start" x="486.97" y="-1031.4" font-family="Arial" font-size="10.00">FOREIGN KEY (scholarship_id) REFERENCES scholarships (id)</text>
</g>
<!-- temporary_scholarships -->
<g id="node5" class="node">
<title>temporary_scholarships</title>
<polygon fill="#efefef" stroke="none" points="1321.02,-1221.6 1321.02,-1257.2 1631.47,-1257.2 1631.47,-1221.6 1321.02,-1221.6"/>
<polygon fill="none" stroke="black" points="1321.02,-1221.6 1321.02,-1257.2 1631.47,-1257.2 1631.47,-1221.6 1321.02,-1221.6"/>
<text text-anchor="start" x="1328.02" y="-1235" font-family="Arial Bold" font-size="18.00">temporary_scholarships</text>
<text text-anchor="start" x="1499.98" y="-1235" font-family="Arial" font-size="14.00">    </text>
<text text-anchor="start" x="1531.1" y="-1235" font-family="Arial" font-size="14.00" fill="#666666">[BASE TABLE]</text>
<polygon fill="none" stroke="black" points="1321.02,-1190.8 1321.02,-1221.6 1631.47,-1221.6 1631.47,-1190.8 1321.02,-1190.8"/>
<text text-anchor="start" x="1328.02" y="-1203" font-family="Arial" font-size="14.00">id </text>
<text text-anchor="start" x="1342.81" y="-1203" font-family="Arial" font-size="14.00" fill="#666666">[int]</text>
<polygon fill="none" stroke="black" points="1321.02,-1160 1321.02,-1190.8 1631.47,-1190.8 1631.47,-1160 1321.02,-1160"/>
<text text-anchor="start" x="1328.02" y="-1172.2" font-family="Arial" font-size="14.00">name </text>
<text text-anchor="start" x="1366.93" y="-1172.2" font-family="Arial" font-size="14.00" fill="#666666">[varchar(128)]</text>
<polygon fill="none" stroke="black" points="1321.02,-1129.2 1321.02,-1160 1631.47,-1160 1631.47,-1129.2 1321.02,-1129.2"/>
<text text-anchor="start" x="1328.02" y="-1141.4" font-family="Arial" font-size="14.00">address </text>
<text text-anchor="start" x="1381.72" y="-1141.4" font-family="Arial" font-size="14.00" fill="#666666">[text]</text>
<polygon fill="none" stroke="black" points="1321.02,-1098.4 1321.02,-1129.2 1631.47,-1129.2 1631.47,-1098.4 1321.02,-1098.4"/>
<text text-anchor="start" x="1328.02" y="-1110.6" font-family="Arial" font-size="14.00">target_detail </text>
<text text-anchor="start" x="1408.97" y="-1110.6" font-family="Arial" font-size="14.00" fill="#666666">[text]</text>
<polygon fill="none" stroke="black" points="1321.02,-1067.6 1321.02,-1098.4 1631.47,-1098.4 1631.47,-1067.6 1321.02,-1067.6"/>
<text text-anchor="start" x="1328.02" y="-1079.8" font-family="Arial" font-size="14.00">amount_detail </text>
<text text-anchor="start" x="1419.86" y="-1079.8" font-family="Arial" font-size="14.00" fill="#666666">[text]</text>
<polygon fill="none" stroke="black" points="1321.02,-1036.8 1321.02,-1067.6 1631.47,-1067.6 1631.47,-1036.8 1321.02,-1036.8"/>
<text text-anchor="start" x="1328.02" y="-1049" font-family="Arial" font-size="14.00">type_detail </text>
<text text-anchor="start" x="1399.63" y="-1049" font-family="Arial" font-size="14.00" fill="#666666">[text]</text>
<polygon fill="none" stroke="black" points="1321.02,-1006 1321.02,-1036.8 1631.47,-1036.8 1631.47,-1006 1321.02,-1006"/>
<text text-anchor="start" x="1328.02" y="-1018.2" font-family="Arial" font-size="14.00">capacity_detail </text>
<text text-anchor="start" x="1424.52" y="-1018.2" font-family="Arial" font-size="14.00" fill="#666666">[text]</text>
<polygon fill="none" stroke="black" points="1321.02,-975.2 1321.02,-1006 1631.47,-1006 1631.47,-975.2 1321.02,-975.2"/>
<text text-anchor="start" x="1328.02" y="-987.4" font-family="Arial" font-size="14.00">deadline </text>
<text text-anchor="start" x="1384.85" y="-987.4" font-family="Arial" font-size="14.00" fill="#666666">[date]</text>
<polygon fill="none" stroke="black" points="1321.02,-944.4 1321.02,-975.2 1631.47,-975.2 1631.47,-944.4 1321.02,-944.4"/>
<text text-anchor="start" x="1328.02" y="-956.6" font-family="Arial" font-size="14.00">deadline_detail </text>
<text text-anchor="start" x="1426.1" y="-956.6" font-family="Arial" font-size="14.00" fill="#666666">[text]</text>
<polygon fill="none" stroke="black" points="1321.02,-913.6 1321.02,-944.4 1631.47,-944.4 1631.47,-913.6 1321.02,-913.6"/>
<text text-anchor="start" x="1328.02" y="-925.8" font-family="Arial" font-size="14.00">contact_point </text>
<text text-anchor="start" x="1415.19" y="-925.8" font-family="Arial" font-size="14.00" fill="#666666">[text]</text>
<polygon fill="none" stroke="black" points="1321.02,-882.8 1321.02,-913.6 1631.47,-913.6 1631.47,-882.8 1321.02,-882.8"/>
<text text-anchor="start" x="1328.02" y="-895" font-family="Arial" font-size="14.00">remark </text>
<text text-anchor="start" x="1375.47" y="-895" font-family="Arial" font-size="14.00" fill="#666666">[text]</text>
<polygon fill="none" stroke="black" points="1321.02,-852 1321.02,-882.8 1631.47,-882.8 1631.47,-852 1321.02,-852"/>
<text text-anchor="start" x="1328.02" y="-864.2" font-family="Arial" font-size="14.00">posting_date </text>
<text text-anchor="start" x="1412.09" y="-864.2" font-family="Arial" font-size="14.00" fill="#666666">[date]</text>
<polygon fill="none" stroke="black" points="1321.02,-821.2 1321.02,-852 1631.47,-852 1631.47,-821.2 1321.02,-821.2"/>
<text text-anchor="start" x="1328.02" y="-833.4" font-family="Arial" font-size="14.00">created_at </text>
<text text-anchor="start" x="1398.07" y="-833.4" font-family="Arial" font-size="14.00" fill="#666666">[datetime]</text>
</g>
<!-- user_favorites -->
<g id="node6" class="node">
<title>user_favorites</title>
<polygon fill="#efefef" stroke="none" points="615.02,-1067.6 615.02,-1103.2 855.47,-1103.2 855.47,-1067.6 615.02,-1067.6"/>
<polygon fill="none" stroke="black" points="615.02,-1067.6 615.02,-1103.2 855.47,-1103.2 855.47,-1067.6 615.02,-1067.6"/>
<text text-anchor="start" x="622.02" y="-1081" font-family="Arial Bold" font-size="18.00">user_favorites</text>
<text text-anchor="start" x="723.98" y="-1081" font-family="Arial" font-size="14.00">    </text>
<text text-anchor="start" x="755.1" y="-1081" font-family="Arial" font-size="14.00" fill="#666666">[BASE TABLE]</text>
<polygon fill="none" stroke="black" points="615.02,-1036.8 615.02,-1067.6 855.47,-1067.6 855.47,-1036.8 615.02,-1036.8"/>
<text text-anchor="start" x="622.02" y="-1049" font-family="Arial" font-size="14.00">id </text>
<text text-anchor="start" x="636.81" y="-1049" font-family="Arial" font-size="14.00" fill="#666666">[int]</text>
<polygon fill="none" stroke="black" points="615.02,-1006 615.02,-1036.8 855.47,-1036.8 855.47,-1006 615.02,-1006"/>
<text text-anchor="start" x="622.02" y="-1018.2" font-family="Arial" font-size="14.00">user_id </text>
<text text-anchor="start" x="671.83" y="-1018.2" font-family="Arial" font-size="14.00" fill="#666666">[char(64)]</text>
<polygon fill="none" stroke="black" points="615.02,-975.2 615.02,-1006 855.47,-1006 855.47,-975.2 615.02,-975.2"/>
<text text-anchor="start" x="622.02" y="-987.4" font-family="Arial" font-size="14.00">scholarship_id </text>
<text text-anchor="start" x="715.41" y="-987.4" font-family="Arial" font-size="14.00" fill="#666666">[int]</text>
</g>
<!-- user_favorites&#45;&gt;scholarships -->
<g id="edge3" class="edge">
<title>user_favorites:scholarship_id&#45;&gt;scholarships:id</title>
<path fill="none" stroke="black" d="M603.93,-990.04C473.09,-974.72 725.68,-647.8 575.98,-647.8"/>
<polygon fill="black" stroke="black" points="603.7,-990.03 613.44,-995.07 609.03,-990.32 613.35,-990.56 613.35,-990.56 613.35,-990.56 609.03,-990.32 613.93,-986.09 603.7,-990.03"/>
<text text-anchor="start" x="394.21" y="-974.6" font-family="Arial" font-size="10.00">FOREIGN KEY (scholarship_id) REFERENCES scholarships (id)</text>
</g>
<!-- users -->
<g id="node7" class="node">
<title>users</title>
<polygon fill="#efefef" stroke="none" points="679.5,-586.2 679.5,-621.8 854.99,-621.8 854.99,-586.2 679.5,-586.2"/>
<polygon fill="none" stroke="black" points="679.5,-586.2 679.5,-621.8 854.99,-621.8 854.99,-586.2 679.5,-586.2"/>
<text text-anchor="start" x="686.5" y="-599.6" font-family="Arial Bold" font-size="18.00">users</text>
<text text-anchor="start" x="723.5" y="-599.6" font-family="Arial" font-size="14.00">    </text>
<text text-anchor="start" x="754.61" y="-599.6" font-family="Arial" font-size="14.00" fill="#666666">[BASE TABLE]</text>
<polygon fill="none" stroke="black" points="679.5,-555.4 679.5,-586.2 854.99,-586.2 854.99,-555.4 679.5,-555.4"/>
<text text-anchor="start" x="686.5" y="-567.6" font-family="Arial" font-size="14.00">id </text>
<text text-anchor="start" x="701.29" y="-567.6" font-family="Arial" font-size="14.00" fill="#666666">[varchar(64)]</text>
<polygon fill="none" stroke="black" points="679.5,-524.6 679.5,-555.4 854.99,-555.4 854.99,-524.6 679.5,-524.6"/>
<text text-anchor="start" x="686.5" y="-536.8" font-family="Arial" font-size="14.00">email </text>
<text text-anchor="start" x="723.85" y="-536.8" font-family="Arial" font-size="14.00" fill="#666666">[varchar(255)]</text>
<polygon fill="none" stroke="black" points="679.5,-493.8 679.5,-524.6 854.99,-524.6 854.99,-493.8 679.5,-493.8"/>
<text text-anchor="start" x="686.5" y="-506" font-family="Arial" font-size="14.00">name </text>
<text text-anchor="start" x="725.41" y="-506" font-family="Arial" font-size="14.00" fill="#666666">[varchar(255)]</text>
<polygon fill="none" stroke="black" points="679.5,-463 679.5,-493.8 854.99,-493.8 854.99,-463 679.5,-463"/>
<text text-anchor="start" x="686.5" y="-475.2" font-family="Arial" font-size="14.00">education_level_id </text>
<text text-anchor="start" x="806.37" y="-475.2" font-family="Arial" font-size="14.00" fill="#666666">[int]</text>
<polygon fill="none" stroke="black" points="679.5,-432.2 679.5,-463 854.99,-463 854.99,-432.2 679.5,-432.2"/>
<text text-anchor="start" x="686.5" y="-444.4" font-family="Arial" font-size="14.00">grade </text>
<text text-anchor="start" x="726.2" y="-444.4" font-family="Arial" font-size="14.00" fill="#666666">[int]</text>
<polygon fill="none" stroke="black" points="679.5,-401.4 679.5,-432.2 854.99,-432.2 854.99,-401.4 679.5,-401.4"/>
<text text-anchor="start" x="686.5" y="-413.6" font-family="Arial" font-size="14.00">accept_email </text>
<text text-anchor="start" x="772.88" y="-413.6" font-family="Arial" font-size="14.00" fill="#666666">[tinyint(1)]</text>
<polygon fill="none" stroke="black" points="679.5,-370.6 679.5,-401.4 854.99,-401.4 854.99,-370.6 679.5,-370.6"/>
<text text-anchor="start" x="686.5" y="-382.8" font-family="Arial" font-size="14.00">created_at </text>
<text text-anchor="start" x="756.55" y="-382.8" font-family="Arial" font-size="14.00" fill="#666666">[timestamp]</text>
<polygon fill="none" stroke="black" points="679.5,-339.8 679.5,-370.6 854.99,-370.6 854.99,-339.8 679.5,-339.8"/>
<text text-anchor="start" x="686.5" y="-352" font-family="Arial" font-size="14.00">updated_at </text>
<text text-anchor="start" x="760.46" y="-352" font-family="Arial" font-size="14.00" fill="#666666">[timestamp]</text>
</g>
<!-- user_favorites&#45;&gt;users -->
<g id="edge4" class="edge">
<title>user_favorites:user_id&#45;&gt;users:id</title>
<path fill="none" stroke="black" d="M866.8,-1021.01C1051.23,-1006.13 466.86,-570.8 678.5,-570.8"/>
<polygon fill="black" stroke="black" points="866.8,-1021.01 856.63,-1016.89 861.47,-1021.21 857.14,-1021.37 857.14,-1021.37 857.14,-1021.37 861.47,-1021.21 856.97,-1025.88 866.8,-1021.01"/>
<text text-anchor="start" x="743.39" y="-1005.4" font-family="Arial" font-size="10.00">FOREIGN KEY (user_id) REFERENCES users (id)</text>
</g>
<!-- users&#45;&gt;education_levels -->
<g id="edge5" class="edge">
<title>users:education_level_id&#45;&gt;education_levels:id</title>
<path fill="none" stroke="black" d="M668.59,-476.31C604.04,-445.69 734.89,-89.4 651.97,-89.4"/>
<polygon fill="black" stroke="black" points="668.39,-476.27 677.25,-482.73 673.61,-477.37 677.85,-478.26 677.85,-478.26 677.85,-478.26 673.61,-477.37 679.11,-473.93 668.39,-476.27"/>
<text text-anchor="start" x="685.5" y="-488.4" font-family="Arial" font-size="10.00">FOREIGN KEY (education_level_id) REFERENCES education_levels (id)</text>
</g>
</g>
</svg>
