<?xml version="1.0" encoding="UTF-8" standalone="no"?>
<!DOCTYPE svg PUBLIC "-//W3C//DTD SVG 1.1//EN"
 "http://www.w3.org/Graphics/SVG/1.1/DTD/svg11.dtd">
<!-- Generated by graphviz version 12.1.2 (20240928.0832)
 -->
<!-- Title: gimme_scholarship Pages: 1 -->
<svg width="1035pt" height="1185pt"
 viewBox="0.00 0.00 1035.14 1185.20" xmlns="http://www.w3.org/2000/svg" xmlns:xlink="http://www.w3.org/1999/xlink">
<g id="graph0" class="graph" transform="scale(1 1) rotate(0) translate(4 1181.2)">
<title>gimme_scholarship</title>
<polygon fill="white" stroke="none" points="-4,4 -4,-1181.2 1031.14,-1181.2 1031.14,4 -4,4"/>
<!-- education_levels -->
<g id="node1" class="node">
<title>education_levels</title>
<polygon fill="#efefef" stroke="none" points="121.78,-274.2 121.78,-309.8 381.23,-309.8 381.23,-274.2 121.78,-274.2"/>
<polygon fill="none" stroke="black" points="121.78,-274.2 121.78,-309.8 381.23,-309.8 381.23,-274.2 121.78,-274.2"/>
<text text-anchor="start" x="128.78" y="-287.6" font-family="Arial Bold" font-size="18.00">education_levels</text>
<text text-anchor="start" x="249.74" y="-287.6" font-family="Arial" font-size="14.00">    </text>
<text text-anchor="start" x="280.85" y="-287.6" font-family="Arial" font-size="14.00" fill="#666666">[BASE TABLE]</text>
<polygon fill="none" stroke="black" points="121.78,-243.4 121.78,-274.2 381.23,-274.2 381.23,-243.4 121.78,-243.4"/>
<text text-anchor="start" x="128.78" y="-255.6" font-family="Arial" font-size="14.00">id </text>
<text text-anchor="start" x="143.57" y="-255.6" font-family="Arial" font-size="14.00" fill="#666666">[int]</text>
<polygon fill="none" stroke="black" points="121.78,-212.6 121.78,-243.4 381.23,-243.4 381.23,-212.6 121.78,-212.6"/>
<text text-anchor="start" x="128.78" y="-224.8" font-family="Arial" font-size="14.00">name </text>
<text text-anchor="start" x="167.69" y="-224.8" font-family="Arial" font-size="14.00" fill="#666666">[varchar(8)]</text>
</g>
<!-- gorp_migrations -->
<g id="node2" class="node">
<title>gorp_migrations</title>
<polygon fill="#efefef" stroke="none" points="459.77,-1052.2 459.77,-1087.8 717.24,-1087.8 717.24,-1052.2 459.77,-1052.2"/>
<polygon fill="none" stroke="black" points="459.77,-1052.2 459.77,-1087.8 717.24,-1087.8 717.24,-1052.2 459.77,-1052.2"/>
<text text-anchor="start" x="466.77" y="-1065.6" font-family="Arial Bold" font-size="18.00">gorp_migrations</text>
<text text-anchor="start" x="585.75" y="-1065.6" font-family="Arial" font-size="14.00">    </text>
<text text-anchor="start" x="616.87" y="-1065.6" font-family="Arial" font-size="14.00" fill="#666666">[BASE TABLE]</text>
<polygon fill="none" stroke="black" points="459.77,-1021.4 459.77,-1052.2 717.24,-1052.2 717.24,-1021.4 459.77,-1021.4"/>
<text text-anchor="start" x="466.77" y="-1033.6" font-family="Arial" font-size="14.00">id </text>
<text text-anchor="start" x="481.55" y="-1033.6" font-family="Arial" font-size="14.00" fill="#666666">[varchar(255)]</text>
<polygon fill="none" stroke="black" points="459.77,-990.6 459.77,-1021.4 717.24,-1021.4 717.24,-990.6 459.77,-990.6"/>
<text text-anchor="start" x="466.77" y="-1002.8" font-family="Arial" font-size="14.00">applied_at </text>
<text text-anchor="start" x="535.27" y="-1002.8" font-family="Arial" font-size="14.00" fill="#666666">[datetime]</text>
</g>
<!-- scholarship_target -->
<g id="node3" class="node">
<title>scholarship_target</title>
<polygon fill="#efefef" stroke="none" points="453.28,-740.2 453.28,-775.8 723.73,-775.8 723.73,-740.2 453.28,-740.2"/>
<polygon fill="none" stroke="black" points="453.28,-740.2 453.28,-775.8 723.73,-775.8 723.73,-740.2 453.28,-740.2"/>
<text text-anchor="start" x="460.28" y="-753.6" font-family="Arial Bold" font-size="18.00">scholarship_target</text>
<text text-anchor="start" x="592.24" y="-753.6" font-family="Arial" font-size="14.00">    </text>
<text text-anchor="start" x="623.36" y="-753.6" font-family="Arial" font-size="14.00" fill="#666666">[BASE TABLE]</text>
<polygon fill="none" stroke="black" points="453.28,-709.4 453.28,-740.2 723.73,-740.2 723.73,-709.4 453.28,-709.4"/>
<text text-anchor="start" x="460.28" y="-721.6" font-family="Arial" font-size="14.00">id </text>
<text text-anchor="start" x="475.07" y="-721.6" font-family="Arial" font-size="14.00" fill="#666666">[int]</text>
<polygon fill="none" stroke="black" points="453.28,-678.6 453.28,-709.4 723.73,-709.4 723.73,-678.6 453.28,-678.6"/>
<text text-anchor="start" x="460.28" y="-690.8" font-family="Arial" font-size="14.00">scholarship_id </text>
<text text-anchor="start" x="553.67" y="-690.8" font-family="Arial" font-size="14.00" fill="#666666">[int]</text>
<polygon fill="none" stroke="black" points="453.28,-647.8 453.28,-678.6 723.73,-678.6 723.73,-647.8 453.28,-647.8"/>
<text text-anchor="start" x="460.28" y="-660" font-family="Arial" font-size="14.00">education_level_id </text>
<text text-anchor="start" x="580.15" y="-660" font-family="Arial" font-size="14.00" fill="#666666">[int]</text>
</g>
<!-- scholarship_target&#45;&gt;education_levels -->
<g id="edge1" class="edge">
<title>scholarship_target:education_level_id&#45;&gt;education_levels:id</title>
<path fill="none" stroke="black" d="M442.06,-661.21C369.95,-630.71 469.69,-258.8 382.23,-258.8"/>
<polygon fill="black" stroke="black" points="442.13,-661.23 451.09,-667.55 447.37,-662.25 451.62,-663.07 451.62,-663.07 451.62,-663.07 447.37,-662.25 452.81,-658.72 442.13,-661.23"/>
<text text-anchor="start" x="459.28" y="-673.2" font-family="Arial" font-size="10.00">FOREIGN KEY (education_level_id) REFERENCES education_levels (id)</text>
</g>
<!-- scholarships -->
<g id="node4" class="node">
<title>scholarships</title>
<polygon fill="#efefef" stroke="none" points="485.76,-443.6 485.76,-479.2 713.24,-479.2 713.24,-443.6 485.76,-443.6"/>
<polygon fill="none" stroke="black" points="485.76,-443.6 485.76,-479.2 713.24,-479.2 713.24,-443.6 485.76,-443.6"/>
<text text-anchor="start" x="492.76" y="-457" font-family="Arial Bold" font-size="18.00">scholarships</text>
<text text-anchor="start" x="581.75" y="-457" font-family="Arial" font-size="14.00">    </text>
<text text-anchor="start" x="612.87" y="-457" font-family="Arial" font-size="14.00" fill="#666666">[BASE TABLE]</text>
<polygon fill="none" stroke="black" points="485.76,-412.8 485.76,-443.6 713.24,-443.6 713.24,-412.8 485.76,-412.8"/>
<text text-anchor="start" x="492.76" y="-425" font-family="Arial" font-size="14.00">id </text>
<text text-anchor="start" x="507.55" y="-425" font-family="Arial" font-size="14.00" fill="#666666">[int]</text>
<polygon fill="none" stroke="black" points="485.76,-382 485.76,-412.8 713.24,-412.8 713.24,-382 485.76,-382"/>
<text text-anchor="start" x="492.76" y="-394.2" font-family="Arial" font-size="14.00">name </text>
<text text-anchor="start" x="531.67" y="-394.2" font-family="Arial" font-size="14.00" fill="#666666">[varchar(128)]</text>
<polygon fill="none" stroke="black" points="485.76,-351.2 485.76,-382 713.24,-382 713.24,-351.2 485.76,-351.2"/>
<text text-anchor="start" x="492.76" y="-363.4" font-family="Arial" font-size="14.00">address </text>
<text text-anchor="start" x="546.46" y="-363.4" font-family="Arial" font-size="14.00" fill="#666666">[varchar(255)]</text>
<polygon fill="none" stroke="black" points="485.76,-320.4 485.76,-351.2 713.24,-351.2 713.24,-320.4 485.76,-320.4"/>
<text text-anchor="start" x="492.76" y="-332.6" font-family="Arial" font-size="14.00">target_detail </text>
<text text-anchor="start" x="573.71" y="-332.6" font-family="Arial" font-size="14.00" fill="#666666">[varchar(255)]</text>
<polygon fill="none" stroke="black" points="485.76,-289.6 485.76,-320.4 713.24,-320.4 713.24,-289.6 485.76,-289.6"/>
<text text-anchor="start" x="492.76" y="-301.8" font-family="Arial" font-size="14.00">amount_detail </text>
<text text-anchor="start" x="584.61" y="-301.8" font-family="Arial" font-size="14.00" fill="#666666">[varchar(128)]</text>
<polygon fill="none" stroke="black" points="485.76,-258.8 485.76,-289.6 713.24,-289.6 713.24,-258.8 485.76,-258.8"/>
<text text-anchor="start" x="492.76" y="-271" font-family="Arial" font-size="14.00">type_detail </text>
<text text-anchor="start" x="564.37" y="-271" font-family="Arial" font-size="14.00" fill="#666666">[varchar(128)]</text>
<polygon fill="none" stroke="black" points="485.76,-228 485.76,-258.8 713.24,-258.8 713.24,-228 485.76,-228"/>
<text text-anchor="start" x="492.76" y="-240.2" font-family="Arial" font-size="14.00">capacity_detail </text>
<text text-anchor="start" x="589.27" y="-240.2" font-family="Arial" font-size="14.00" fill="#666666">[varchar(128)]</text>
<polygon fill="none" stroke="black" points="485.76,-197.2 485.76,-228 713.24,-228 713.24,-197.2 485.76,-197.2"/>
<text text-anchor="start" x="492.76" y="-209.4" font-family="Arial" font-size="14.00">deadline </text>
<text text-anchor="start" x="549.59" y="-209.4" font-family="Arial" font-size="14.00" fill="#666666">[date]</text>
<polygon fill="none" stroke="black" points="485.76,-166.4 485.76,-197.2 713.24,-197.2 713.24,-166.4 485.76,-166.4"/>
<text text-anchor="start" x="492.76" y="-178.6" font-family="Arial" font-size="14.00">deadline_detail </text>
<text text-anchor="start" x="590.85" y="-178.6" font-family="Arial" font-size="14.00" fill="#666666">[varchar(128)]</text>
<polygon fill="none" stroke="black" points="485.76,-135.6 485.76,-166.4 713.24,-166.4 713.24,-135.6 485.76,-135.6"/>
<text text-anchor="start" x="492.76" y="-147.8" font-family="Arial" font-size="14.00">contact_point </text>
<text text-anchor="start" x="579.94" y="-147.8" font-family="Arial" font-size="14.00" fill="#666666">[varchar(128)]</text>
<polygon fill="none" stroke="black" points="485.76,-104.8 485.76,-135.6 713.24,-135.6 713.24,-104.8 485.76,-104.8"/>
<text text-anchor="start" x="492.76" y="-117" font-family="Arial" font-size="14.00">remark </text>
<text text-anchor="start" x="540.21" y="-117" font-family="Arial" font-size="14.00" fill="#666666">[varchar(128)]</text>
<polygon fill="none" stroke="black" points="485.76,-74 485.76,-104.8 713.24,-104.8 713.24,-74 485.76,-74"/>
<text text-anchor="start" x="492.76" y="-86.2" font-family="Arial" font-size="14.00">posting_date </text>
<text text-anchor="start" x="576.83" y="-86.2" font-family="Arial" font-size="14.00" fill="#666666">[date]</text>
<polygon fill="none" stroke="black" points="485.76,-43.2 485.76,-74 713.24,-74 713.24,-43.2 485.76,-43.2"/>
<text text-anchor="start" x="492.76" y="-55.4" font-family="Arial" font-size="14.00">created_at </text>
<text text-anchor="start" x="562.81" y="-55.4" font-family="Arial" font-size="14.00" fill="#666666">[timestamp]</text>
</g>
<!-- scholarship_target&#45;&gt;scholarships -->
<g id="edge2" class="edge">
<title>scholarship_target:scholarship_id&#45;&gt;scholarships:id</title>
<path fill="none" stroke="black" d="M734.78,-692.44C760.99,-683.07 744.7,-633.68 723.73,-604.6 658.29,-513.84 551.18,-613.18 485.76,-522.4 461.29,-488.43 442.9,-428.2 484.76,-428.2"/>
<polygon fill="black" stroke="black" points="734.94,-692.42 724.37,-689.5 729.67,-693.23 725.39,-693.9 725.39,-693.9 725.39,-693.9 729.67,-693.23 725.75,-698.4 734.94,-692.42"/>
<text text-anchor="start" x="731.73" y="-704" font-family="Arial" font-size="10.00">FOREIGN KEY (scholarship_id) REFERENCES scholarships (id)</text>
</g>
<!-- user_auth -->
<g id="node5" class="node">
<title>user_auth</title>
<polygon fill="#efefef" stroke="none" points="147.27,-1098.4 147.27,-1134 355.74,-1134 355.74,-1098.4 147.27,-1098.4"/>
<polygon fill="none" stroke="black" points="147.27,-1098.4 147.27,-1134 355.74,-1134 355.74,-1098.4 147.27,-1098.4"/>
<text text-anchor="start" x="154.27" y="-1111.8" font-family="Arial Bold" font-size="18.00">user_auth</text>
<text text-anchor="start" x="224.25" y="-1111.8" font-family="Arial" font-size="14.00">    </text>
<text text-anchor="start" x="255.37" y="-1111.8" font-family="Arial" font-size="14.00" fill="#666666">[BASE TABLE]</text>
<polygon fill="none" stroke="black" points="147.27,-1067.6 147.27,-1098.4 355.74,-1098.4 355.74,-1067.6 147.27,-1067.6"/>
<text text-anchor="start" x="154.27" y="-1079.8" font-family="Arial" font-size="14.00">id </text>
<text text-anchor="start" x="169.06" y="-1079.8" font-family="Arial" font-size="14.00" fill="#666666">[int]</text>
<polygon fill="none" stroke="black" points="147.27,-1036.8 147.27,-1067.6 355.74,-1067.6 355.74,-1036.8 147.27,-1036.8"/>
<text text-anchor="start" x="154.27" y="-1049" font-family="Arial" font-size="14.00">user_id </text>
<text text-anchor="start" x="204.08" y="-1049" font-family="Arial" font-size="14.00" fill="#666666">[int]</text>
<polygon fill="none" stroke="black" points="147.27,-1006 147.27,-1036.8 355.74,-1036.8 355.74,-1006 147.27,-1006"/>
<text text-anchor="start" x="154.27" y="-1018.2" font-family="Arial" font-size="14.00">sub </text>
<text text-anchor="start" x="180.73" y="-1018.2" font-family="Arial" font-size="14.00" fill="#666666">[varchar(255)]</text>
<polygon fill="none" stroke="black" points="147.27,-975.2 147.27,-1006 355.74,-1006 355.74,-975.2 147.27,-975.2"/>
<text text-anchor="start" x="154.27" y="-987.4" font-family="Arial" font-size="14.00">provider </text>
<text text-anchor="start" x="208.74" y="-987.4" font-family="Arial" font-size="14.00" fill="#666666">[varchar(64)]</text>
<polygon fill="none" stroke="black" points="147.27,-944.4 147.27,-975.2 355.74,-975.2 355.74,-944.4 147.27,-944.4"/>
<text text-anchor="start" x="154.27" y="-956.6" font-family="Arial" font-size="14.00">created_at </text>
<text text-anchor="start" x="224.32" y="-956.6" font-family="Arial" font-size="14.00" fill="#666666">[timestamp]</text>
</g>
<!-- users -->
<g id="node6" class="node">
<title>users</title>
<polygon fill="#efefef" stroke="none" points="163.76,-786.4 163.76,-822 339.25,-822 339.25,-786.4 163.76,-786.4"/>
<polygon fill="none" stroke="black" points="163.76,-786.4 163.76,-822 339.25,-822 339.25,-786.4 163.76,-786.4"/>
<text text-anchor="start" x="170.76" y="-799.8" font-family="Arial Bold" font-size="18.00">users</text>
<text text-anchor="start" x="207.76" y="-799.8" font-family="Arial" font-size="14.00">    </text>
<text text-anchor="start" x="238.87" y="-799.8" font-family="Arial" font-size="14.00" fill="#666666">[BASE TABLE]</text>
<polygon fill="none" stroke="black" points="163.76,-755.6 163.76,-786.4 339.25,-786.4 339.25,-755.6 163.76,-755.6"/>
<text text-anchor="start" x="170.76" y="-767.8" font-family="Arial" font-size="14.00">id </text>
<text text-anchor="start" x="185.55" y="-767.8" font-family="Arial" font-size="14.00" fill="#666666">[int]</text>
<polygon fill="none" stroke="black" points="163.76,-724.8 163.76,-755.6 339.25,-755.6 339.25,-724.8 163.76,-724.8"/>
<text text-anchor="start" x="170.76" y="-737" font-family="Arial" font-size="14.00">uuid </text>
<text text-anchor="start" x="201.12" y="-737" font-family="Arial" font-size="14.00" fill="#666666">[char(36)]</text>
<polygon fill="none" stroke="black" points="163.76,-694 163.76,-724.8 339.25,-724.8 339.25,-694 163.76,-694"/>
<text text-anchor="start" x="170.76" y="-706.2" font-family="Arial" font-size="14.00">email </text>
<text text-anchor="start" x="208.11" y="-706.2" font-family="Arial" font-size="14.00" fill="#666666">[varchar(255)]</text>
<polygon fill="none" stroke="black" points="163.76,-663.2 163.76,-694 339.25,-694 339.25,-663.2 163.76,-663.2"/>
<text text-anchor="start" x="170.76" y="-675.4" font-family="Arial" font-size="14.00">name </text>
<text text-anchor="start" x="209.67" y="-675.4" font-family="Arial" font-size="14.00" fill="#666666">[varchar(255)]</text>
<polygon fill="none" stroke="black" points="163.76,-632.4 163.76,-663.2 339.25,-663.2 339.25,-632.4 163.76,-632.4"/>
<text text-anchor="start" x="170.76" y="-644.6" font-family="Arial" font-size="14.00">education_level_id </text>
<text text-anchor="start" x="290.63" y="-644.6" font-family="Arial" font-size="14.00" fill="#666666">[int]</text>
<polygon fill="none" stroke="black" points="163.76,-601.6 163.76,-632.4 339.25,-632.4 339.25,-601.6 163.76,-601.6"/>
<text text-anchor="start" x="170.76" y="-613.8" font-family="Arial" font-size="14.00">created_at </text>
<text text-anchor="start" x="240.81" y="-613.8" font-family="Arial" font-size="14.00" fill="#666666">[timestamp]</text>
</g>
<!-- user_auth&#45;&gt;users -->
<g id="edge3" class="edge">
<title>user_auth:user_id&#45;&gt;users:id</title>
<path fill="none" stroke="black" d="M366.62,-1049.6C417.32,-1021.25 399.3,-771 340.25,-771"/>
<polygon fill="black" stroke="black" points="366.73,-1049.57 355.91,-1047.76 361.57,-1050.93 357.38,-1052.03 357.38,-1052.03 357.38,-1052.03 361.57,-1050.93 358.21,-1056.47 366.73,-1049.57"/>
<text text-anchor="start" x="243.66" y="-1036.2" font-family="Arial" font-size="10.00">FOREIGN KEY (user_id) REFERENCES users (id)</text>
</g>
<!-- users&#45;&gt;education_levels -->
<g id="edge4" class="edge">
<title>users:education_level_id&#45;&gt;education_levels:id</title>
<path fill="none" stroke="black" d="M349.11,-642.6C389.06,-596.43 422.73,-258.8 382.23,-258.8"/>
<polygon fill="black" stroke="black" points="349.16,-642.57 338.26,-643.75 344.56,-645.27 340.82,-647.46 340.82,-647.46 340.82,-647.46 344.56,-645.27 342.81,-651.51 349.16,-642.57"/>
<text text-anchor="start" x="7" y="-657.8" font-family="Arial" font-size="10.00">FOREIGN KEY (education_level_id) REFERENCES education_levels (id)</text>
</g>
</g>
</svg>
