<?xml version="1.0" encoding="UTF-8" standalone="no"?>
<!DOCTYPE svg PUBLIC "-//W3C//DTD SVG 1.1//EN"
 "http://www.w3.org/Graphics/SVG/1.1/DTD/svg11.dtd">
<!-- Generated by graphviz version 12.1.2 (20240928.0832)
 -->
<!-- Title: scholarships Pages: 1 -->
<svg width="625pt" height="787pt"
 viewBox="0.00 0.00 625.06 786.80" xmlns="http://www.w3.org/2000/svg" xmlns:xlink="http://www.w3.org/1999/xlink">
<g id="graph0" class="graph" transform="scale(1 1) rotate(0) translate(4 782.8)">
<title>scholarships</title>
<polygon fill="white" stroke="none" points="-4,4 -4,-782.8 621.06,-782.8 621.06,4 -4,4"/>
<!-- scholarships -->
<g id="node1" class="node">
<title>scholarships</title>
<polygon fill="#efefef" stroke="none" points="64.68,-446.6 64.68,-482.2 292.16,-482.2 292.16,-446.6 64.68,-446.6"/>
<polygon fill="none" stroke="black" points="64.68,-446.6 64.68,-482.2 292.16,-482.2 292.16,-446.6 64.68,-446.6"/>
<text text-anchor="start" x="71.68" y="-460" font-family="Arial Bold" font-size="18.00">scholarships</text>
<text text-anchor="start" x="160.67" y="-460" font-family="Arial" font-size="14.00">    </text>
<text text-anchor="start" x="191.79" y="-460" font-family="Arial" font-size="14.00" fill="#666666">[BASE TABLE]</text>
<polygon fill="none" stroke="black" points="64.68,-415.8 64.68,-446.6 292.16,-446.6 292.16,-415.8 64.68,-415.8"/>
<text text-anchor="start" x="71.68" y="-428" font-family="Arial" font-size="14.00">id </text>
<text text-anchor="start" x="86.47" y="-428" font-family="Arial" font-size="14.00" fill="#666666">[int]</text>
<polygon fill="none" stroke="black" points="64.68,-385 64.68,-415.8 292.16,-415.8 292.16,-385 64.68,-385"/>
<text text-anchor="start" x="71.68" y="-397.2" font-family="Arial" font-size="14.00">name </text>
<text text-anchor="start" x="110.6" y="-397.2" font-family="Arial" font-size="14.00" fill="#666666">[varchar(128)]</text>
<polygon fill="none" stroke="black" points="64.68,-354.2 64.68,-385 292.16,-385 292.16,-354.2 64.68,-354.2"/>
<text text-anchor="start" x="71.68" y="-366.4" font-family="Arial" font-size="14.00">address </text>
<text text-anchor="start" x="125.38" y="-366.4" font-family="Arial" font-size="14.00" fill="#666666">[text]</text>
<polygon fill="none" stroke="black" points="64.68,-323.4 64.68,-354.2 292.16,-354.2 292.16,-323.4 64.68,-323.4"/>
<text text-anchor="start" x="71.68" y="-335.6" font-family="Arial" font-size="14.00">target_detail </text>
<text text-anchor="start" x="152.63" y="-335.6" font-family="Arial" font-size="14.00" fill="#666666">[text]</text>
<polygon fill="none" stroke="black" points="64.68,-292.6 64.68,-323.4 292.16,-323.4 292.16,-292.6 64.68,-292.6"/>
<text text-anchor="start" x="71.68" y="-304.8" font-family="Arial" font-size="14.00">amount_detail </text>
<text text-anchor="start" x="163.53" y="-304.8" font-family="Arial" font-size="14.00" fill="#666666">[text]</text>
<polygon fill="none" stroke="black" points="64.68,-261.8 64.68,-292.6 292.16,-292.6 292.16,-261.8 64.68,-261.8"/>
<text text-anchor="start" x="71.68" y="-274" font-family="Arial" font-size="14.00">type_detail </text>
<text text-anchor="start" x="143.29" y="-274" font-family="Arial" font-size="14.00" fill="#666666">[text]</text>
<polygon fill="none" stroke="black" points="64.68,-231 64.68,-261.8 292.16,-261.8 292.16,-231 64.68,-231"/>
<text text-anchor="start" x="71.68" y="-243.2" font-family="Arial" font-size="14.00">capacity_detail </text>
<text text-anchor="start" x="168.19" y="-243.2" font-family="Arial" font-size="14.00" fill="#666666">[text]</text>
<polygon fill="none" stroke="black" points="64.68,-200.2 64.68,-231 292.16,-231 292.16,-200.2 64.68,-200.2"/>
<text text-anchor="start" x="71.68" y="-212.4" font-family="Arial" font-size="14.00">deadline </text>
<text text-anchor="start" x="128.51" y="-212.4" font-family="Arial" font-size="14.00" fill="#666666">[date]</text>
<polygon fill="none" stroke="black" points="64.68,-169.4 64.68,-200.2 292.16,-200.2 292.16,-169.4 64.68,-169.4"/>
<text text-anchor="start" x="71.68" y="-181.6" font-family="Arial" font-size="14.00">deadline_detail </text>
<text text-anchor="start" x="169.77" y="-181.6" font-family="Arial" font-size="14.00" fill="#666666">[text]</text>
<polygon fill="none" stroke="black" points="64.68,-138.6 64.68,-169.4 292.16,-169.4 292.16,-138.6 64.68,-138.6"/>
<text text-anchor="start" x="71.68" y="-150.8" font-family="Arial" font-size="14.00">contact_point </text>
<text text-anchor="start" x="158.86" y="-150.8" font-family="Arial" font-size="14.00" fill="#666666">[text]</text>
<polygon fill="none" stroke="black" points="64.68,-107.8 64.68,-138.6 292.16,-138.6 292.16,-107.8 64.68,-107.8"/>
<text text-anchor="start" x="71.68" y="-120" font-family="Arial" font-size="14.00">remark </text>
<text text-anchor="start" x="119.13" y="-120" font-family="Arial" font-size="14.00" fill="#666666">[text]</text>
<polygon fill="none" stroke="black" points="64.68,-77 64.68,-107.8 292.16,-107.8 292.16,-77 64.68,-77"/>
<text text-anchor="start" x="71.68" y="-89.2" font-family="Arial" font-size="14.00">posting_date </text>
<text text-anchor="start" x="155.75" y="-89.2" font-family="Arial" font-size="14.00" fill="#666666">[date]</text>
<polygon fill="none" stroke="black" points="64.68,-46.2 64.68,-77 292.16,-77 292.16,-46.2 64.68,-46.2"/>
<text text-anchor="start" x="71.68" y="-58.4" font-family="Arial" font-size="14.00">created_at </text>
<text text-anchor="start" x="141.73" y="-58.4" font-family="Arial" font-size="14.00" fill="#666666">[timestamp]</text>
<polygon fill="none" stroke="black" stroke-width="3" points="63.18,-44.7 63.18,-483.7 293.66,-483.7 293.66,-44.7 63.18,-44.7"/>
</g>
<!-- scholarship_target -->
<g id="node2" class="node">
<title>scholarship_target</title>
<polygon fill="#efefef" stroke="none" points="43.2,-700 43.2,-735.6 313.65,-735.6 313.65,-700 43.2,-700"/>
<polygon fill="none" stroke="black" points="43.2,-700 43.2,-735.6 313.65,-735.6 313.65,-700 43.2,-700"/>
<text text-anchor="start" x="50.2" y="-713.4" font-family="Arial Bold" font-size="18.00">scholarship_target</text>
<text text-anchor="start" x="182.16" y="-713.4" font-family="Arial" font-size="14.00">    </text>
<text text-anchor="start" x="213.28" y="-713.4" font-family="Arial" font-size="14.00" fill="#666666">[BASE TABLE]</text>
<polygon fill="none" stroke="black" points="43.2,-669.2 43.2,-700 313.65,-700 313.65,-669.2 43.2,-669.2"/>
<text text-anchor="start" x="50.2" y="-681.4" font-family="Arial" font-size="14.00">id </text>
<text text-anchor="start" x="64.99" y="-681.4" font-family="Arial" font-size="14.00" fill="#666666">[int]</text>
<polygon fill="none" stroke="black" points="43.2,-638.4 43.2,-669.2 313.65,-669.2 313.65,-638.4 43.2,-638.4"/>
<text text-anchor="start" x="50.2" y="-650.6" font-family="Arial" font-size="14.00">scholarship_id </text>
<text text-anchor="start" x="143.59" y="-650.6" font-family="Arial" font-size="14.00" fill="#666666">[int]</text>
<polygon fill="none" stroke="black" points="43.2,-607.6 43.2,-638.4 313.65,-638.4 313.65,-607.6 43.2,-607.6"/>
<text text-anchor="start" x="50.2" y="-619.8" font-family="Arial" font-size="14.00">education_level_id </text>
<text text-anchor="start" x="170.07" y="-619.8" font-family="Arial" font-size="14.00" fill="#666666">[int]</text>
</g>
<!-- scholarship_target&#45;&gt;scholarships -->
<g id="edge1" class="edge">
<title>scholarship_target:scholarship_id&#45;&gt;scholarships:id</title>
<path fill="none" stroke="black" d="M324.95,-652.95C412.39,-638 388.97,-431.2 293.16,-431.2"/>
<polygon fill="black" stroke="black" points="324.95,-652.95 314.61,-649.29 319.63,-653.39 315.31,-653.74 315.31,-653.74 315.31,-653.74 319.63,-653.39 315.35,-658.26 324.95,-652.95"/>
<text text-anchor="start" x="321.65" y="-663.8" font-family="Arial" font-size="10.00">FOREIGN KEY (scholarship_id) REFERENCES scholarships (id)</text>
</g>
</g>
</svg>
