<?xml version="1.0" encoding="UTF-8" standalone="no"?>
<!DOCTYPE svg PUBLIC "-//W3C//DTD SVG 1.1//EN"
 "http://www.w3.org/Graphics/SVG/1.1/DTD/svg11.dtd">
<!-- Generated by graphviz version 12.1.2 (20240928.0832)
 -->
<!-- Title: scholarship_target Pages: 1 -->
<svg width="923pt" height="787pt"
 viewBox="0.00 0.00 923.11 786.80" xmlns="http://www.w3.org/2000/svg" xmlns:xlink="http://www.w3.org/1999/xlink">
<g id="graph0" class="graph" transform="scale(1 1) rotate(0) translate(4 782.8)">
<title>scholarship_target</title>
<polygon fill="white" stroke="none" points="-4,4 -4,-782.8 919.11,-782.8 919.11,4 -4,4"/>
<!-- scholarship_target -->
<g id="node1" class="node">
<title>scholarship_target</title>
<polygon fill="#efefef" stroke="none" points="303.41,-697 303.41,-732.6 573.86,-732.6 573.86,-697 303.41,-697"/>
<polygon fill="none" stroke="black" points="303.41,-697 303.41,-732.6 573.86,-732.6 573.86,-697 303.41,-697"/>
<text text-anchor="start" x="310.41" y="-710.4" font-family="Arial Bold" font-size="18.00">scholarship_target</text>
<text text-anchor="start" x="442.37" y="-710.4" font-family="Arial" font-size="14.00">    </text>
<text text-anchor="start" x="473.49" y="-710.4" font-family="Arial" font-size="14.00" fill="#666666">[BASE TABLE]</text>
<polygon fill="none" stroke="black" points="303.41,-666.2 303.41,-697 573.86,-697 573.86,-666.2 303.41,-666.2"/>
<text text-anchor="start" x="310.41" y="-678.4" font-family="Arial" font-size="14.00">id </text>
<text text-anchor="start" x="325.2" y="-678.4" font-family="Arial" font-size="14.00" fill="#666666">[int]</text>
<polygon fill="none" stroke="black" points="303.41,-635.4 303.41,-666.2 573.86,-666.2 573.86,-635.4 303.41,-635.4"/>
<text text-anchor="start" x="310.41" y="-647.6" font-family="Arial" font-size="14.00">scholarship_id </text>
<text text-anchor="start" x="403.8" y="-647.6" font-family="Arial" font-size="14.00" fill="#666666">[int]</text>
<polygon fill="none" stroke="black" points="303.41,-604.6 303.41,-635.4 573.86,-635.4 573.86,-604.6 303.41,-604.6"/>
<text text-anchor="start" x="310.41" y="-616.8" font-family="Arial" font-size="14.00">education_level_id </text>
<text text-anchor="start" x="430.28" y="-616.8" font-family="Arial" font-size="14.00" fill="#666666">[int]</text>
<polygon fill="none" stroke="black" stroke-width="3" points="301.91,-603.1 301.91,-734.1 575.36,-734.1 575.36,-603.1 301.91,-603.1"/>
</g>
<!-- scholarships -->
<g id="node2" class="node">
<title>scholarships</title>
<polygon fill="#efefef" stroke="none" points="150.9,-443.6 150.9,-479.2 378.38,-479.2 378.38,-443.6 150.9,-443.6"/>
<polygon fill="none" stroke="black" points="150.9,-443.6 150.9,-479.2 378.38,-479.2 378.38,-443.6 150.9,-443.6"/>
<text text-anchor="start" x="157.9" y="-457" font-family="Arial Bold" font-size="18.00">scholarships</text>
<text text-anchor="start" x="246.89" y="-457" font-family="Arial" font-size="14.00">    </text>
<text text-anchor="start" x="278" y="-457" font-family="Arial" font-size="14.00" fill="#666666">[BASE TABLE]</text>
<polygon fill="none" stroke="black" points="150.9,-412.8 150.9,-443.6 378.38,-443.6 378.38,-412.8 150.9,-412.8"/>
<text text-anchor="start" x="157.9" y="-425" font-family="Arial" font-size="14.00">id </text>
<text text-anchor="start" x="172.68" y="-425" font-family="Arial" font-size="14.00" fill="#666666">[int]</text>
<polygon fill="none" stroke="black" points="150.9,-382 150.9,-412.8 378.38,-412.8 378.38,-382 150.9,-382"/>
<text text-anchor="start" x="157.9" y="-394.2" font-family="Arial" font-size="14.00">name </text>
<text text-anchor="start" x="196.81" y="-394.2" font-family="Arial" font-size="14.00" fill="#666666">[varchar(128)]</text>
<polygon fill="none" stroke="black" points="150.9,-351.2 150.9,-382 378.38,-382 378.38,-351.2 150.9,-351.2"/>
<text text-anchor="start" x="157.9" y="-363.4" font-family="Arial" font-size="14.00">address </text>
<text text-anchor="start" x="211.59" y="-363.4" font-family="Arial" font-size="14.00" fill="#666666">[text]</text>
<polygon fill="none" stroke="black" points="150.9,-320.4 150.9,-351.2 378.38,-351.2 378.38,-320.4 150.9,-320.4"/>
<text text-anchor="start" x="157.9" y="-332.6" font-family="Arial" font-size="14.00">target_detail </text>
<text text-anchor="start" x="238.84" y="-332.6" font-family="Arial" font-size="14.00" fill="#666666">[text]</text>
<polygon fill="none" stroke="black" points="150.9,-289.6 150.9,-320.4 378.38,-320.4 378.38,-289.6 150.9,-289.6"/>
<text text-anchor="start" x="157.9" y="-301.8" font-family="Arial" font-size="14.00">amount_detail </text>
<text text-anchor="start" x="249.74" y="-301.8" font-family="Arial" font-size="14.00" fill="#666666">[text]</text>
<polygon fill="none" stroke="black" points="150.9,-258.8 150.9,-289.6 378.38,-289.6 378.38,-258.8 150.9,-258.8"/>
<text text-anchor="start" x="157.9" y="-271" font-family="Arial" font-size="14.00">type_detail </text>
<text text-anchor="start" x="229.5" y="-271" font-family="Arial" font-size="14.00" fill="#666666">[text]</text>
<polygon fill="none" stroke="black" points="150.9,-228 150.9,-258.8 378.38,-258.8 378.38,-228 150.9,-228"/>
<text text-anchor="start" x="157.9" y="-240.2" font-family="Arial" font-size="14.00">capacity_detail </text>
<text text-anchor="start" x="254.4" y="-240.2" font-family="Arial" font-size="14.00" fill="#666666">[text]</text>
<polygon fill="none" stroke="black" points="150.9,-197.2 150.9,-228 378.38,-228 378.38,-197.2 150.9,-197.2"/>
<text text-anchor="start" x="157.9" y="-209.4" font-family="Arial" font-size="14.00">deadline </text>
<text text-anchor="start" x="214.73" y="-209.4" font-family="Arial" font-size="14.00" fill="#666666">[date]</text>
<polygon fill="none" stroke="black" points="150.9,-166.4 150.9,-197.2 378.38,-197.2 378.38,-166.4 150.9,-166.4"/>
<text text-anchor="start" x="157.9" y="-178.6" font-family="Arial" font-size="14.00">deadline_detail </text>
<text text-anchor="start" x="255.98" y="-178.6" font-family="Arial" font-size="14.00" fill="#666666">[text]</text>
<polygon fill="none" stroke="black" points="150.9,-135.6 150.9,-166.4 378.38,-166.4 378.38,-135.6 150.9,-135.6"/>
<text text-anchor="start" x="157.9" y="-147.8" font-family="Arial" font-size="14.00">contact_point </text>
<text text-anchor="start" x="245.07" y="-147.8" font-family="Arial" font-size="14.00" fill="#666666">[text]</text>
<polygon fill="none" stroke="black" points="150.9,-104.8 150.9,-135.6 378.38,-135.6 378.38,-104.8 150.9,-104.8"/>
<text text-anchor="start" x="157.9" y="-117" font-family="Arial" font-size="14.00">remark </text>
<text text-anchor="start" x="205.35" y="-117" font-family="Arial" font-size="14.00" fill="#666666">[text]</text>
<polygon fill="none" stroke="black" points="150.9,-74 150.9,-104.8 378.38,-104.8 378.38,-74 150.9,-74"/>
<text text-anchor="start" x="157.9" y="-86.2" font-family="Arial" font-size="14.00">posting_date </text>
<text text-anchor="start" x="241.97" y="-86.2" font-family="Arial" font-size="14.00" fill="#666666">[date]</text>
<polygon fill="none" stroke="black" points="150.9,-43.2 150.9,-74 378.38,-74 378.38,-43.2 150.9,-43.2"/>
<text text-anchor="start" x="157.9" y="-55.4" font-family="Arial" font-size="14.00">created_at </text>
<text text-anchor="start" x="227.95" y="-55.4" font-family="Arial" font-size="14.00" fill="#666666">[datetime]</text>
</g>
<!-- scholarship_target&#45;&gt;scholarships -->
<g id="edge1" class="edge">
<title>scholarship_target:scholarship_id&#45;&gt;scholarships:id</title>
<path fill="none" stroke="black" d="M292.42,-649.34C265.11,-640.17 283.42,-589.8 303.41,-558.4 323.26,-527.22 358.53,-553.58 378.38,-522.4 400.86,-487.08 421.25,-428.2 379.38,-428.2"/>
<polygon fill="black" stroke="black" points="292.19,-649.31 301.43,-655.2 297.47,-650.08 301.75,-650.7 301.75,-650.7 301.75,-650.7 297.47,-650.08 302.73,-646.3 292.19,-649.31"/>
<text text-anchor="start" x="7" y="-660.8" font-family="Arial" font-size="10.00">FOREIGN KEY (scholarship_id) REFERENCES scholarships (id)</text>
</g>
<!-- education_levels -->
<g id="node3" class="node">
<title>education_levels</title>
<polygon fill="#efefef" stroke="none" points="482.92,-274.2 482.92,-309.8 742.36,-309.8 742.36,-274.2 482.92,-274.2"/>
<polygon fill="none" stroke="black" points="482.92,-274.2 482.92,-309.8 742.36,-309.8 742.36,-274.2 482.92,-274.2"/>
<text text-anchor="start" x="489.92" y="-287.6" font-family="Arial Bold" font-size="18.00">education_levels</text>
<text text-anchor="start" x="610.87" y="-287.6" font-family="Arial" font-size="14.00">    </text>
<text text-anchor="start" x="641.99" y="-287.6" font-family="Arial" font-size="14.00" fill="#666666">[BASE TABLE]</text>
<polygon fill="none" stroke="black" points="482.92,-243.4 482.92,-274.2 742.36,-274.2 742.36,-243.4 482.92,-243.4"/>
<text text-anchor="start" x="489.92" y="-255.6" font-family="Arial" font-size="14.00">id </text>
<text text-anchor="start" x="504.7" y="-255.6" font-family="Arial" font-size="14.00" fill="#666666">[int]</text>
<polygon fill="none" stroke="black" points="482.92,-212.6 482.92,-243.4 742.36,-243.4 742.36,-212.6 482.92,-212.6"/>
<text text-anchor="start" x="489.92" y="-224.8" font-family="Arial" font-size="14.00">name </text>
<text text-anchor="start" x="528.83" y="-224.8" font-family="Arial" font-size="14.00" fill="#666666">[varchar(8)]</text>
</g>
<!-- scholarship_target&#45;&gt;education_levels -->
<g id="edge2" class="edge">
<title>scholarship_target:education_level_id&#45;&gt;education_levels:id</title>
<path fill="none" stroke="black" d="M585.15,-619.46C721.85,-603.96 319.88,-258.8 481.92,-258.8"/>
<polygon fill="black" stroke="black" points="585.18,-619.46 574.96,-615.49 579.85,-619.74 575.53,-619.97 575.53,-619.97 575.53,-619.97 579.85,-619.74 575.43,-624.48 585.18,-619.46"/>
<text text-anchor="start" x="581.86" y="-630" font-family="Arial" font-size="10.00">FOREIGN KEY (education_level_id) REFERENCES education_levels (id)</text>
</g>
</g>
</svg>
