<?xml version="1.0" encoding="UTF-8" standalone="no"?>
<!DOCTYPE svg PUBLIC "-//W3C//DTD SVG 1.1//EN"
 "http://www.w3.org/Graphics/SVG/1.1/DTD/svg11.dtd">
<!-- Generated by graphviz version 12.1.2 (20240928.0832)
 -->
<!-- Title: scholarships Pages: 1 -->
<svg width="734pt" height="787pt"
 viewBox="0.00 0.00 734.11 786.80" xmlns="http://www.w3.org/2000/svg" xmlns:xlink="http://www.w3.org/1999/xlink">
<g id="graph0" class="graph" transform="scale(1 1) rotate(0) translate(4 782.8)">
<title>scholarships</title>
<polygon fill="white" stroke="none" points="-4,4 -4,-782.8 730.11,-782.8 730.11,4 -4,4"/>
<!-- scholarships -->
<g id="node1" class="node">
<title>scholarships</title>
<polygon fill="#efefef" stroke="none" points="249.19,-446.6 249.19,-482.2 476.67,-482.2 476.67,-446.6 249.19,-446.6"/>
<polygon fill="none" stroke="black" points="249.19,-446.6 249.19,-482.2 476.67,-482.2 476.67,-446.6 249.19,-446.6"/>
<text text-anchor="start" x="256.19" y="-460" font-family="Arial Bold" font-size="18.00">scholarships</text>
<text text-anchor="start" x="345.18" y="-460" font-family="Arial" font-size="14.00">    </text>
<text text-anchor="start" x="376.29" y="-460" font-family="Arial" font-size="14.00" fill="#666666">[BASE TABLE]</text>
<polygon fill="none" stroke="black" points="249.19,-415.8 249.19,-446.6 476.67,-446.6 476.67,-415.8 249.19,-415.8"/>
<text text-anchor="start" x="256.19" y="-428" font-family="Arial" font-size="14.00">id </text>
<text text-anchor="start" x="270.97" y="-428" font-family="Arial" font-size="14.00" fill="#666666">[int]</text>
<polygon fill="none" stroke="black" points="249.19,-385 249.19,-415.8 476.67,-415.8 476.67,-385 249.19,-385"/>
<text text-anchor="start" x="256.19" y="-397.2" font-family="Arial" font-size="14.00">name </text>
<text text-anchor="start" x="295.1" y="-397.2" font-family="Arial" font-size="14.00" fill="#666666">[varchar(128)]</text>
<polygon fill="none" stroke="black" points="249.19,-354.2 249.19,-385 476.67,-385 476.67,-354.2 249.19,-354.2"/>
<text text-anchor="start" x="256.19" y="-366.4" font-family="Arial" font-size="14.00">address </text>
<text text-anchor="start" x="309.88" y="-366.4" font-family="Arial" font-size="14.00" fill="#666666">[text]</text>
<polygon fill="none" stroke="black" points="249.19,-323.4 249.19,-354.2 476.67,-354.2 476.67,-323.4 249.19,-323.4"/>
<text text-anchor="start" x="256.19" y="-335.6" font-family="Arial" font-size="14.00">target_detail </text>
<text text-anchor="start" x="337.13" y="-335.6" font-family="Arial" font-size="14.00" fill="#666666">[text]</text>
<polygon fill="none" stroke="black" points="249.19,-292.6 249.19,-323.4 476.67,-323.4 476.67,-292.6 249.19,-292.6"/>
<text text-anchor="start" x="256.19" y="-304.8" font-family="Arial" font-size="14.00">amount_detail </text>
<text text-anchor="start" x="348.03" y="-304.8" font-family="Arial" font-size="14.00" fill="#666666">[text]</text>
<polygon fill="none" stroke="black" points="249.19,-261.8 249.19,-292.6 476.67,-292.6 476.67,-261.8 249.19,-261.8"/>
<text text-anchor="start" x="256.19" y="-274" font-family="Arial" font-size="14.00">type_detail </text>
<text text-anchor="start" x="327.79" y="-274" font-family="Arial" font-size="14.00" fill="#666666">[text]</text>
<polygon fill="none" stroke="black" points="249.19,-231 249.19,-261.8 476.67,-261.8 476.67,-231 249.19,-231"/>
<text text-anchor="start" x="256.19" y="-243.2" font-family="Arial" font-size="14.00">capacity_detail </text>
<text text-anchor="start" x="352.69" y="-243.2" font-family="Arial" font-size="14.00" fill="#666666">[text]</text>
<polygon fill="none" stroke="black" points="249.19,-200.2 249.19,-231 476.67,-231 476.67,-200.2 249.19,-200.2"/>
<text text-anchor="start" x="256.19" y="-212.4" font-family="Arial" font-size="14.00">deadline </text>
<text text-anchor="start" x="313.01" y="-212.4" font-family="Arial" font-size="14.00" fill="#666666">[date]</text>
<polygon fill="none" stroke="black" points="249.19,-169.4 249.19,-200.2 476.67,-200.2 476.67,-169.4 249.19,-169.4"/>
<text text-anchor="start" x="256.19" y="-181.6" font-family="Arial" font-size="14.00">deadline_detail </text>
<text text-anchor="start" x="354.27" y="-181.6" font-family="Arial" font-size="14.00" fill="#666666">[text]</text>
<polygon fill="none" stroke="black" points="249.19,-138.6 249.19,-169.4 476.67,-169.4 476.67,-138.6 249.19,-138.6"/>
<text text-anchor="start" x="256.19" y="-150.8" font-family="Arial" font-size="14.00">contact_point </text>
<text text-anchor="start" x="343.36" y="-150.8" font-family="Arial" font-size="14.00" fill="#666666">[text]</text>
<polygon fill="none" stroke="black" points="249.19,-107.8 249.19,-138.6 476.67,-138.6 476.67,-107.8 249.19,-107.8"/>
<text text-anchor="start" x="256.19" y="-120" font-family="Arial" font-size="14.00">remark </text>
<text text-anchor="start" x="303.64" y="-120" font-family="Arial" font-size="14.00" fill="#666666">[text]</text>
<polygon fill="none" stroke="black" points="249.19,-77 249.19,-107.8 476.67,-107.8 476.67,-77 249.19,-77"/>
<text text-anchor="start" x="256.19" y="-89.2" font-family="Arial" font-size="14.00">posting_date </text>
<text text-anchor="start" x="340.26" y="-89.2" font-family="Arial" font-size="14.00" fill="#666666">[date]</text>
<polygon fill="none" stroke="black" points="249.19,-46.2 249.19,-77 476.67,-77 476.67,-46.2 249.19,-46.2"/>
<text text-anchor="start" x="256.19" y="-58.4" font-family="Arial" font-size="14.00">created_at </text>
<text text-anchor="start" x="326.24" y="-58.4" font-family="Arial" font-size="14.00" fill="#666666">[datetime]</text>
<polygon fill="none" stroke="black" stroke-width="3" points="247.69,-44.7 247.69,-483.7 478.17,-483.7 478.17,-44.7 247.69,-44.7"/>
</g>
<!-- scholarship_targets -->
<g id="node2" class="node">
<title>scholarship_targets</title>
<polygon fill="#efefef" stroke="none" points="43.2,-700 43.2,-735.6 320.65,-735.6 320.65,-700 43.2,-700"/>
<polygon fill="none" stroke="black" points="43.2,-700 43.2,-735.6 320.65,-735.6 320.65,-700 43.2,-700"/>
<text text-anchor="start" x="50.2" y="-713.4" font-family="Arial Bold" font-size="18.00">scholarship_targets</text>
<text text-anchor="start" x="189.16" y="-713.4" font-family="Arial" font-size="14.00">    </text>
<text text-anchor="start" x="220.28" y="-713.4" font-family="Arial" font-size="14.00" fill="#666666">[BASE TABLE]</text>
<polygon fill="none" stroke="black" points="43.2,-669.2 43.2,-700 320.65,-700 320.65,-669.2 43.2,-669.2"/>
<text text-anchor="start" x="50.2" y="-681.4" font-family="Arial" font-size="14.00">id </text>
<text text-anchor="start" x="64.99" y="-681.4" font-family="Arial" font-size="14.00" fill="#666666">[int]</text>
<polygon fill="none" stroke="black" points="43.2,-638.4 43.2,-669.2 320.65,-669.2 320.65,-638.4 43.2,-638.4"/>
<text text-anchor="start" x="50.2" y="-650.6" font-family="Arial" font-size="14.00">scholarship_id </text>
<text text-anchor="start" x="143.59" y="-650.6" font-family="Arial" font-size="14.00" fill="#666666">[int]</text>
<polygon fill="none" stroke="black" points="43.2,-607.6 43.2,-638.4 320.65,-638.4 320.65,-607.6 43.2,-607.6"/>
<text text-anchor="start" x="50.2" y="-619.8" font-family="Arial" font-size="14.00">education_level_id </text>
<text text-anchor="start" x="170.07" y="-619.8" font-family="Arial" font-size="14.00" fill="#666666">[int]</text>
</g>
<!-- scholarship_targets&#45;&gt;scholarships -->
<g id="edge1" class="edge">
<title>scholarship_targets:scholarship_id&#45;&gt;scholarships:id</title>
<path fill="none" stroke="black" d="M331.65,-652.28C357.53,-643.13 339.63,-594.82 320.65,-564.4 301.83,-534.22 268,-558.58 249.19,-528.4 226.34,-491.73 204.99,-431.2 248.19,-431.2"/>
<polygon fill="black" stroke="black" points="331.87,-652.25 321.31,-649.3 326.6,-653.05 322.31,-653.7 322.31,-653.7 322.31,-653.7 326.6,-653.05 322.66,-658.2 331.87,-652.25"/>
<text text-anchor="start" x="328.65" y="-663.8" font-family="Arial" font-size="10.00">FOREIGN KEY (scholarship_id) REFERENCES scholarships (id)</text>
</g>
<!-- user_favorites -->
<g id="node3" class="node">
<title>user_favorites</title>
<polygon fill="#efefef" stroke="none" points="424.7,-700 424.7,-735.6 665.15,-735.6 665.15,-700 424.7,-700"/>
<polygon fill="none" stroke="black" points="424.7,-700 424.7,-735.6 665.15,-735.6 665.15,-700 424.7,-700"/>
<text text-anchor="start" x="431.7" y="-713.4" font-family="Arial Bold" font-size="18.00">user_favorites</text>
<text text-anchor="start" x="533.66" y="-713.4" font-family="Arial" font-size="14.00">    </text>
<text text-anchor="start" x="564.78" y="-713.4" font-family="Arial" font-size="14.00" fill="#666666">[BASE TABLE]</text>
<polygon fill="none" stroke="black" points="424.7,-669.2 424.7,-700 665.15,-700 665.15,-669.2 424.7,-669.2"/>
<text text-anchor="start" x="431.7" y="-681.4" font-family="Arial" font-size="14.00">id </text>
<text text-anchor="start" x="446.49" y="-681.4" font-family="Arial" font-size="14.00" fill="#666666">[int]</text>
<polygon fill="none" stroke="black" points="424.7,-638.4 424.7,-669.2 665.15,-669.2 665.15,-638.4 424.7,-638.4"/>
<text text-anchor="start" x="431.7" y="-650.6" font-family="Arial" font-size="14.00">user_id </text>
<text text-anchor="start" x="481.51" y="-650.6" font-family="Arial" font-size="14.00" fill="#666666">[char(64)]</text>
<polygon fill="none" stroke="black" points="424.7,-607.6 424.7,-638.4 665.15,-638.4 665.15,-607.6 424.7,-607.6"/>
<text text-anchor="start" x="431.7" y="-619.8" font-family="Arial" font-size="14.00">scholarship_id </text>
<text text-anchor="start" x="525.09" y="-619.8" font-family="Arial" font-size="14.00" fill="#666666">[int]</text>
</g>
<!-- user_favorites&#45;&gt;scholarships -->
<g id="edge2" class="edge">
<title>user_favorites:scholarship_id&#45;&gt;scholarships:id</title>
<path fill="none" stroke="black" d="M413.98,-620.34C402.43,-611.65 414.43,-583.6 424.7,-564.4 437.95,-539.62 463.5,-553.22 476.67,-528.4 496.91,-490.23 520.87,-431.2 477.67,-431.2"/>
<polygon fill="black" stroke="black" points="413.73,-620.27 422.19,-627.25 418.88,-621.68 423.06,-622.82 423.06,-622.82 423.06,-622.82 418.88,-621.68 424.57,-618.57 413.73,-620.27"/>
<text text-anchor="start" x="430.7" y="-633" font-family="Arial" font-size="10.00">FOREIGN KEY (scholarship_id) REFERENCES scholarships (id)</text>
</g>
</g>
</svg>
