<?xml version="1.0" encoding="UTF-8" standalone="no"?>
<!DOCTYPE svg PUBLIC "-//W3C//DTD SVG 1.1//EN"
 "http://www.w3.org/Graphics/SVG/1.1/DTD/svg11.dtd">
<!-- Generated by graphviz version 12.1.2 (20240928.0832)
 -->
<!-- Title: scholarships Pages: 1 -->
<svg width="727pt" height="787pt"
 viewBox="0.00 0.00 727.11 786.80" xmlns="http://www.w3.org/2000/svg" xmlns:xlink="http://www.w3.org/1999/xlink">
<g id="graph0" class="graph" transform="scale(1 1) rotate(0) translate(4 782.8)">
<title>scholarships</title>
<polygon fill="white" stroke="none" points="-4,4 -4,-782.8 723.11,-782.8 723.11,4 -4,4"/>
<!-- scholarships -->
<g id="node1" class="node">
<title>scholarships</title>
<polygon fill="#efefef" stroke="none" points="242.68,-446.6 242.68,-482.2 470.16,-482.2 470.16,-446.6 242.68,-446.6"/>
<polygon fill="none" stroke="black" points="242.68,-446.6 242.68,-482.2 470.16,-482.2 470.16,-446.6 242.68,-446.6"/>
<text text-anchor="start" x="249.68" y="-460" font-family="Arial Bold" font-size="18.00">scholarships</text>
<text text-anchor="start" x="338.67" y="-460" font-family="Arial" font-size="14.00">    </text>
<text text-anchor="start" x="369.79" y="-460" font-family="Arial" font-size="14.00" fill="#666666">[BASE TABLE]</text>
<polygon fill="none" stroke="black" points="242.68,-415.8 242.68,-446.6 470.16,-446.6 470.16,-415.8 242.68,-415.8"/>
<text text-anchor="start" x="249.68" y="-428" font-family="Arial" font-size="14.00">id </text>
<text text-anchor="start" x="264.47" y="-428" font-family="Arial" font-size="14.00" fill="#666666">[int]</text>
<polygon fill="none" stroke="black" points="242.68,-385 242.68,-415.8 470.16,-415.8 470.16,-385 242.68,-385"/>
<text text-anchor="start" x="249.68" y="-397.2" font-family="Arial" font-size="14.00">name </text>
<text text-anchor="start" x="288.6" y="-397.2" font-family="Arial" font-size="14.00" fill="#666666">[varchar(128)]</text>
<polygon fill="none" stroke="black" points="242.68,-354.2 242.68,-385 470.16,-385 470.16,-354.2 242.68,-354.2"/>
<text text-anchor="start" x="249.68" y="-366.4" font-family="Arial" font-size="14.00">address </text>
<text text-anchor="start" x="303.38" y="-366.4" font-family="Arial" font-size="14.00" fill="#666666">[text]</text>
<polygon fill="none" stroke="black" points="242.68,-323.4 242.68,-354.2 470.16,-354.2 470.16,-323.4 242.68,-323.4"/>
<text text-anchor="start" x="249.68" y="-335.6" font-family="Arial" font-size="14.00">target_detail </text>
<text text-anchor="start" x="330.63" y="-335.6" font-family="Arial" font-size="14.00" fill="#666666">[text]</text>
<polygon fill="none" stroke="black" points="242.68,-292.6 242.68,-323.4 470.16,-323.4 470.16,-292.6 242.68,-292.6"/>
<text text-anchor="start" x="249.68" y="-304.8" font-family="Arial" font-size="14.00">amount_detail </text>
<text text-anchor="start" x="341.53" y="-304.8" font-family="Arial" font-size="14.00" fill="#666666">[text]</text>
<polygon fill="none" stroke="black" points="242.68,-261.8 242.68,-292.6 470.16,-292.6 470.16,-261.8 242.68,-261.8"/>
<text text-anchor="start" x="249.68" y="-274" font-family="Arial" font-size="14.00">type_detail </text>
<text text-anchor="start" x="321.29" y="-274" font-family="Arial" font-size="14.00" fill="#666666">[text]</text>
<polygon fill="none" stroke="black" points="242.68,-231 242.68,-261.8 470.16,-261.8 470.16,-231 242.68,-231"/>
<text text-anchor="start" x="249.68" y="-243.2" font-family="Arial" font-size="14.00">capacity_detail </text>
<text text-anchor="start" x="346.19" y="-243.2" font-family="Arial" font-size="14.00" fill="#666666">[text]</text>
<polygon fill="none" stroke="black" points="242.68,-200.2 242.68,-231 470.16,-231 470.16,-200.2 242.68,-200.2"/>
<text text-anchor="start" x="249.68" y="-212.4" font-family="Arial" font-size="14.00">deadline </text>
<text text-anchor="start" x="306.51" y="-212.4" font-family="Arial" font-size="14.00" fill="#666666">[date]</text>
<polygon fill="none" stroke="black" points="242.68,-169.4 242.68,-200.2 470.16,-200.2 470.16,-169.4 242.68,-169.4"/>
<text text-anchor="start" x="249.68" y="-181.6" font-family="Arial" font-size="14.00">deadline_detail </text>
<text text-anchor="start" x="347.77" y="-181.6" font-family="Arial" font-size="14.00" fill="#666666">[text]</text>
<polygon fill="none" stroke="black" points="242.68,-138.6 242.68,-169.4 470.16,-169.4 470.16,-138.6 242.68,-138.6"/>
<text text-anchor="start" x="249.68" y="-150.8" font-family="Arial" font-size="14.00">contact_point </text>
<text text-anchor="start" x="336.86" y="-150.8" font-family="Arial" font-size="14.00" fill="#666666">[text]</text>
<polygon fill="none" stroke="black" points="242.68,-107.8 242.68,-138.6 470.16,-138.6 470.16,-107.8 242.68,-107.8"/>
<text text-anchor="start" x="249.68" y="-120" font-family="Arial" font-size="14.00">remark </text>
<text text-anchor="start" x="297.13" y="-120" font-family="Arial" font-size="14.00" fill="#666666">[text]</text>
<polygon fill="none" stroke="black" points="242.68,-77 242.68,-107.8 470.16,-107.8 470.16,-77 242.68,-77"/>
<text text-anchor="start" x="249.68" y="-89.2" font-family="Arial" font-size="14.00">posting_date </text>
<text text-anchor="start" x="333.75" y="-89.2" font-family="Arial" font-size="14.00" fill="#666666">[date]</text>
<polygon fill="none" stroke="black" points="242.68,-46.2 242.68,-77 470.16,-77 470.16,-46.2 242.68,-46.2"/>
<text text-anchor="start" x="249.68" y="-58.4" font-family="Arial" font-size="14.00">created_at </text>
<text text-anchor="start" x="319.73" y="-58.4" font-family="Arial" font-size="14.00" fill="#666666">[datetime]</text>
<polygon fill="none" stroke="black" stroke-width="3" points="241.18,-44.7 241.18,-483.7 471.66,-483.7 471.66,-44.7 241.18,-44.7"/>
</g>
<!-- scholarship_target -->
<g id="node2" class="node">
<title>scholarship_target</title>
<polygon fill="#efefef" stroke="none" points="43.2,-700 43.2,-735.6 313.65,-735.6 313.65,-700 43.2,-700"/>
<polygon fill="none" stroke="black" points="43.2,-700 43.2,-735.6 313.65,-735.6 313.65,-700 43.2,-700"/>
<text text-anchor="start" x="50.2" y="-713.4" font-family="Arial Bold" font-size="18.00">scholarship_target</text>
<text text-anchor="start" x="182.16" y="-713.4" font-family="Arial" font-size="14.00">    </text>
<text text-anchor="start" x="213.28" y="-713.4" font-family="Arial" font-size="14.00" fill="#666666">[BASE TABLE]</text>
<polygon fill="none" stroke="black" points="43.2,-669.2 43.2,-700 313.65,-700 313.65,-669.2 43.2,-669.2"/>
<text text-anchor="start" x="50.2" y="-681.4" font-family="Arial" font-size="14.00">id </text>
<text text-anchor="start" x="64.99" y="-681.4" font-family="Arial" font-size="14.00" fill="#666666">[int]</text>
<polygon fill="none" stroke="black" points="43.2,-638.4 43.2,-669.2 313.65,-669.2 313.65,-638.4 43.2,-638.4"/>
<text text-anchor="start" x="50.2" y="-650.6" font-family="Arial" font-size="14.00">scholarship_id </text>
<text text-anchor="start" x="143.59" y="-650.6" font-family="Arial" font-size="14.00" fill="#666666">[int]</text>
<polygon fill="none" stroke="black" points="43.2,-607.6 43.2,-638.4 313.65,-638.4 313.65,-607.6 43.2,-607.6"/>
<text text-anchor="start" x="50.2" y="-619.8" font-family="Arial" font-size="14.00">education_level_id </text>
<text text-anchor="start" x="170.07" y="-619.8" font-family="Arial" font-size="14.00" fill="#666666">[int]</text>
</g>
<!-- scholarship_target&#45;&gt;scholarships -->
<g id="edge1" class="edge">
<title>scholarship_target:scholarship_id&#45;&gt;scholarships:id</title>
<path fill="none" stroke="black" d="M324.64,-652.28C350.51,-643.14 332.58,-594.85 313.65,-564.4 294.97,-534.37 261.34,-558.44 242.68,-528.4 219.89,-491.7 198.48,-431.2 241.68,-431.2"/>
<polygon fill="black" stroke="black" points="324.87,-652.25 314.3,-649.3 319.59,-653.05 315.31,-653.7 315.31,-653.7 315.31,-653.7 319.59,-653.05 315.66,-658.2 324.87,-652.25"/>
<text text-anchor="start" x="321.65" y="-663.8" font-family="Arial" font-size="10.00">FOREIGN KEY (scholarship_id) REFERENCES scholarships (id)</text>
</g>
<!-- user_favorite -->
<g id="node3" class="node">
<title>user_favorite</title>
<polygon fill="#efefef" stroke="none" points="417.7,-700 417.7,-735.6 651.15,-735.6 651.15,-700 417.7,-700"/>
<polygon fill="none" stroke="black" points="417.7,-700 417.7,-735.6 651.15,-735.6 651.15,-700 417.7,-700"/>
<text text-anchor="start" x="424.7" y="-713.4" font-family="Arial Bold" font-size="18.00">user_favorite</text>
<text text-anchor="start" x="519.66" y="-713.4" font-family="Arial" font-size="14.00">    </text>
<text text-anchor="start" x="550.78" y="-713.4" font-family="Arial" font-size="14.00" fill="#666666">[BASE TABLE]</text>
<polygon fill="none" stroke="black" points="417.7,-669.2 417.7,-700 651.15,-700 651.15,-669.2 417.7,-669.2"/>
<text text-anchor="start" x="424.7" y="-681.4" font-family="Arial" font-size="14.00">id </text>
<text text-anchor="start" x="439.49" y="-681.4" font-family="Arial" font-size="14.00" fill="#666666">[int]</text>
<polygon fill="none" stroke="black" points="417.7,-638.4 417.7,-669.2 651.15,-669.2 651.15,-638.4 417.7,-638.4"/>
<text text-anchor="start" x="424.7" y="-650.6" font-family="Arial" font-size="14.00">user_id </text>
<text text-anchor="start" x="474.51" y="-650.6" font-family="Arial" font-size="14.00" fill="#666666">[char(36)]</text>
<polygon fill="none" stroke="black" points="417.7,-607.6 417.7,-638.4 651.15,-638.4 651.15,-607.6 417.7,-607.6"/>
<text text-anchor="start" x="424.7" y="-619.8" font-family="Arial" font-size="14.00">scholarship_id </text>
<text text-anchor="start" x="518.09" y="-619.8" font-family="Arial" font-size="14.00" fill="#666666">[int]</text>
</g>
<!-- user_favorite&#45;&gt;scholarships -->
<g id="edge2" class="edge">
<title>user_favorite:scholarship_id&#45;&gt;scholarships:id</title>
<path fill="none" stroke="black" d="M406.98,-620.33C395.42,-611.64 407.39,-583.58 417.7,-564.4 431.09,-539.49 456.86,-553.35 470.16,-528.4 490.49,-490.28 514.37,-431.2 471.16,-431.2"/>
<polygon fill="black" stroke="black" points="406.73,-620.27 415.19,-627.25 411.88,-621.68 416.06,-622.82 416.06,-622.82 416.06,-622.82 411.88,-621.68 417.57,-618.57 406.73,-620.27"/>
<text text-anchor="start" x="423.7" y="-633" font-family="Arial" font-size="10.00">FOREIGN KEY (scholarship_id) REFERENCES scholarships (id)</text>
</g>
</g>
</svg>
