<?xml version="1.0" encoding="UTF-8" standalone="no"?>
<!DOCTYPE svg PUBLIC "-//W3C//DTD SVG 1.1//EN"
 "http://www.w3.org/Graphics/SVG/1.1/DTD/svg11.dtd">
<!-- Generated by graphviz version 12.1.2 (20240928.0832)
 -->
<!-- Title: scholarship_targets Pages: 1 -->
<svg width="930pt" height="787pt"
 viewBox="0.00 0.00 930.11 786.80" xmlns="http://www.w3.org/2000/svg" xmlns:xlink="http://www.w3.org/1999/xlink">
<g id="graph0" class="graph" transform="scale(1 1) rotate(0) translate(4 782.8)">
<title>scholarship_targets</title>
<polygon fill="white" stroke="none" points="-4,4 -4,-782.8 926.11,-782.8 926.11,4 -4,4"/>
<!-- scholarship_targets -->
<g id="node1" class="node">
<title>scholarship_targets</title>
<polygon fill="#efefef" stroke="none" points="303.41,-697 303.41,-732.6 580.87,-732.6 580.87,-697 303.41,-697"/>
<polygon fill="none" stroke="black" points="303.41,-697 303.41,-732.6 580.87,-732.6 580.87,-697 303.41,-697"/>
<text text-anchor="start" x="310.41" y="-710.4" font-family="Arial Bold" font-size="18.00">scholarship_targets</text>
<text text-anchor="start" x="449.38" y="-710.4" font-family="Arial" font-size="14.00">    </text>
<text text-anchor="start" x="480.49" y="-710.4" font-family="Arial" font-size="14.00" fill="#666666">[BASE TABLE]</text>
<polygon fill="none" stroke="black" points="303.41,-666.2 303.41,-697 580.87,-697 580.87,-666.2 303.41,-666.2"/>
<text text-anchor="start" x="310.41" y="-678.4" font-family="Arial" font-size="14.00">id </text>
<text text-anchor="start" x="325.2" y="-678.4" font-family="Arial" font-size="14.00" fill="#666666">[int]</text>
<polygon fill="none" stroke="black" points="303.41,-635.4 303.41,-666.2 580.87,-666.2 580.87,-635.4 303.41,-635.4"/>
<text text-anchor="start" x="310.41" y="-647.6" font-family="Arial" font-size="14.00">scholarship_id </text>
<text text-anchor="start" x="403.8" y="-647.6" font-family="Arial" font-size="14.00" fill="#666666">[int]</text>
<polygon fill="none" stroke="black" points="303.41,-604.6 303.41,-635.4 580.87,-635.4 580.87,-604.6 303.41,-604.6"/>
<text text-anchor="start" x="310.41" y="-616.8" font-family="Arial" font-size="14.00">education_level_id </text>
<text text-anchor="start" x="430.28" y="-616.8" font-family="Arial" font-size="14.00" fill="#666666">[int]</text>
<polygon fill="none" stroke="black" stroke-width="3" points="301.91,-603.1 301.91,-734.1 582.37,-734.1 582.37,-603.1 301.91,-603.1"/>
</g>
<!-- scholarships -->
<g id="node2" class="node">
<title>scholarships</title>
<polygon fill="#efefef" stroke="none" points="154.4,-443.6 154.4,-479.2 381.88,-479.2 381.88,-443.6 154.4,-443.6"/>
<polygon fill="none" stroke="black" points="154.4,-443.6 154.4,-479.2 381.88,-479.2 381.88,-443.6 154.4,-443.6"/>
<text text-anchor="start" x="161.4" y="-457" font-family="Arial Bold" font-size="18.00">scholarships</text>
<text text-anchor="start" x="250.39" y="-457" font-family="Arial" font-size="14.00">    </text>
<text text-anchor="start" x="281.51" y="-457" font-family="Arial" font-size="14.00" fill="#666666">[BASE TABLE]</text>
<polygon fill="none" stroke="black" points="154.4,-412.8 154.4,-443.6 381.88,-443.6 381.88,-412.8 154.4,-412.8"/>
<text text-anchor="start" x="161.4" y="-425" font-family="Arial" font-size="14.00">id </text>
<text text-anchor="start" x="176.19" y="-425" font-family="Arial" font-size="14.00" fill="#666666">[int]</text>
<polygon fill="none" stroke="black" points="154.4,-382 154.4,-412.8 381.88,-412.8 381.88,-382 154.4,-382"/>
<text text-anchor="start" x="161.4" y="-394.2" font-family="Arial" font-size="14.00">name </text>
<text text-anchor="start" x="200.31" y="-394.2" font-family="Arial" font-size="14.00" fill="#666666">[varchar(128)]</text>
<polygon fill="none" stroke="black" points="154.4,-351.2 154.4,-382 381.88,-382 381.88,-351.2 154.4,-351.2"/>
<text text-anchor="start" x="161.4" y="-363.4" font-family="Arial" font-size="14.00">address </text>
<text text-anchor="start" x="215.1" y="-363.4" font-family="Arial" font-size="14.00" fill="#666666">[text]</text>
<polygon fill="none" stroke="black" points="154.4,-320.4 154.4,-351.2 381.88,-351.2 381.88,-320.4 154.4,-320.4"/>
<text text-anchor="start" x="161.4" y="-332.6" font-family="Arial" font-size="14.00">target_detail </text>
<text text-anchor="start" x="242.34" y="-332.6" font-family="Arial" font-size="14.00" fill="#666666">[text]</text>
<polygon fill="none" stroke="black" points="154.4,-289.6 154.4,-320.4 381.88,-320.4 381.88,-289.6 154.4,-289.6"/>
<text text-anchor="start" x="161.4" y="-301.8" font-family="Arial" font-size="14.00">amount_detail </text>
<text text-anchor="start" x="253.24" y="-301.8" font-family="Arial" font-size="14.00" fill="#666666">[text]</text>
<polygon fill="none" stroke="black" points="154.4,-258.8 154.4,-289.6 381.88,-289.6 381.88,-258.8 154.4,-258.8"/>
<text text-anchor="start" x="161.4" y="-271" font-family="Arial" font-size="14.00">type_detail </text>
<text text-anchor="start" x="233.01" y="-271" font-family="Arial" font-size="14.00" fill="#666666">[text]</text>
<polygon fill="none" stroke="black" points="154.4,-228 154.4,-258.8 381.88,-258.8 381.88,-228 154.4,-228"/>
<text text-anchor="start" x="161.4" y="-240.2" font-family="Arial" font-size="14.00">capacity_detail </text>
<text text-anchor="start" x="257.9" y="-240.2" font-family="Arial" font-size="14.00" fill="#666666">[text]</text>
<polygon fill="none" stroke="black" points="154.4,-197.2 154.4,-228 381.88,-228 381.88,-197.2 154.4,-197.2"/>
<text text-anchor="start" x="161.4" y="-209.4" font-family="Arial" font-size="14.00">deadline </text>
<text text-anchor="start" x="218.23" y="-209.4" font-family="Arial" font-size="14.00" fill="#666666">[date]</text>
<polygon fill="none" stroke="black" points="154.4,-166.4 154.4,-197.2 381.88,-197.2 381.88,-166.4 154.4,-166.4"/>
<text text-anchor="start" x="161.4" y="-178.6" font-family="Arial" font-size="14.00">deadline_detail </text>
<text text-anchor="start" x="259.48" y="-178.6" font-family="Arial" font-size="14.00" fill="#666666">[text]</text>
<polygon fill="none" stroke="black" points="154.4,-135.6 154.4,-166.4 381.88,-166.4 381.88,-135.6 154.4,-135.6"/>
<text text-anchor="start" x="161.4" y="-147.8" font-family="Arial" font-size="14.00">contact_point </text>
<text text-anchor="start" x="248.57" y="-147.8" font-family="Arial" font-size="14.00" fill="#666666">[text]</text>
<polygon fill="none" stroke="black" points="154.4,-104.8 154.4,-135.6 381.88,-135.6 381.88,-104.8 154.4,-104.8"/>
<text text-anchor="start" x="161.4" y="-117" font-family="Arial" font-size="14.00">remark </text>
<text text-anchor="start" x="208.85" y="-117" font-family="Arial" font-size="14.00" fill="#666666">[text]</text>
<polygon fill="none" stroke="black" points="154.4,-74 154.4,-104.8 381.88,-104.8 381.88,-74 154.4,-74"/>
<text text-anchor="start" x="161.4" y="-86.2" font-family="Arial" font-size="14.00">posting_date </text>
<text text-anchor="start" x="245.47" y="-86.2" font-family="Arial" font-size="14.00" fill="#666666">[date]</text>
<polygon fill="none" stroke="black" points="154.4,-43.2 154.4,-74 381.88,-74 381.88,-43.2 154.4,-43.2"/>
<text text-anchor="start" x="161.4" y="-55.4" font-family="Arial" font-size="14.00">created_at </text>
<text text-anchor="start" x="231.45" y="-55.4" font-family="Arial" font-size="14.00" fill="#666666">[datetime]</text>
</g>
<!-- scholarship_targets&#45;&gt;scholarships -->
<g id="edge1" class="edge">
<title>scholarship_targets:scholarship_id&#45;&gt;scholarships:id</title>
<path fill="none" stroke="black" d="M292.42,-649.34C265.06,-640.14 283.15,-589.62 303.41,-558.4 324.3,-526.22 360.99,-554.59 381.88,-522.4 404.67,-487.28 424.75,-428.2 382.88,-428.2"/>
<polygon fill="black" stroke="black" points="292.19,-649.31 301.43,-655.2 297.47,-650.08 301.75,-650.7 301.75,-650.7 301.75,-650.7 297.47,-650.08 302.73,-646.3 292.19,-649.31"/>
<text text-anchor="start" x="7" y="-660.8" font-family="Arial" font-size="10.00">FOREIGN KEY (scholarship_id) REFERENCES scholarships (id)</text>
</g>
<!-- education_levels -->
<g id="node3" class="node">
<title>education_levels</title>
<polygon fill="#efefef" stroke="none" points="486.42,-274.2 486.42,-309.8 745.86,-309.8 745.86,-274.2 486.42,-274.2"/>
<polygon fill="none" stroke="black" points="486.42,-274.2 486.42,-309.8 745.86,-309.8 745.86,-274.2 486.42,-274.2"/>
<text text-anchor="start" x="493.42" y="-287.6" font-family="Arial Bold" font-size="18.00">education_levels</text>
<text text-anchor="start" x="614.37" y="-287.6" font-family="Arial" font-size="14.00">    </text>
<text text-anchor="start" x="645.49" y="-287.6" font-family="Arial" font-size="14.00" fill="#666666">[BASE TABLE]</text>
<polygon fill="none" stroke="black" points="486.42,-243.4 486.42,-274.2 745.86,-274.2 745.86,-243.4 486.42,-243.4"/>
<text text-anchor="start" x="493.42" y="-255.6" font-family="Arial" font-size="14.00">id </text>
<text text-anchor="start" x="508.2" y="-255.6" font-family="Arial" font-size="14.00" fill="#666666">[int]</text>
<polygon fill="none" stroke="black" points="486.42,-212.6 486.42,-243.4 745.86,-243.4 745.86,-212.6 486.42,-212.6"/>
<text text-anchor="start" x="493.42" y="-224.8" font-family="Arial" font-size="14.00">name </text>
<text text-anchor="start" x="532.33" y="-224.8" font-family="Arial" font-size="14.00" fill="#666666">[varchar(8)]</text>
</g>
<!-- scholarship_targets&#45;&gt;education_levels -->
<g id="edge2" class="edge">
<title>scholarship_targets:education_level_id&#45;&gt;education_levels:id</title>
<path fill="none" stroke="black" d="M592.18,-619.46C729.06,-603.96 322.99,-258.8 485.42,-258.8"/>
<polygon fill="black" stroke="black" points="592.19,-619.46 581.97,-615.49 586.86,-619.74 582.53,-619.97 582.53,-619.97 582.53,-619.97 586.86,-619.74 582.44,-624.48 592.19,-619.46"/>
<text text-anchor="start" x="588.87" y="-630" font-family="Arial" font-size="10.00">FOREIGN KEY (education_level_id) REFERENCES education_levels (id)</text>
</g>
</g>
</svg>
