<?xml version="1.0" encoding="UTF-8" standalone="no"?>
<!DOCTYPE svg PUBLIC "-//W3C//DTD SVG 1.1//EN"
 "http://www.w3.org/Graphics/SVG/1.1/DTD/svg11.dtd">
<!-- Generated by graphviz version 12.1.2 (20240928.0832)
 -->
<!-- Title: user_favorites Pages: 1 -->
<svg width="793pt" height="787pt"
 viewBox="0.00 0.00 793.02 786.80" xmlns="http://www.w3.org/2000/svg" xmlns:xlink="http://www.w3.org/1999/xlink">
<g id="graph0" class="graph" transform="scale(1 1) rotate(0) translate(4 782.8)">
<title>user_favorites</title>
<polygon fill="white" stroke="none" points="-4,4 -4,-782.8 789.02,-782.8 789.02,4 -4,4"/>
<!-- user_favorites -->
<g id="node1" class="node">
<title>user_favorites</title>
<polygon fill="#efefef" stroke="none" points="241.16,-697 241.16,-732.6 481.61,-732.6 481.61,-697 241.16,-697"/>
<polygon fill="none" stroke="black" points="241.16,-697 241.16,-732.6 481.61,-732.6 481.61,-697 241.16,-697"/>
<text text-anchor="start" x="248.16" y="-710.4" font-family="Arial Bold" font-size="18.00">user_favorites</text>
<text text-anchor="start" x="350.12" y="-710.4" font-family="Arial" font-size="14.00">    </text>
<text text-anchor="start" x="381.24" y="-710.4" font-family="Arial" font-size="14.00" fill="#666666">[BASE TABLE]</text>
<polygon fill="none" stroke="black" points="241.16,-666.2 241.16,-697 481.61,-697 481.61,-666.2 241.16,-666.2"/>
<text text-anchor="start" x="248.16" y="-678.4" font-family="Arial" font-size="14.00">id </text>
<text text-anchor="start" x="262.94" y="-678.4" font-family="Arial" font-size="14.00" fill="#666666">[int]</text>
<polygon fill="none" stroke="black" points="241.16,-635.4 241.16,-666.2 481.61,-666.2 481.61,-635.4 241.16,-635.4"/>
<text text-anchor="start" x="248.16" y="-647.6" font-family="Arial" font-size="14.00">user_id </text>
<text text-anchor="start" x="297.96" y="-647.6" font-family="Arial" font-size="14.00" fill="#666666">[char(36)]</text>
<polygon fill="none" stroke="black" points="241.16,-604.6 241.16,-635.4 481.61,-635.4 481.61,-604.6 241.16,-604.6"/>
<text text-anchor="start" x="248.16" y="-616.8" font-family="Arial" font-size="14.00">scholarship_id </text>
<text text-anchor="start" x="341.54" y="-616.8" font-family="Arial" font-size="14.00" fill="#666666">[int]</text>
<polygon fill="none" stroke="black" stroke-width="3" points="239.66,-603.1 239.66,-734.1 483.11,-734.1 483.11,-603.1 239.66,-603.1"/>
</g>
<!-- users -->
<g id="node2" class="node">
<title>users</title>
<polygon fill="#efefef" stroke="none" points="120.64,-335.8 120.64,-371.4 296.12,-371.4 296.12,-335.8 120.64,-335.8"/>
<polygon fill="none" stroke="black" points="120.64,-335.8 120.64,-371.4 296.12,-371.4 296.12,-335.8 120.64,-335.8"/>
<text text-anchor="start" x="127.64" y="-349.2" font-family="Arial Bold" font-size="18.00">users</text>
<text text-anchor="start" x="164.63" y="-349.2" font-family="Arial" font-size="14.00">    </text>
<text text-anchor="start" x="195.75" y="-349.2" font-family="Arial" font-size="14.00" fill="#666666">[BASE TABLE]</text>
<polygon fill="none" stroke="black" points="120.64,-305 120.64,-335.8 296.12,-335.8 296.12,-305 120.64,-305"/>
<text text-anchor="start" x="127.64" y="-317.2" font-family="Arial" font-size="14.00">id </text>
<text text-anchor="start" x="142.43" y="-317.2" font-family="Arial" font-size="14.00" fill="#666666">[char(36)]</text>
<polygon fill="none" stroke="black" points="120.64,-274.2 120.64,-305 296.12,-305 296.12,-274.2 120.64,-274.2"/>
<text text-anchor="start" x="127.64" y="-286.4" font-family="Arial" font-size="14.00">email </text>
<text text-anchor="start" x="164.99" y="-286.4" font-family="Arial" font-size="14.00" fill="#666666">[varchar(255)]</text>
<polygon fill="none" stroke="black" points="120.64,-243.4 120.64,-274.2 296.12,-274.2 296.12,-243.4 120.64,-243.4"/>
<text text-anchor="start" x="127.64" y="-255.6" font-family="Arial" font-size="14.00">name </text>
<text text-anchor="start" x="166.55" y="-255.6" font-family="Arial" font-size="14.00" fill="#666666">[varchar(255)]</text>
<polygon fill="none" stroke="black" points="120.64,-212.6 120.64,-243.4 296.12,-243.4 296.12,-212.6 120.64,-212.6"/>
<text text-anchor="start" x="127.64" y="-224.8" font-family="Arial" font-size="14.00">education_level_id </text>
<text text-anchor="start" x="247.51" y="-224.8" font-family="Arial" font-size="14.00" fill="#666666">[int]</text>
<polygon fill="none" stroke="black" points="120.64,-181.8 120.64,-212.6 296.12,-212.6 296.12,-181.8 120.64,-181.8"/>
<text text-anchor="start" x="127.64" y="-194" font-family="Arial" font-size="14.00">created_at </text>
<text text-anchor="start" x="197.69" y="-194" font-family="Arial" font-size="14.00" fill="#666666">[timestamp]</text>
<polygon fill="none" stroke="black" points="120.64,-151 120.64,-181.8 296.12,-181.8 296.12,-151 120.64,-151"/>
<text text-anchor="start" x="127.64" y="-163.2" font-family="Arial" font-size="14.00">updated_at </text>
<text text-anchor="start" x="201.6" y="-163.2" font-family="Arial" font-size="14.00" fill="#666666">[timestamp]</text>
</g>
<!-- user_favorites&#45;&gt;users -->
<g id="edge1" class="edge">
<title>user_favorites:user_id&#45;&gt;users:id</title>
<path fill="none" stroke="black" d="M229.77,-650.17C108.85,-634.23 442.35,-320.4 297.12,-320.4"/>
<polygon fill="black" stroke="black" points="229.84,-650.18 239.55,-655.27 235.17,-650.5 239.49,-650.76 239.49,-650.76 239.49,-650.76 235.17,-650.5 240.09,-646.29 229.84,-650.18"/>
<text text-anchor="start" x="7" y="-660.8" font-family="Arial" font-size="10.00">FOREIGN KEY (user_id) REFERENCES users (id)</text>
</g>
<!-- scholarships -->
<g id="node3" class="node">
<title>scholarships</title>
<polygon fill="#efefef" stroke="none" points="400.64,-443.6 400.64,-479.2 628.12,-479.2 628.12,-443.6 400.64,-443.6"/>
<polygon fill="none" stroke="black" points="400.64,-443.6 400.64,-479.2 628.12,-479.2 628.12,-443.6 400.64,-443.6"/>
<text text-anchor="start" x="407.64" y="-457" font-family="Arial Bold" font-size="18.00">scholarships</text>
<text text-anchor="start" x="496.63" y="-457" font-family="Arial" font-size="14.00">    </text>
<text text-anchor="start" x="527.75" y="-457" font-family="Arial" font-size="14.00" fill="#666666">[BASE TABLE]</text>
<polygon fill="none" stroke="black" points="400.64,-412.8 400.64,-443.6 628.12,-443.6 628.12,-412.8 400.64,-412.8"/>
<text text-anchor="start" x="407.64" y="-425" font-family="Arial" font-size="14.00">id </text>
<text text-anchor="start" x="422.43" y="-425" font-family="Arial" font-size="14.00" fill="#666666">[int]</text>
<polygon fill="none" stroke="black" points="400.64,-382 400.64,-412.8 628.12,-412.8 628.12,-382 400.64,-382"/>
<text text-anchor="start" x="407.64" y="-394.2" font-family="Arial" font-size="14.00">name </text>
<text text-anchor="start" x="446.55" y="-394.2" font-family="Arial" font-size="14.00" fill="#666666">[varchar(128)]</text>
<polygon fill="none" stroke="black" points="400.64,-351.2 400.64,-382 628.12,-382 628.12,-351.2 400.64,-351.2"/>
<text text-anchor="start" x="407.64" y="-363.4" font-family="Arial" font-size="14.00">address </text>
<text text-anchor="start" x="461.34" y="-363.4" font-family="Arial" font-size="14.00" fill="#666666">[text]</text>
<polygon fill="none" stroke="black" points="400.64,-320.4 400.64,-351.2 628.12,-351.2 628.12,-320.4 400.64,-320.4"/>
<text text-anchor="start" x="407.64" y="-332.6" font-family="Arial" font-size="14.00">target_detail </text>
<text text-anchor="start" x="488.59" y="-332.6" font-family="Arial" font-size="14.00" fill="#666666">[text]</text>
<polygon fill="none" stroke="black" points="400.64,-289.6 400.64,-320.4 628.12,-320.4 628.12,-289.6 400.64,-289.6"/>
<text text-anchor="start" x="407.64" y="-301.8" font-family="Arial" font-size="14.00">amount_detail </text>
<text text-anchor="start" x="499.48" y="-301.8" font-family="Arial" font-size="14.00" fill="#666666">[text]</text>
<polygon fill="none" stroke="black" points="400.64,-258.8 400.64,-289.6 628.12,-289.6 628.12,-258.8 400.64,-258.8"/>
<text text-anchor="start" x="407.64" y="-271" font-family="Arial" font-size="14.00">type_detail </text>
<text text-anchor="start" x="479.25" y="-271" font-family="Arial" font-size="14.00" fill="#666666">[text]</text>
<polygon fill="none" stroke="black" points="400.64,-228 400.64,-258.8 628.12,-258.8 628.12,-228 400.64,-228"/>
<text text-anchor="start" x="407.64" y="-240.2" font-family="Arial" font-size="14.00">capacity_detail </text>
<text text-anchor="start" x="504.15" y="-240.2" font-family="Arial" font-size="14.00" fill="#666666">[text]</text>
<polygon fill="none" stroke="black" points="400.64,-197.2 400.64,-228 628.12,-228 628.12,-197.2 400.64,-197.2"/>
<text text-anchor="start" x="407.64" y="-209.4" font-family="Arial" font-size="14.00">deadline </text>
<text text-anchor="start" x="464.47" y="-209.4" font-family="Arial" font-size="14.00" fill="#666666">[date]</text>
<polygon fill="none" stroke="black" points="400.64,-166.4 400.64,-197.2 628.12,-197.2 628.12,-166.4 400.64,-166.4"/>
<text text-anchor="start" x="407.64" y="-178.6" font-family="Arial" font-size="14.00">deadline_detail </text>
<text text-anchor="start" x="505.73" y="-178.6" font-family="Arial" font-size="14.00" fill="#666666">[text]</text>
<polygon fill="none" stroke="black" points="400.64,-135.6 400.64,-166.4 628.12,-166.4 628.12,-135.6 400.64,-135.6"/>
<text text-anchor="start" x="407.64" y="-147.8" font-family="Arial" font-size="14.00">contact_point </text>
<text text-anchor="start" x="494.82" y="-147.8" font-family="Arial" font-size="14.00" fill="#666666">[text]</text>
<polygon fill="none" stroke="black" points="400.64,-104.8 400.64,-135.6 628.12,-135.6 628.12,-104.8 400.64,-104.8"/>
<text text-anchor="start" x="407.64" y="-117" font-family="Arial" font-size="14.00">remark </text>
<text text-anchor="start" x="455.09" y="-117" font-family="Arial" font-size="14.00" fill="#666666">[text]</text>
<polygon fill="none" stroke="black" points="400.64,-74 400.64,-104.8 628.12,-104.8 628.12,-74 400.64,-74"/>
<text text-anchor="start" x="407.64" y="-86.2" font-family="Arial" font-size="14.00">posting_date </text>
<text text-anchor="start" x="491.71" y="-86.2" font-family="Arial" font-size="14.00" fill="#666666">[date]</text>
<polygon fill="none" stroke="black" points="400.64,-43.2 400.64,-74 628.12,-74 628.12,-43.2 400.64,-43.2"/>
<text text-anchor="start" x="407.64" y="-55.4" font-family="Arial" font-size="14.00">created_at </text>
<text text-anchor="start" x="477.69" y="-55.4" font-family="Arial" font-size="14.00" fill="#666666">[datetime]</text>
</g>
<!-- user_favorites&#45;&gt;scholarships -->
<g id="edge2" class="edge">
<title>user_favorites:scholarship_id&#45;&gt;scholarships:id</title>
<path fill="none" stroke="black" d="M492.61,-617.37C505.8,-608.28 494.35,-577.67 481.61,-558.4 459.88,-525.55 422.28,-555.31 400.64,-522.4 377.65,-487.41 357.77,-428.2 399.64,-428.2"/>
<polygon fill="black" stroke="black" points="492.6,-617.37 481.79,-615.56 487.44,-618.73 483.26,-619.83 483.26,-619.83 483.26,-619.83 487.44,-618.73 484.08,-624.27 492.6,-617.37"/>
<text text-anchor="start" x="489.61" y="-630" font-family="Arial" font-size="10.00">FOREIGN KEY (scholarship_id) REFERENCES scholarships (id)</text>
</g>
</g>
</svg>
