<?xml version="1.0" encoding="UTF-8" standalone="no"?>
<!DOCTYPE svg PUBLIC "-//W3C//DTD SVG 1.1//EN"
 "http://www.w3.org/Graphics/SVG/1.1/DTD/svg11.dtd">
<!-- Generated by graphviz version 12.1.2 (20240928.0832)
 -->
<!-- Title: users Pages: 1 -->
<svg width="610pt" height="852pt"
 viewBox="0.00 0.00 609.91 852.40" xmlns="http://www.w3.org/2000/svg" xmlns:xlink="http://www.w3.org/1999/xlink">
<g id="graph0" class="graph" transform="scale(1 1) rotate(0) translate(4 848.4)">
<title>users</title>
<polygon fill="white" stroke="none" points="-4,4 -4,-848.4 605.91,-848.4 605.91,4 -4,4"/>
<!-- users -->
<g id="node1" class="node">
<title>users</title>
<polygon fill="#efefef" stroke="none" points="85.18,-450.6 85.18,-486.2 260.66,-486.2 260.66,-450.6 85.18,-450.6"/>
<polygon fill="none" stroke="black" points="85.18,-450.6 85.18,-486.2 260.66,-486.2 260.66,-450.6 85.18,-450.6"/>
<text text-anchor="start" x="92.18" y="-464" font-family="Arial Bold" font-size="18.00">users</text>
<text text-anchor="start" x="129.17" y="-464" font-family="Arial" font-size="14.00">    </text>
<text text-anchor="start" x="160.29" y="-464" font-family="Arial" font-size="14.00" fill="#666666">[BASE TABLE]</text>
<polygon fill="none" stroke="black" points="85.18,-419.8 85.18,-450.6 260.66,-450.6 260.66,-419.8 85.18,-419.8"/>
<text text-anchor="start" x="92.18" y="-432" font-family="Arial" font-size="14.00">id </text>
<text text-anchor="start" x="106.97" y="-432" font-family="Arial" font-size="14.00" fill="#666666">[int]</text>
<polygon fill="none" stroke="black" points="85.18,-389 85.18,-419.8 260.66,-419.8 260.66,-389 85.18,-389"/>
<text text-anchor="start" x="92.18" y="-401.2" font-family="Arial" font-size="14.00">uuid </text>
<text text-anchor="start" x="122.54" y="-401.2" font-family="Arial" font-size="14.00" fill="#666666">[char(36)]</text>
<polygon fill="none" stroke="black" points="85.18,-358.2 85.18,-389 260.66,-389 260.66,-358.2 85.18,-358.2"/>
<text text-anchor="start" x="92.18" y="-370.4" font-family="Arial" font-size="14.00">email </text>
<text text-anchor="start" x="129.53" y="-370.4" font-family="Arial" font-size="14.00" fill="#666666">[varchar(255)]</text>
<polygon fill="none" stroke="black" points="85.18,-327.4 85.18,-358.2 260.66,-358.2 260.66,-327.4 85.18,-327.4"/>
<text text-anchor="start" x="92.18" y="-339.6" font-family="Arial" font-size="14.00">name </text>
<text text-anchor="start" x="131.09" y="-339.6" font-family="Arial" font-size="14.00" fill="#666666">[varchar(255)]</text>
<polygon fill="none" stroke="black" points="85.18,-296.6 85.18,-327.4 260.66,-327.4 260.66,-296.6 85.18,-296.6"/>
<text text-anchor="start" x="92.18" y="-308.8" font-family="Arial" font-size="14.00">education_level_id </text>
<text text-anchor="start" x="212.05" y="-308.8" font-family="Arial" font-size="14.00" fill="#666666">[int]</text>
<polygon fill="none" stroke="black" points="85.18,-265.8 85.18,-296.6 260.66,-296.6 260.66,-265.8 85.18,-265.8"/>
<text text-anchor="start" x="92.18" y="-278" font-family="Arial" font-size="14.00">created_at </text>
<text text-anchor="start" x="162.23" y="-278" font-family="Arial" font-size="14.00" fill="#666666">[timestamp]</text>
<polygon fill="none" stroke="black" stroke-width="3" points="83.68,-264.3 83.68,-487.7 262.16,-487.7 262.16,-264.3 83.68,-264.3"/>
</g>
<!-- education_levels -->
<g id="node3" class="node">
<title>education_levels</title>
<polygon fill="#efefef" stroke="none" points="43.2,-104.8 43.2,-140.4 302.64,-140.4 302.64,-104.8 43.2,-104.8"/>
<polygon fill="none" stroke="black" points="43.2,-104.8 43.2,-140.4 302.64,-140.4 302.64,-104.8 43.2,-104.8"/>
<text text-anchor="start" x="50.2" y="-118.2" font-family="Arial Bold" font-size="18.00">education_levels</text>
<text text-anchor="start" x="171.16" y="-118.2" font-family="Arial" font-size="14.00">    </text>
<text text-anchor="start" x="202.27" y="-118.2" font-family="Arial" font-size="14.00" fill="#666666">[BASE TABLE]</text>
<polygon fill="none" stroke="black" points="43.2,-74 43.2,-104.8 302.64,-104.8 302.64,-74 43.2,-74"/>
<text text-anchor="start" x="50.2" y="-86.2" font-family="Arial" font-size="14.00">id </text>
<text text-anchor="start" x="64.99" y="-86.2" font-family="Arial" font-size="14.00" fill="#666666">[int]</text>
<polygon fill="none" stroke="black" points="43.2,-43.2 43.2,-74 302.64,-74 302.64,-43.2 43.2,-43.2"/>
<text text-anchor="start" x="50.2" y="-55.4" font-family="Arial" font-size="14.00">name </text>
<text text-anchor="start" x="89.11" y="-55.4" font-family="Arial" font-size="14.00" fill="#666666">[varchar(8)]</text>
</g>
<!-- users&#45;&gt;education_levels -->
<g id="edge2" class="edge">
<title>users:education_level_id&#45;&gt;education_levels:id</title>
<path fill="none" stroke="black" d="M272.06,-311.19C365.12,-296.62 400.78,-89.4 303.64,-89.4"/>
<polygon fill="black" stroke="black" points="271.97,-311.2 261.65,-307.49 266.65,-311.61 262.33,-311.95 262.33,-311.95 262.33,-311.95 266.65,-311.61 262.34,-316.46 271.97,-311.2"/>
<text text-anchor="start" x="268.66" y="-322" font-family="Arial" font-size="10.00">FOREIGN KEY (education_level_id) REFERENCES education_levels (id)</text>
</g>
<!-- user_auth -->
<g id="node2" class="node">
<title>user_auth</title>
<polygon fill="#efefef" stroke="none" points="68.69,-765.6 68.69,-801.2 277.16,-801.2 277.16,-765.6 68.69,-765.6"/>
<polygon fill="none" stroke="black" points="68.69,-765.6 68.69,-801.2 277.16,-801.2 277.16,-765.6 68.69,-765.6"/>
<text text-anchor="start" x="75.69" y="-779" font-family="Arial Bold" font-size="18.00">user_auth</text>
<text text-anchor="start" x="145.67" y="-779" font-family="Arial" font-size="14.00">    </text>
<text text-anchor="start" x="176.78" y="-779" font-family="Arial" font-size="14.00" fill="#666666">[BASE TABLE]</text>
<polygon fill="none" stroke="black" points="68.69,-734.8 68.69,-765.6 277.16,-765.6 277.16,-734.8 68.69,-734.8"/>
<text text-anchor="start" x="75.69" y="-747" font-family="Arial" font-size="14.00">id </text>
<text text-anchor="start" x="90.47" y="-747" font-family="Arial" font-size="14.00" fill="#666666">[int]</text>
<polygon fill="none" stroke="black" points="68.69,-704 68.69,-734.8 277.16,-734.8 277.16,-704 68.69,-704"/>
<text text-anchor="start" x="75.69" y="-716.2" font-family="Arial" font-size="14.00">user_id </text>
<text text-anchor="start" x="125.49" y="-716.2" font-family="Arial" font-size="14.00" fill="#666666">[int]</text>
<polygon fill="none" stroke="black" points="68.69,-673.2 68.69,-704 277.16,-704 277.16,-673.2 68.69,-673.2"/>
<text text-anchor="start" x="75.69" y="-685.4" font-family="Arial" font-size="14.00">sub </text>
<text text-anchor="start" x="102.15" y="-685.4" font-family="Arial" font-size="14.00" fill="#666666">[varchar(255)]</text>
<polygon fill="none" stroke="black" points="68.69,-642.4 68.69,-673.2 277.16,-673.2 277.16,-642.4 68.69,-642.4"/>
<text text-anchor="start" x="75.69" y="-654.6" font-family="Arial" font-size="14.00">provider </text>
<text text-anchor="start" x="130.16" y="-654.6" font-family="Arial" font-size="14.00" fill="#666666">[varchar(64)]</text>
<polygon fill="none" stroke="black" points="68.69,-611.6 68.69,-642.4 277.16,-642.4 277.16,-611.6 68.69,-611.6"/>
<text text-anchor="start" x="75.69" y="-623.8" font-family="Arial" font-size="14.00">created_at </text>
<text text-anchor="start" x="145.74" y="-623.8" font-family="Arial" font-size="14.00" fill="#666666">[timestamp]</text>
</g>
<!-- user_auth&#45;&gt;users -->
<g id="edge1" class="edge">
<title>user_auth:user_id&#45;&gt;users:id</title>
<path fill="none" stroke="black" d="M288.56,-718.73C403.66,-703.53 384.6,-435.2 261.66,-435.2"/>
<polygon fill="black" stroke="black" points="288.47,-718.74 278.2,-714.89 283.15,-719.08 278.82,-719.36 278.82,-719.36 278.82,-719.36 283.15,-719.08 278.78,-723.87 288.47,-718.74"/>
<text text-anchor="start" x="285.16" y="-729.4" font-family="Arial" font-size="10.00">FOREIGN KEY (user_id) REFERENCES users (id)</text>
</g>
</g>
</svg>
