<?xml version="1.0" encoding="UTF-8" standalone="no"?>
<!DOCTYPE svg PUBLIC "-//W3C//DTD SVG 1.1//EN"
 "http://www.w3.org/Graphics/SVG/1.1/DTD/svg11.dtd">
<!-- Generated by graphviz version 12.1.2 (20240928.0832)
 -->
<!-- Title: users Pages: 1 -->
<svg width="610pt" height="852pt"
 viewBox="0.00 0.00 609.91 852.40" xmlns="http://www.w3.org/2000/svg" xmlns:xlink="http://www.w3.org/1999/xlink">
<g id="graph0" class="graph" transform="scale(1 1) rotate(0) translate(4 848.4)">
<title>users</title>
<polygon fill="white" stroke="none" points="-4,4 -4,-848.4 605.91,-848.4 605.91,4 -4,4"/>
<!-- users -->
<g id="node1" class="node">
<title>users</title>
<polygon fill="#efefef" stroke="none" points="85.18,-512.2 85.18,-547.8 260.66,-547.8 260.66,-512.2 85.18,-512.2"/>
<polygon fill="none" stroke="black" points="85.18,-512.2 85.18,-547.8 260.66,-547.8 260.66,-512.2 85.18,-512.2"/>
<text text-anchor="start" x="92.18" y="-525.6" font-family="Arial Bold" font-size="18.00">users</text>
<text text-anchor="start" x="129.17" y="-525.6" font-family="Arial" font-size="14.00">    </text>
<text text-anchor="start" x="160.29" y="-525.6" font-family="Arial" font-size="14.00" fill="#666666">[BASE TABLE]</text>
<polygon fill="none" stroke="black" points="85.18,-481.4 85.18,-512.2 260.66,-512.2 260.66,-481.4 85.18,-481.4"/>
<text text-anchor="start" x="92.18" y="-493.6" font-family="Arial" font-size="14.00">id </text>
<text text-anchor="start" x="106.97" y="-493.6" font-family="Arial" font-size="14.00" fill="#666666">[varchar(64)]</text>
<polygon fill="none" stroke="black" points="85.18,-450.6 85.18,-481.4 260.66,-481.4 260.66,-450.6 85.18,-450.6"/>
<text text-anchor="start" x="92.18" y="-462.8" font-family="Arial" font-size="14.00">email </text>
<text text-anchor="start" x="129.53" y="-462.8" font-family="Arial" font-size="14.00" fill="#666666">[varchar(255)]</text>
<polygon fill="none" stroke="black" points="85.18,-419.8 85.18,-450.6 260.66,-450.6 260.66,-419.8 85.18,-419.8"/>
<text text-anchor="start" x="92.18" y="-432" font-family="Arial" font-size="14.00">name </text>
<text text-anchor="start" x="131.09" y="-432" font-family="Arial" font-size="14.00" fill="#666666">[varchar(255)]</text>
<polygon fill="none" stroke="black" points="85.18,-389 85.18,-419.8 260.66,-419.8 260.66,-389 85.18,-389"/>
<text text-anchor="start" x="92.18" y="-401.2" font-family="Arial" font-size="14.00">education_level_id </text>
<text text-anchor="start" x="212.05" y="-401.2" font-family="Arial" font-size="14.00" fill="#666666">[int]</text>
<polygon fill="none" stroke="black" points="85.18,-358.2 85.18,-389 260.66,-389 260.66,-358.2 85.18,-358.2"/>
<text text-anchor="start" x="92.18" y="-370.4" font-family="Arial" font-size="14.00">grade </text>
<text text-anchor="start" x="131.88" y="-370.4" font-family="Arial" font-size="14.00" fill="#666666">[int]</text>
<polygon fill="none" stroke="black" points="85.18,-327.4 85.18,-358.2 260.66,-358.2 260.66,-327.4 85.18,-327.4"/>
<text text-anchor="start" x="92.18" y="-339.6" font-family="Arial" font-size="14.00">accept_email </text>
<text text-anchor="start" x="178.56" y="-339.6" font-family="Arial" font-size="14.00" fill="#666666">[tinyint(1)]</text>
<polygon fill="none" stroke="black" points="85.18,-296.6 85.18,-327.4 260.66,-327.4 260.66,-296.6 85.18,-296.6"/>
<text text-anchor="start" x="92.18" y="-308.8" font-family="Arial" font-size="14.00">created_at </text>
<text text-anchor="start" x="162.23" y="-308.8" font-family="Arial" font-size="14.00" fill="#666666">[timestamp]</text>
<polygon fill="none" stroke="black" points="85.18,-265.8 85.18,-296.6 260.66,-296.6 260.66,-265.8 85.18,-265.8"/>
<text text-anchor="start" x="92.18" y="-278" font-family="Arial" font-size="14.00">updated_at </text>
<text text-anchor="start" x="166.14" y="-278" font-family="Arial" font-size="14.00" fill="#666666">[timestamp]</text>
<polygon fill="none" stroke="black" stroke-width="3" points="83.68,-264.3 83.68,-549.3 262.16,-549.3 262.16,-264.3 83.68,-264.3"/>
</g>
<!-- education_levels -->
<g id="node3" class="node">
<title>education_levels</title>
<polygon fill="#efefef" stroke="none" points="43.2,-104.8 43.2,-140.4 302.64,-140.4 302.64,-104.8 43.2,-104.8"/>
<polygon fill="none" stroke="black" points="43.2,-104.8 43.2,-140.4 302.64,-140.4 302.64,-104.8 43.2,-104.8"/>
<text text-anchor="start" x="50.2" y="-118.2" font-family="Arial Bold" font-size="18.00">education_levels</text>
<text text-anchor="start" x="171.16" y="-118.2" font-family="Arial" font-size="14.00">    </text>
<text text-anchor="start" x="202.27" y="-118.2" font-family="Arial" font-size="14.00" fill="#666666">[BASE TABLE]</text>
<polygon fill="none" stroke="black" points="43.2,-74 43.2,-104.8 302.64,-104.8 302.64,-74 43.2,-74"/>
<text text-anchor="start" x="50.2" y="-86.2" font-family="Arial" font-size="14.00">id </text>
<text text-anchor="start" x="64.99" y="-86.2" font-family="Arial" font-size="14.00" fill="#666666">[int]</text>
<polygon fill="none" stroke="black" points="43.2,-43.2 43.2,-74 302.64,-74 302.64,-43.2 43.2,-43.2"/>
<text text-anchor="start" x="50.2" y="-55.4" font-family="Arial" font-size="14.00">name </text>
<text text-anchor="start" x="89.11" y="-55.4" font-family="Arial" font-size="14.00" fill="#666666">[varchar(8)]</text>
</g>
<!-- users&#45;&gt;education_levels -->
<g id="edge2" class="edge">
<title>users:education_level_id&#45;&gt;education_levels:id</title>
<path fill="none" stroke="black" d="M271.79,-402.22C336.11,-374.39 370.82,-89.4 303.64,-89.4"/>
<polygon fill="black" stroke="black" points="271.77,-402.23 261.04,-399.93 266.55,-403.35 262.32,-404.26 262.32,-404.26 262.32,-404.26 266.55,-403.35 262.94,-408.73 271.77,-402.23"/>
<text text-anchor="start" x="268.66" y="-414.4" font-family="Arial" font-size="10.00">FOREIGN KEY (education_level_id) REFERENCES education_levels (id)</text>
</g>
<!-- user_favorites -->
<g id="node2" class="node">
<title>user_favorites</title>
<polygon fill="#efefef" stroke="none" points="52.7,-765.6 52.7,-801.2 293.15,-801.2 293.15,-765.6 52.7,-765.6"/>
<polygon fill="none" stroke="black" points="52.7,-765.6 52.7,-801.2 293.15,-801.2 293.15,-765.6 52.7,-765.6"/>
<text text-anchor="start" x="59.7" y="-779" font-family="Arial Bold" font-size="18.00">user_favorites</text>
<text text-anchor="start" x="161.66" y="-779" font-family="Arial" font-size="14.00">    </text>
<text text-anchor="start" x="192.78" y="-779" font-family="Arial" font-size="14.00" fill="#666666">[BASE TABLE]</text>
<polygon fill="none" stroke="black" points="52.7,-734.8 52.7,-765.6 293.15,-765.6 293.15,-734.8 52.7,-734.8"/>
<text text-anchor="start" x="59.7" y="-747" font-family="Arial" font-size="14.00">id </text>
<text text-anchor="start" x="74.48" y="-747" font-family="Arial" font-size="14.00" fill="#666666">[int]</text>
<polygon fill="none" stroke="black" points="52.7,-704 52.7,-734.8 293.15,-734.8 293.15,-704 52.7,-704"/>
<text text-anchor="start" x="59.7" y="-716.2" font-family="Arial" font-size="14.00">user_id </text>
<text text-anchor="start" x="109.5" y="-716.2" font-family="Arial" font-size="14.00" fill="#666666">[char(36)]</text>
<polygon fill="none" stroke="black" points="52.7,-673.2 52.7,-704 293.15,-704 293.15,-673.2 52.7,-673.2"/>
<text text-anchor="start" x="59.7" y="-685.4" font-family="Arial" font-size="14.00">scholarship_id </text>
<text text-anchor="start" x="153.08" y="-685.4" font-family="Arial" font-size="14.00" fill="#666666">[int]</text>
</g>
<!-- user_favorites&#45;&gt;users -->
<g id="edge1" class="edge">
<title>user_favorites:user_id&#45;&gt;users:id</title>
<path fill="none" stroke="black" d="M304.47,-718.55C391.69,-703.6 358.03,-496.8 261.66,-496.8"/>
<polygon fill="black" stroke="black" points="304.45,-718.55 294.11,-714.89 299.13,-718.99 294.81,-719.35 294.81,-719.35 294.81,-719.35 299.13,-718.99 294.85,-723.86 304.45,-718.55"/>
<text text-anchor="start" x="301.15" y="-729.4" font-family="Arial" font-size="10.00">FOREIGN KEY (user_id) REFERENCES users (id)</text>
</g>
</g>
</svg>
