<?xml version="1.0" encoding="UTF-8" standalone="no"?>
<!DOCTYPE svg PUBLIC "-//W3C//DTD SVG 1.1//EN"
 "http://www.w3.org/Graphics/SVG/1.1/DTD/svg11.dtd">
<!-- Generated by graphviz version 12.1.2 (20240928.0832)
 -->
<!-- Title: user_auth Pages: 1 -->
<svg width="504pt" height="633pt"
 viewBox="0.00 0.00 503.82 632.80" xmlns="http://www.w3.org/2000/svg" xmlns:xlink="http://www.w3.org/1999/xlink">
<g id="graph0" class="graph" transform="scale(1 1) rotate(0) translate(4 628.8)">
<title>user_auth</title>
<polygon fill="white" stroke="none" points="-4,4 -4,-628.8 499.82,-628.8 499.82,4 -4,4"/>
<!-- user_auth -->
<g id="node1" class="node">
<title>user_auth</title>
<polygon fill="#efefef" stroke="none" points="46.2,-543 46.2,-578.6 254.67,-578.6 254.67,-543 46.2,-543"/>
<polygon fill="none" stroke="black" points="46.2,-543 46.2,-578.6 254.67,-578.6 254.67,-543 46.2,-543"/>
<text text-anchor="start" x="53.2" y="-556.4" font-family="Arial Bold" font-size="18.00">user_auth</text>
<text text-anchor="start" x="123.18" y="-556.4" font-family="Arial" font-size="14.00">    </text>
<text text-anchor="start" x="154.3" y="-556.4" font-family="Arial" font-size="14.00" fill="#666666">[BASE TABLE]</text>
<polygon fill="none" stroke="black" points="46.2,-512.2 46.2,-543 254.67,-543 254.67,-512.2 46.2,-512.2"/>
<text text-anchor="start" x="53.2" y="-524.4" font-family="Arial" font-size="14.00">id </text>
<text text-anchor="start" x="67.99" y="-524.4" font-family="Arial" font-size="14.00" fill="#666666">[int]</text>
<polygon fill="none" stroke="black" points="46.2,-481.4 46.2,-512.2 254.67,-512.2 254.67,-481.4 46.2,-481.4"/>
<text text-anchor="start" x="53.2" y="-493.6" font-family="Arial" font-size="14.00">user_id </text>
<text text-anchor="start" x="103.01" y="-493.6" font-family="Arial" font-size="14.00" fill="#666666">[int]</text>
<polygon fill="none" stroke="black" points="46.2,-450.6 46.2,-481.4 254.67,-481.4 254.67,-450.6 46.2,-450.6"/>
<text text-anchor="start" x="53.2" y="-462.8" font-family="Arial" font-size="14.00">sub </text>
<text text-anchor="start" x="79.66" y="-462.8" font-family="Arial" font-size="14.00" fill="#666666">[varchar(255)]</text>
<polygon fill="none" stroke="black" points="46.2,-419.8 46.2,-450.6 254.67,-450.6 254.67,-419.8 46.2,-419.8"/>
<text text-anchor="start" x="53.2" y="-432" font-family="Arial" font-size="14.00">provider </text>
<text text-anchor="start" x="107.67" y="-432" font-family="Arial" font-size="14.00" fill="#666666">[varchar(64)]</text>
<polygon fill="none" stroke="black" points="46.2,-389 46.2,-419.8 254.67,-419.8 254.67,-389 46.2,-389"/>
<text text-anchor="start" x="53.2" y="-401.2" font-family="Arial" font-size="14.00">created_at </text>
<text text-anchor="start" x="123.25" y="-401.2" font-family="Arial" font-size="14.00" fill="#666666">[timestamp]</text>
<polygon fill="none" stroke="black" stroke-width="3" points="44.7,-387.5 44.7,-580.1 256.17,-580.1 256.17,-387.5 44.7,-387.5"/>
</g>
<!-- users -->
<g id="node2" class="node">
<title>users</title>
<polygon fill="#efefef" stroke="none" points="62.69,-228 62.69,-263.6 238.18,-263.6 238.18,-228 62.69,-228"/>
<polygon fill="none" stroke="black" points="62.69,-228 62.69,-263.6 238.18,-263.6 238.18,-228 62.69,-228"/>
<text text-anchor="start" x="69.69" y="-241.4" font-family="Arial Bold" font-size="18.00">users</text>
<text text-anchor="start" x="106.69" y="-241.4" font-family="Arial" font-size="14.00">    </text>
<text text-anchor="start" x="137.8" y="-241.4" font-family="Arial" font-size="14.00" fill="#666666">[BASE TABLE]</text>
<polygon fill="none" stroke="black" points="62.69,-197.2 62.69,-228 238.18,-228 238.18,-197.2 62.69,-197.2"/>
<text text-anchor="start" x="69.69" y="-209.4" font-family="Arial" font-size="14.00">id </text>
<text text-anchor="start" x="84.48" y="-209.4" font-family="Arial" font-size="14.00" fill="#666666">[int]</text>
<polygon fill="none" stroke="black" points="62.69,-166.4 62.69,-197.2 238.18,-197.2 238.18,-166.4 62.69,-166.4"/>
<text text-anchor="start" x="69.69" y="-178.6" font-family="Arial" font-size="14.00">uuid </text>
<text text-anchor="start" x="100.05" y="-178.6" font-family="Arial" font-size="14.00" fill="#666666">[char(36)]</text>
<polygon fill="none" stroke="black" points="62.69,-135.6 62.69,-166.4 238.18,-166.4 238.18,-135.6 62.69,-135.6"/>
<text text-anchor="start" x="69.69" y="-147.8" font-family="Arial" font-size="14.00">email </text>
<text text-anchor="start" x="107.04" y="-147.8" font-family="Arial" font-size="14.00" fill="#666666">[varchar(255)]</text>
<polygon fill="none" stroke="black" points="62.69,-104.8 62.69,-135.6 238.18,-135.6 238.18,-104.8 62.69,-104.8"/>
<text text-anchor="start" x="69.69" y="-117" font-family="Arial" font-size="14.00">name </text>
<text text-anchor="start" x="108.6" y="-117" font-family="Arial" font-size="14.00" fill="#666666">[varchar(255)]</text>
<polygon fill="none" stroke="black" points="62.69,-74 62.69,-104.8 238.18,-104.8 238.18,-74 62.69,-74"/>
<text text-anchor="start" x="69.69" y="-86.2" font-family="Arial" font-size="14.00">education_level_id </text>
<text text-anchor="start" x="189.56" y="-86.2" font-family="Arial" font-size="14.00" fill="#666666">[int]</text>
<polygon fill="none" stroke="black" points="62.69,-43.2 62.69,-74 238.18,-74 238.18,-43.2 62.69,-43.2"/>
<text text-anchor="start" x="69.69" y="-55.4" font-family="Arial" font-size="14.00">created_at </text>
<text text-anchor="start" x="139.74" y="-55.4" font-family="Arial" font-size="14.00" fill="#666666">[timestamp]</text>
</g>
<!-- user_auth&#45;&gt;users -->
<g id="edge1" class="edge">
<title>user_auth:user_id&#45;&gt;users:id</title>
<path fill="none" stroke="black" d="M265.66,-494.17C316.91,-465.52 298.85,-212.6 239.18,-212.6"/>
<polygon fill="black" stroke="black" points="265.66,-494.17 254.84,-492.36 260.5,-495.53 256.31,-496.63 256.31,-496.63 256.31,-496.63 260.5,-495.53 257.14,-501.07 265.66,-494.17"/>
<text text-anchor="start" x="262.67" y="-506.8" font-family="Arial" font-size="10.00">FOREIGN KEY (user_id) REFERENCES users (id)</text>
</g>
</g>
</svg>
