<?xml version="1.0" encoding="UTF-8" standalone="no"?>
<!DOCTYPE svg PUBLIC "-//W3C//DTD SVG 1.1//EN"
 "http://www.w3.org/Graphics/SVG/1.1/DTD/svg11.dtd">
<!-- Generated by graphviz version 12.1.2 (20240928.0832)
 -->
<!-- Title: user_favorite Pages: 1 -->
<svg width="786pt" height="787pt"
 viewBox="0.00 0.00 786.02 786.80" xmlns="http://www.w3.org/2000/svg" xmlns:xlink="http://www.w3.org/1999/xlink">
<g id="graph0" class="graph" transform="scale(1 1) rotate(0) translate(4 782.8)">
<title>user_favorite</title>
<polygon fill="white" stroke="none" points="-4,4 -4,-782.8 782.02,-782.8 782.02,4 -4,4"/>
<!-- user_favorite -->
<g id="node1" class="node">
<title>user_favorite</title>
<polygon fill="#efefef" stroke="none" points="241.16,-697 241.16,-732.6 474.6,-732.6 474.6,-697 241.16,-697"/>
<polygon fill="none" stroke="black" points="241.16,-697 241.16,-732.6 474.6,-732.6 474.6,-697 241.16,-697"/>
<text text-anchor="start" x="248.16" y="-710.4" font-family="Arial Bold" font-size="18.00">user_favorite</text>
<text text-anchor="start" x="343.11" y="-710.4" font-family="Arial" font-size="14.00">    </text>
<text text-anchor="start" x="374.23" y="-710.4" font-family="Arial" font-size="14.00" fill="#666666">[BASE TABLE]</text>
<polygon fill="none" stroke="black" points="241.16,-666.2 241.16,-697 474.6,-697 474.6,-666.2 241.16,-666.2"/>
<text text-anchor="start" x="248.16" y="-678.4" font-family="Arial" font-size="14.00">id </text>
<text text-anchor="start" x="262.94" y="-678.4" font-family="Arial" font-size="14.00" fill="#666666">[int]</text>
<polygon fill="none" stroke="black" points="241.16,-635.4 241.16,-666.2 474.6,-666.2 474.6,-635.4 241.16,-635.4"/>
<text text-anchor="start" x="248.16" y="-647.6" font-family="Arial" font-size="14.00">user_id </text>
<text text-anchor="start" x="297.96" y="-647.6" font-family="Arial" font-size="14.00" fill="#666666">[char(36)]</text>
<polygon fill="none" stroke="black" points="241.16,-604.6 241.16,-635.4 474.6,-635.4 474.6,-604.6 241.16,-604.6"/>
<text text-anchor="start" x="248.16" y="-616.8" font-family="Arial" font-size="14.00">scholarship_id </text>
<text text-anchor="start" x="341.54" y="-616.8" font-family="Arial" font-size="14.00" fill="#666666">[int]</text>
<polygon fill="none" stroke="black" stroke-width="3" points="239.66,-603.1 239.66,-734.1 476.1,-734.1 476.1,-603.1 239.66,-603.1"/>
</g>
<!-- users -->
<g id="node2" class="node">
<title>users</title>
<polygon fill="#efefef" stroke="none" points="117.14,-335.8 117.14,-371.4 292.62,-371.4 292.62,-335.8 117.14,-335.8"/>
<polygon fill="none" stroke="black" points="117.14,-335.8 117.14,-371.4 292.62,-371.4 292.62,-335.8 117.14,-335.8"/>
<text text-anchor="start" x="124.14" y="-349.2" font-family="Arial Bold" font-size="18.00">users</text>
<text text-anchor="start" x="161.13" y="-349.2" font-family="Arial" font-size="14.00">    </text>
<text text-anchor="start" x="192.25" y="-349.2" font-family="Arial" font-size="14.00" fill="#666666">[BASE TABLE]</text>
<polygon fill="none" stroke="black" points="117.14,-305 117.14,-335.8 292.62,-335.8 292.62,-305 117.14,-305"/>
<text text-anchor="start" x="124.14" y="-317.2" font-family="Arial" font-size="14.00">id </text>
<text text-anchor="start" x="138.93" y="-317.2" font-family="Arial" font-size="14.00" fill="#666666">[char(36)]</text>
<polygon fill="none" stroke="black" points="117.14,-274.2 117.14,-305 292.62,-305 292.62,-274.2 117.14,-274.2"/>
<text text-anchor="start" x="124.14" y="-286.4" font-family="Arial" font-size="14.00">email </text>
<text text-anchor="start" x="161.48" y="-286.4" font-family="Arial" font-size="14.00" fill="#666666">[varchar(255)]</text>
<polygon fill="none" stroke="black" points="117.14,-243.4 117.14,-274.2 292.62,-274.2 292.62,-243.4 117.14,-243.4"/>
<text text-anchor="start" x="124.14" y="-255.6" font-family="Arial" font-size="14.00">name </text>
<text text-anchor="start" x="163.05" y="-255.6" font-family="Arial" font-size="14.00" fill="#666666">[varchar(255)]</text>
<polygon fill="none" stroke="black" points="117.14,-212.6 117.14,-243.4 292.62,-243.4 292.62,-212.6 117.14,-212.6"/>
<text text-anchor="start" x="124.14" y="-224.8" font-family="Arial" font-size="14.00">education_level_id </text>
<text text-anchor="start" x="244.01" y="-224.8" font-family="Arial" font-size="14.00" fill="#666666">[int]</text>
<polygon fill="none" stroke="black" points="117.14,-181.8 117.14,-212.6 292.62,-212.6 292.62,-181.8 117.14,-181.8"/>
<text text-anchor="start" x="124.14" y="-194" font-family="Arial" font-size="14.00">created_at </text>
<text text-anchor="start" x="194.19" y="-194" font-family="Arial" font-size="14.00" fill="#666666">[timestamp]</text>
<polygon fill="none" stroke="black" points="117.14,-151 117.14,-181.8 292.62,-181.8 292.62,-151 117.14,-151"/>
<text text-anchor="start" x="124.14" y="-163.2" font-family="Arial" font-size="14.00">updated_at </text>
<text text-anchor="start" x="198.1" y="-163.2" font-family="Arial" font-size="14.00" fill="#666666">[timestamp]</text>
</g>
<!-- user_favorite&#45;&gt;users -->
<g id="edge1" class="edge">
<title>user_favorite:user_id&#45;&gt;users:id</title>
<path fill="none" stroke="black" d="M229.78,-650.17C108.9,-634.23 438.6,-320.4 293.62,-320.4"/>
<polygon fill="black" stroke="black" points="229.84,-650.18 239.55,-655.27 235.17,-650.5 239.49,-650.76 239.49,-650.76 239.49,-650.76 235.17,-650.5 240.1,-646.29 229.84,-650.18"/>
<text text-anchor="start" x="7" y="-660.8" font-family="Arial" font-size="10.00">FOREIGN KEY (user_id) REFERENCES users (id)</text>
</g>
<!-- scholarships -->
<g id="node3" class="node">
<title>scholarships</title>
<polygon fill="#efefef" stroke="none" points="397.14,-443.6 397.14,-479.2 624.62,-479.2 624.62,-443.6 397.14,-443.6"/>
<polygon fill="none" stroke="black" points="397.14,-443.6 397.14,-479.2 624.62,-479.2 624.62,-443.6 397.14,-443.6"/>
<text text-anchor="start" x="404.14" y="-457" font-family="Arial Bold" font-size="18.00">scholarships</text>
<text text-anchor="start" x="493.13" y="-457" font-family="Arial" font-size="14.00">    </text>
<text text-anchor="start" x="524.25" y="-457" font-family="Arial" font-size="14.00" fill="#666666">[BASE TABLE]</text>
<polygon fill="none" stroke="black" points="397.14,-412.8 397.14,-443.6 624.62,-443.6 624.62,-412.8 397.14,-412.8"/>
<text text-anchor="start" x="404.14" y="-425" font-family="Arial" font-size="14.00">id </text>
<text text-anchor="start" x="418.93" y="-425" font-family="Arial" font-size="14.00" fill="#666666">[int]</text>
<polygon fill="none" stroke="black" points="397.14,-382 397.14,-412.8 624.62,-412.8 624.62,-382 397.14,-382"/>
<text text-anchor="start" x="404.14" y="-394.2" font-family="Arial" font-size="14.00">name </text>
<text text-anchor="start" x="443.05" y="-394.2" font-family="Arial" font-size="14.00" fill="#666666">[varchar(128)]</text>
<polygon fill="none" stroke="black" points="397.14,-351.2 397.14,-382 624.62,-382 624.62,-351.2 397.14,-351.2"/>
<text text-anchor="start" x="404.14" y="-363.4" font-family="Arial" font-size="14.00">address </text>
<text text-anchor="start" x="457.84" y="-363.4" font-family="Arial" font-size="14.00" fill="#666666">[text]</text>
<polygon fill="none" stroke="black" points="397.14,-320.4 397.14,-351.2 624.62,-351.2 624.62,-320.4 397.14,-320.4"/>
<text text-anchor="start" x="404.14" y="-332.6" font-family="Arial" font-size="14.00">target_detail </text>
<text text-anchor="start" x="485.09" y="-332.6" font-family="Arial" font-size="14.00" fill="#666666">[text]</text>
<polygon fill="none" stroke="black" points="397.14,-289.6 397.14,-320.4 624.62,-320.4 624.62,-289.6 397.14,-289.6"/>
<text text-anchor="start" x="404.14" y="-301.8" font-family="Arial" font-size="14.00">amount_detail </text>
<text text-anchor="start" x="495.98" y="-301.8" font-family="Arial" font-size="14.00" fill="#666666">[text]</text>
<polygon fill="none" stroke="black" points="397.14,-258.8 397.14,-289.6 624.62,-289.6 624.62,-258.8 397.14,-258.8"/>
<text text-anchor="start" x="404.14" y="-271" font-family="Arial" font-size="14.00">type_detail </text>
<text text-anchor="start" x="475.75" y="-271" font-family="Arial" font-size="14.00" fill="#666666">[text]</text>
<polygon fill="none" stroke="black" points="397.14,-228 397.14,-258.8 624.62,-258.8 624.62,-228 397.14,-228"/>
<text text-anchor="start" x="404.14" y="-240.2" font-family="Arial" font-size="14.00">capacity_detail </text>
<text text-anchor="start" x="500.64" y="-240.2" font-family="Arial" font-size="14.00" fill="#666666">[text]</text>
<polygon fill="none" stroke="black" points="397.14,-197.2 397.14,-228 624.62,-228 624.62,-197.2 397.14,-197.2"/>
<text text-anchor="start" x="404.14" y="-209.4" font-family="Arial" font-size="14.00">deadline </text>
<text text-anchor="start" x="460.97" y="-209.4" font-family="Arial" font-size="14.00" fill="#666666">[date]</text>
<polygon fill="none" stroke="black" points="397.14,-166.4 397.14,-197.2 624.62,-197.2 624.62,-166.4 397.14,-166.4"/>
<text text-anchor="start" x="404.14" y="-178.6" font-family="Arial" font-size="14.00">deadline_detail </text>
<text text-anchor="start" x="502.22" y="-178.6" font-family="Arial" font-size="14.00" fill="#666666">[text]</text>
<polygon fill="none" stroke="black" points="397.14,-135.6 397.14,-166.4 624.62,-166.4 624.62,-135.6 397.14,-135.6"/>
<text text-anchor="start" x="404.14" y="-147.8" font-family="Arial" font-size="14.00">contact_point </text>
<text text-anchor="start" x="491.31" y="-147.8" font-family="Arial" font-size="14.00" fill="#666666">[text]</text>
<polygon fill="none" stroke="black" points="397.14,-104.8 397.14,-135.6 624.62,-135.6 624.62,-104.8 397.14,-104.8"/>
<text text-anchor="start" x="404.14" y="-117" font-family="Arial" font-size="14.00">remark </text>
<text text-anchor="start" x="451.59" y="-117" font-family="Arial" font-size="14.00" fill="#666666">[text]</text>
<polygon fill="none" stroke="black" points="397.14,-74 397.14,-104.8 624.62,-104.8 624.62,-74 397.14,-74"/>
<text text-anchor="start" x="404.14" y="-86.2" font-family="Arial" font-size="14.00">posting_date </text>
<text text-anchor="start" x="488.21" y="-86.2" font-family="Arial" font-size="14.00" fill="#666666">[date]</text>
<polygon fill="none" stroke="black" points="397.14,-43.2 397.14,-74 624.62,-74 624.62,-43.2 397.14,-43.2"/>
<text text-anchor="start" x="404.14" y="-55.4" font-family="Arial" font-size="14.00">created_at </text>
<text text-anchor="start" x="474.19" y="-55.4" font-family="Arial" font-size="14.00" fill="#666666">[datetime]</text>
</g>
<!-- user_favorite&#45;&gt;scholarships -->
<g id="edge2" class="edge">
<title>user_favorite:scholarship_id&#45;&gt;scholarships:id</title>
<path fill="none" stroke="black" d="M485.6,-617.38C498.74,-608.31 487.19,-577.78 474.6,-558.4 453.93,-526.56 417.73,-554.3 397.14,-522.4 374.44,-487.22 354.27,-428.2 396.14,-428.2"/>
<polygon fill="black" stroke="black" points="485.6,-617.38 474.78,-615.56 480.44,-618.73 476.25,-619.83 476.25,-619.83 476.25,-619.83 480.44,-618.73 477.07,-624.27 485.6,-617.38"/>
<text text-anchor="start" x="482.6" y="-630" font-family="Arial" font-size="10.00">FOREIGN KEY (scholarship_id) REFERENCES scholarships (id)</text>
</g>
</g>
</svg>
