<?xml version="1.0" encoding="UTF-8" standalone="no"?>
<!DOCTYPE svg PUBLIC "-//W3C//DTD SVG 1.1//EN"
 "http://www.w3.org/Graphics/SVG/1.1/DTD/svg11.dtd">
<!-- Generated by graphviz version 12.1.2 (20240928.0832)
 -->
<!-- Title: users Pages: 1 -->
<svg width="760pt" height="914pt"
 viewBox="0.00 0.00 760.42 914.00" xmlns="http://www.w3.org/2000/svg" xmlns:xlink="http://www.w3.org/1999/xlink">
<g id="graph0" class="graph" transform="scale(1 1) rotate(0) translate(4 910)">
<title>users</title>
<polygon fill="white" stroke="none" points="-4,4 -4,-910 756.42,-910 756.42,4 -4,4"/>
<!-- users -->
<g id="node1" class="node">
<title>users</title>
<polygon fill="#efefef" stroke="none" points="235.7,-450.6 235.7,-486.2 411.18,-486.2 411.18,-450.6 235.7,-450.6"/>
<polygon fill="none" stroke="black" points="235.7,-450.6 235.7,-486.2 411.18,-486.2 411.18,-450.6 235.7,-450.6"/>
<text text-anchor="start" x="242.7" y="-464" font-family="Arial Bold" font-size="18.00">users</text>
<text text-anchor="start" x="279.69" y="-464" font-family="Arial" font-size="14.00">    </text>
<text text-anchor="start" x="310.81" y="-464" font-family="Arial" font-size="14.00" fill="#666666">[BASE TABLE]</text>
<polygon fill="none" stroke="black" points="235.7,-419.8 235.7,-450.6 411.18,-450.6 411.18,-419.8 235.7,-419.8"/>
<text text-anchor="start" x="242.7" y="-432" font-family="Arial" font-size="14.00">id </text>
<text text-anchor="start" x="257.48" y="-432" font-family="Arial" font-size="14.00" fill="#666666">[char(36)]</text>
<polygon fill="none" stroke="black" points="235.7,-389 235.7,-419.8 411.18,-419.8 411.18,-389 235.7,-389"/>
<text text-anchor="start" x="242.7" y="-401.2" font-family="Arial" font-size="14.00">email </text>
<text text-anchor="start" x="280.04" y="-401.2" font-family="Arial" font-size="14.00" fill="#666666">[varchar(255)]</text>
<polygon fill="none" stroke="black" points="235.7,-358.2 235.7,-389 411.18,-389 411.18,-358.2 235.7,-358.2"/>
<text text-anchor="start" x="242.7" y="-370.4" font-family="Arial" font-size="14.00">name </text>
<text text-anchor="start" x="281.61" y="-370.4" font-family="Arial" font-size="14.00" fill="#666666">[varchar(255)]</text>
<polygon fill="none" stroke="black" points="235.7,-327.4 235.7,-358.2 411.18,-358.2 411.18,-327.4 235.7,-327.4"/>
<text text-anchor="start" x="242.7" y="-339.6" font-family="Arial" font-size="14.00">education_level_id </text>
<text text-anchor="start" x="362.57" y="-339.6" font-family="Arial" font-size="14.00" fill="#666666">[int]</text>
<polygon fill="none" stroke="black" points="235.7,-296.6 235.7,-327.4 411.18,-327.4 411.18,-296.6 235.7,-296.6"/>
<text text-anchor="start" x="242.7" y="-308.8" font-family="Arial" font-size="14.00">created_at </text>
<text text-anchor="start" x="312.74" y="-308.8" font-family="Arial" font-size="14.00" fill="#666666">[timestamp]</text>
<polygon fill="none" stroke="black" points="235.7,-265.8 235.7,-296.6 411.18,-296.6 411.18,-265.8 235.7,-265.8"/>
<text text-anchor="start" x="242.7" y="-278" font-family="Arial" font-size="14.00">updated_at </text>
<text text-anchor="start" x="316.66" y="-278" font-family="Arial" font-size="14.00" fill="#666666">[timestamp]</text>
<polygon fill="none" stroke="black" stroke-width="3" points="234.2,-264.3 234.2,-487.7 412.68,-487.7 412.68,-264.3 234.2,-264.3"/>
</g>
<!-- education_levels -->
<g id="node4" class="node">
<title>education_levels</title>
<polygon fill="#efefef" stroke="none" points="193.72,-104.8 193.72,-140.4 453.16,-140.4 453.16,-104.8 193.72,-104.8"/>
<polygon fill="none" stroke="black" points="193.72,-104.8 193.72,-140.4 453.16,-140.4 453.16,-104.8 193.72,-104.8"/>
<text text-anchor="start" x="200.72" y="-118.2" font-family="Arial Bold" font-size="18.00">education_levels</text>
<text text-anchor="start" x="321.67" y="-118.2" font-family="Arial" font-size="14.00">    </text>
<text text-anchor="start" x="352.79" y="-118.2" font-family="Arial" font-size="14.00" fill="#666666">[BASE TABLE]</text>
<polygon fill="none" stroke="black" points="193.72,-74 193.72,-104.8 453.16,-104.8 453.16,-74 193.72,-74"/>
<text text-anchor="start" x="200.72" y="-86.2" font-family="Arial" font-size="14.00">id </text>
<text text-anchor="start" x="215.5" y="-86.2" font-family="Arial" font-size="14.00" fill="#666666">[int]</text>
<polygon fill="none" stroke="black" points="193.72,-43.2 193.72,-74 453.16,-74 453.16,-43.2 193.72,-43.2"/>
<text text-anchor="start" x="200.72" y="-55.4" font-family="Arial" font-size="14.00">name </text>
<text text-anchor="start" x="239.63" y="-55.4" font-family="Arial" font-size="14.00" fill="#666666">[varchar(8)]</text>
</g>
<!-- users&#45;&gt;education_levels -->
<g id="edge3" class="edge">
<title>users:education_level_id&#45;&gt;education_levels:id</title>
<path fill="none" stroke="black" d="M422.35,-342.12C528.74,-327.69 564.86,-89.4 454.16,-89.4"/>
<polygon fill="black" stroke="black" points="422.49,-342.11 412.21,-338.29 417.17,-342.46 412.85,-342.76 412.85,-342.76 412.85,-342.76 417.17,-342.46 412.81,-347.27 422.49,-342.11"/>
<text text-anchor="start" x="419.18" y="-352.8" font-family="Arial" font-size="10.00">FOREIGN KEY (education_level_id) REFERENCES education_levels (id)</text>
</g>
<!-- magic_links -->
<g id="node2" class="node">
<title>magic_links</title>
<polygon fill="#efefef" stroke="none" points="43.2,-827.2 43.2,-862.8 269.68,-862.8 269.68,-827.2 43.2,-827.2"/>
<polygon fill="none" stroke="black" points="43.2,-827.2 43.2,-862.8 269.68,-862.8 269.68,-827.2 43.2,-827.2"/>
<text text-anchor="start" x="50.2" y="-840.6" font-family="Arial Bold" font-size="18.00">magic_links</text>
<text text-anchor="start" x="138.19" y="-840.6" font-family="Arial" font-size="14.00">    </text>
<text text-anchor="start" x="169.3" y="-840.6" font-family="Arial" font-size="14.00" fill="#666666">[BASE TABLE]</text>
<polygon fill="none" stroke="black" points="43.2,-796.4 43.2,-827.2 269.68,-827.2 269.68,-796.4 43.2,-796.4"/>
<text text-anchor="start" x="50.2" y="-808.6" font-family="Arial" font-size="14.00">id </text>
<text text-anchor="start" x="64.99" y="-808.6" font-family="Arial" font-size="14.00" fill="#666666">[int]</text>
<polygon fill="none" stroke="black" points="43.2,-765.6 43.2,-796.4 269.68,-796.4 269.68,-765.6 43.2,-765.6"/>
<text text-anchor="start" x="50.2" y="-777.8" font-family="Arial" font-size="14.00">user_id </text>
<text text-anchor="start" x="100.01" y="-777.8" font-family="Arial" font-size="14.00" fill="#666666">[char(36)]</text>
<polygon fill="none" stroke="black" points="43.2,-734.8 43.2,-765.6 269.68,-765.6 269.68,-734.8 43.2,-734.8"/>
<text text-anchor="start" x="50.2" y="-747" font-family="Arial" font-size="14.00">token </text>
<text text-anchor="start" x="88.34" y="-747" font-family="Arial" font-size="14.00" fill="#666666">[varchar(255)]</text>
<polygon fill="none" stroke="black" points="43.2,-704 43.2,-734.8 269.68,-734.8 269.68,-704 43.2,-704"/>
<text text-anchor="start" x="50.2" y="-716.2" font-family="Arial" font-size="14.00">expires_at </text>
<text text-anchor="start" x="118.68" y="-716.2" font-family="Arial" font-size="14.00" fill="#666666">[datetime]</text>
<polygon fill="none" stroke="black" points="43.2,-673.2 43.2,-704 269.68,-704 269.68,-673.2 43.2,-673.2"/>
<text text-anchor="start" x="50.2" y="-685.4" font-family="Arial" font-size="14.00">used </text>
<text text-anchor="start" x="84.45" y="-685.4" font-family="Arial" font-size="14.00" fill="#666666">[tinyint(1)]</text>
<polygon fill="none" stroke="black" points="43.2,-642.4 43.2,-673.2 269.68,-673.2 269.68,-642.4 43.2,-642.4"/>
<text text-anchor="start" x="50.2" y="-654.6" font-family="Arial" font-size="14.00">created_at </text>
<text text-anchor="start" x="120.25" y="-654.6" font-family="Arial" font-size="14.00" fill="#666666">[datetime]</text>
<polygon fill="none" stroke="black" points="43.2,-611.6 43.2,-642.4 269.68,-642.4 269.68,-611.6 43.2,-611.6"/>
<text text-anchor="start" x="50.2" y="-623.8" font-family="Arial" font-size="14.00">updated_at </text>
<text text-anchor="start" x="124.16" y="-623.8" font-family="Arial" font-size="14.00" fill="#666666">[datetime]</text>
</g>
<!-- magic_links&#45;&gt;users -->
<g id="edge1" class="edge">
<title>magic_links:user_id&#45;&gt;users:id</title>
<path fill="none" stroke="black" d="M281.05,-780.44C360.49,-771.3 303.41,-652.7 269.68,-568.4 261.5,-547.97 243.93,-552.8 235.7,-532.4 219.54,-492.33 191.49,-435.2 234.7,-435.2"/>
<polygon fill="black" stroke="black" points="281,-780.44 270.77,-776.49 275.67,-780.73 271.34,-780.96 271.34,-780.96 271.34,-780.96 275.67,-780.73 271.25,-785.48 281,-780.44"/>
<text text-anchor="start" x="277.68" y="-791" font-family="Arial" font-size="10.00">FOREIGN KEY (user_id) REFERENCES users (id)</text>
</g>
<!-- user_favorite -->
<g id="node3" class="node">
<title>user_favorite</title>
<polygon fill="#efefef" stroke="none" points="373.72,-765.6 373.72,-801.2 607.16,-801.2 607.16,-765.6 373.72,-765.6"/>
<polygon fill="none" stroke="black" points="373.72,-765.6 373.72,-801.2 607.16,-801.2 607.16,-765.6 373.72,-765.6"/>
<text text-anchor="start" x="380.72" y="-779" font-family="Arial Bold" font-size="18.00">user_favorite</text>
<text text-anchor="start" x="475.67" y="-779" font-family="Arial" font-size="14.00">    </text>
<text text-anchor="start" x="506.79" y="-779" font-family="Arial" font-size="14.00" fill="#666666">[BASE TABLE]</text>
<polygon fill="none" stroke="black" points="373.72,-734.8 373.72,-765.6 607.16,-765.6 607.16,-734.8 373.72,-734.8"/>
<text text-anchor="start" x="380.72" y="-747" font-family="Arial" font-size="14.00">id </text>
<text text-anchor="start" x="395.5" y="-747" font-family="Arial" font-size="14.00" fill="#666666">[int]</text>
<polygon fill="none" stroke="black" points="373.72,-704 373.72,-734.8 607.16,-734.8 607.16,-704 373.72,-704"/>
<text text-anchor="start" x="380.72" y="-716.2" font-family="Arial" font-size="14.00">user_id </text>
<text text-anchor="start" x="430.52" y="-716.2" font-family="Arial" font-size="14.00" fill="#666666">[char(36)]</text>
<polygon fill="none" stroke="black" points="373.72,-673.2 373.72,-704 607.16,-704 607.16,-673.2 373.72,-673.2"/>
<text text-anchor="start" x="380.72" y="-685.4" font-family="Arial" font-size="14.00">scholarship_id </text>
<text text-anchor="start" x="474.1" y="-685.4" font-family="Arial" font-size="14.00" fill="#666666">[int]</text>
</g>
<!-- user_favorite&#45;&gt;users -->
<g id="edge2" class="edge">
<title>user_favorite:user_id&#45;&gt;users:id</title>
<path fill="none" stroke="black" d="M362.57,-718.68C262.09,-702.99 535.97,-435.2 412.18,-435.2"/>
<polygon fill="black" stroke="black" points="362.41,-718.67 372.06,-723.87 367.73,-719.05 372.05,-719.35 372.05,-719.35 372.05,-719.35 367.73,-719.05 372.7,-714.89 362.41,-718.67"/>
<text text-anchor="start" x="319.68" y="-703.4" font-family="Arial" font-size="10.00">FOREIGN KEY (user_id) REFERENCES users (id)</text>
</g>
</g>
</svg>
